SplineFontDB: 3.0
FontName: LiberationSerif-BoldItalic
FullName: Liberation Serif Bold Italic
FamilyName: Liberation Serif
Weight: Bold
Copyright: Copyright © 2007 Red Hat, Inc. All rights reserved. LIBERATION is a trademark of Red Hat, Inc.
Version: 1.06
ItalicAngle: -16.333
UnderlinePosition: -126
UnderlineWidth: 195
Ascent: 1638
Descent: 410
LayerCount: 2
Layer: 0 1 "Back"  1
Layer: 1 1 "Fore"  0
NeedsXUIDChange: 1
XUID: [1021 131 222397055 1085738]
FSType: 8
OS2Version: 3
OS2_WeightWidthSlopeOnly: 0
OS2_UseTypoMetrics: 1
CreationTime: 1123398000
ModificationTime: 1273471520
PfmFamily: 17
TTFWeight: 700
TTFWidth: 5
LineGap: 87
VLineGap: 0
Panose: 2 2 7 3 6 5 5 9 3 4
OS2TypoAscent: -251
OS2TypoAOffset: 1
OS2TypoDescent: -32
OS2TypoDOffset: 1
OS2TypoLinegap: 307
OS2WinAscent: -184
OS2WinAOffset: 1
OS2WinDescent: -178
OS2WinDOffset: 1
HheadAscent: -184
HheadAOffset: 1
HheadDescent: 178
HheadDOffset: 1
OS2SubXSize: 1434
OS2SubYSize: 1331
OS2SubXOff: 44
OS2SubYOff: 293
OS2SupXSize: 1434
OS2SupYSize: 1331
OS2SupXOff: 76
OS2SupYOff: 928
OS2StrikeYSize: 102
OS2StrikeYPos: 530
OS2FamilyClass: 261
OS2Vendor: '1ASC'
OS2CodePages: 6000009f.dfd70000
OS2UnicodeRanges: a00002af.500078fb.00000000.00000000
Lookup: 258 0 0 "'kern' Horizontal Kerning lookup 0"  {"'kern' Horizontal Kerning lookup 0 subtable"  } ['kern' ('DFLT' <'dflt' > 'cyrl' <'dflt' > 'grek' <'dflt' > 'latn' <'dflt' > ) ]
DEI: 91125
TtTable: prep
PUSHW_8
 80
 263
 1
 47
 263
 1
 175
 260
NPUSHB
 70
 1
 208
 253
 1
 191
 253
 1
 16
 253
 1
 111
 251
 1
 64
 251
 1
 242
 26
 200
 31
 247
 95
 51
 31
 246
 95
 255
 31
 245
 78
 255
 31
 241
 240
 51
 31
 63
 240
 79
 240
 2
 231
 230
 51
 31
 15
 230
 1
 0
 230
 16
 230
 2
 229
 228
 255
 31
 228
 171
 51
 31
 225
 224
 50
 31
 159
 224
 175
 224
 2
PUSHW_2
 266
 265
NPUSHB
 11
 51
 31
 223
 221
 51
 31
 222
 3
 51
 31
 31
NPUSHW
 25
 265
 47
 265
 2
 0
 265
 16
 265
 48
 265
 96
 265
 208
 265
 5
 16
 265
 48
 265
 64
 265
 96
 265
 176
 265
NPUSHB
 55
 5
 191
 221

StartChar: .notdef
Encoding: 1114112 -1 0
Width: 748
Flags: W
LayerCount: 2
Fore
SplineSet
68 0 m 1,0,-1
 68 1365 l 1,1,-1
 612 1365 l 1,2,-1
 612 0 l 1,3,-1
 68 0 l 1,0,-1
136 68 m 1,4,-1
 544 68 l 1,5,-1
 544 1297 l 1,6,-1
 136 1297 l 1,7,-1
 136 68 l 1,4,-1
EndSplineSet
EndChar

StartChar: exclam
Encoding: 33 33 4
Width: 797
Flags: W
LayerCount: 2
Fore
SplineSet
415 420 m 1,0,-1
 320 420 l 1,1,-1
 380 1341 l 1,2,-1
 679 1341 l 1,3,-1
 415 420 l 1,0,-1
322 -29 m 0,4,5
 287 -29 287 -29 257 -16 c 128,-1,6
 227 -3 227 -3 204.5 19.5 c 128,-1,7
 182 42 182 42 169 72 c 128,-1,8
 156 102 156 102 156 137 c 0,9,10
 156 171 156 171 169 201.5 c 128,-1,11
 182 232 182 232 204.5 254.5 c 128,-1,12
 227 277 227 277 257 290 c 128,-1,13
 287 303 287 303 322 303 c 0,14,15
 356 303 356 303 386.5 290 c 128,-1,16
 417 277 417 277 439.5 254.5 c 128,-1,17
 462 232 462 232 475 201.5 c 128,-1,18
 488 171 488 171 488 137 c 0,19,20
 488 102 488 102 475 72 c 128,-1,21
 462 42 462 42 439.5 19.5 c 128,-1,22
 417 -3 417 -3 386.5 -16 c 128,-1,23
 356 -29 356 -29 322 -29 c 0,4,5
EndSplineSet
EndChar

StartChar: quotedbl
Encoding: 34 34 5
Width: 1137
Flags: W
LayerCount: 2
Fore
SplineSet
763 1341 m 1,0,-1
 1001 1341 l 1,1,-1
 838 860 l 1,2,-1
 754 860 l 1,3,-1
 763 1341 l 1,0,-1
377 1341 m 1,4,-1
 615 1341 l 1,5,-1
 452 860 l 1,6,-1
 368 860 l 1,7,-1
 377 1341 l 1,4,-1
EndSplineSet
EndChar

StartChar: numbersign
Encoding: 35 35 6
Width: 1024
Flags: W
LayerCount: 2
Fore
SplineSet
713 411 m 1,0,-1
 565 0 l 1,1,-1
 414 0 l 1,2,-1
 562 411 l 1,3,-1
 300 411 l 1,4,-1
 154 0 l 1,5,-1
 0 0 l 1,6,-1
 148 411 l 1,7,-1
 -5 411 l 1,8,-1
 17 534 l 1,9,-1
 195 534 l 1,10,-1
 298 821 l 1,11,-1
 67 821 l 1,12,-1
 89 944 l 1,13,-1
 343 944 l 1,14,-1
 486 1341 l 1,15,-1
 638 1341 l 1,16,-1
 494 944 l 1,17,-1
 756 944 l 1,18,-1
 900 1341 l 1,19,-1
 1051 1341 l 1,20,-1
 907 944 l 1,21,-1
 1059 944 l 1,22,-1
 1037 821 l 1,23,-1
 863 821 l 1,24,-1
 762 534 l 1,25,-1
 987 534 l 1,26,-1
 965 411 l 1,27,-1
 713 411 l 1,0,-1
449 821 m 1,28,-1
 346 534 l 1,29,-1
 608 534 l 1,30,-1
 712 821 l 1,31,-1
 449 821 l 1,28,-1
EndSplineSet
EndChar

StartChar: dollar
Encoding: 36 36 7
Width: 1024
Flags: W
LayerCount: 2
Fore
SplineSet
713 1354 m 1,0,1
 784 1350 784 1350 852.5 1339.5 c 128,-1,2
 921 1329 921 1329 982 1313 c 1,3,-1
 926 994 l 1,4,-1
 837 994 l 1,5,-1
 830 1190 l 1,6,7
 802 1211 802 1211 768.5 1226 c 128,-1,8
 735 1241 735 1241 693 1247 c 1,9,-1
 611 810 l 1,10,11
 666 779 666 779 723 744 c 128,-1,12
 780 709 780 709 825.5 664 c 128,-1,13
 871 619 871 619 900 560 c 128,-1,14
 929 501 929 501 929 423 c 0,15,16
 929 220 929 220 808.5 110.5 c 128,-1,17
 688 1 688 1 455 -16 c 1,18,-1
 429 -156 l 1,19,-1
 327 -156 l 1,20,-1
 352 -20 l 1,21,22
 226 -18 226 -18 132.5 3.5 c 128,-1,23
 39 25 39 25 -24 51 c 1,24,-1
 40 411 l 1,25,-1
 128 411 l 1,26,-1
 129 196 l 1,27,28
 161 149 161 149 220.5 115.5 c 128,-1,29
 280 82 280 82 371 81 c 1,30,-1
 468 596 l 1,31,32
 414 624 414 624 358.5 656.5 c 128,-1,33
 303 689 303 689 259 733 c 128,-1,34
 215 777 215 777 187 836.5 c 128,-1,35
 159 896 159 896 159 979 c 0,36,37
 159 1162 159 1162 272.5 1254.5 c 128,-1,38
 386 1347 386 1347 611 1355 c 1,39,-1
 635 1483 l 1,40,-1
 738 1483 l 1,41,-1
 713 1354 l 1,0,1
685 346 m 0,42,43
 685 383 685 383 676 413.5 c 128,-1,44
 667 444 667 444 650.5 469 c 128,-1,45
 634 494 634 494 611.5 514.5 c 128,-1,46
 589 535 589 535 563 553 c 1,47,-1
 476 91 l 1,48,49
 530 103 530 103 569 128 c 128,-1,50
 608 153 608 153 634 187 c 128,-1,51
 660 221 660 221 672.5 261.5 c 128,-1,52
 685 302 685 302 685 346 c 0,42,43
399 1047 m 0,53,54
 399 982 399 982 432 937 c 128,-1,55
 465 892 465 892 517 856 c 1,56,-1
 592 1250 l 1,57,58
 538 1245 538 1245 501.5 1226.5 c 128,-1,59
 465 1208 465 1208 442 1180 c 128,-1,60
 419 1152 419 1152 409 1117.5 c 128,-1,61
 399 1083 399 1083 399 1047 c 0,53,54
EndSplineSet
EndChar

StartChar: percent
Encoding: 37 37 8
Width: 1706
Flags: W
LayerCount: 2
Fore
SplineSet
352 -20 m 1,0,-1
 202 -20 l 1,1,-1
 1394 1362 l 1,2,-1
 1545 1362 l 1,3,-1
 352 -20 l 1,0,-1
801 1105 m 0,4,5
 801 1079 801 1079 798 1052 c 128,-1,6
 795 1025 795 1025 790 995 c 0,7,8
 774 905 774 905 743 836 c 128,-1,9
 712 767 712 767 664 719.5 c 128,-1,10
 616 672 616 672 550.5 647.5 c 128,-1,11
 485 623 485 623 401 623 c 0,12,13
 267 623 267 623 199.5 688.5 c 128,-1,14
 132 754 132 754 132 882 c 0,15,16
 132 985 132 985 157.5 1072.5 c 128,-1,17
 183 1160 183 1160 233 1224.5 c 128,-1,18
 283 1289 283 1289 357 1325.5 c 128,-1,19
 431 1362 431 1362 528 1362 c 0,20,21
 662 1362 662 1362 731.5 1297.5 c 128,-1,22
 801 1233 801 1233 801 1105 c 0,4,5
323 853 m 0,23,24
 323 826 323 826 326.5 801 c 128,-1,25
 330 776 330 776 339.5 757.5 c 128,-1,26
 349 739 349 739 365 727.5 c 128,-1,27
 381 716 381 716 405 716 c 0,28,29
 470 716 470 716 520.5 789.5 c 128,-1,30
 571 863 571 863 594 995 c 0,31,32
 606 1062 606 1062 606 1115 c 0,33,34
 606 1190 606 1190 586 1229 c 128,-1,35
 566 1268 566 1268 518 1268 c 0,36,37
 455 1268 455 1268 408 1197 c 128,-1,38
 361 1126 361 1126 338 995 c 0,39,40
 333 966 333 966 328 928.5 c 128,-1,41
 323 891 323 891 323 853 c 0,23,24
1601 455 m 0,42,43
 1601 429 1601 429 1598 402 c 128,-1,44
 1595 375 1595 375 1590 345 c 0,45,46
 1574 255 1574 255 1543 186 c 128,-1,47
 1512 117 1512 117 1464 69.5 c 128,-1,48
 1416 22 1416 22 1350.5 -2.5 c 128,-1,49
 1285 -27 1285 -27 1201 -27 c 0,50,51
 1067 -27 1067 -27 999.5 38.5 c 128,-1,52
 932 104 932 104 932 232 c 0,53,54
 932 335 932 335 957.5 422.5 c 128,-1,55
 983 510 983 510 1033 574.5 c 128,-1,56
 1083 639 1083 639 1157 675.5 c 128,-1,57
 1231 712 1231 712 1328 712 c 0,58,59
 1462 712 1462 712 1531.5 647.5 c 128,-1,60
 1601 583 1601 583 1601 455 c 0,42,43
1123 203 m 0,61,62
 1123 176 1123 176 1126.5 151 c 128,-1,63
 1130 126 1130 126 1139.5 107.5 c 128,-1,64
 1149 89 1149 89 1165 77.5 c 128,-1,65
 1181 66 1181 66 1205 66 c 0,66,67
 1270 66 1270 66 1320.5 139.5 c 128,-1,68
 1371 213 1371 213 1394 345 c 0,69,70
 1406 412 1406 412 1406 465 c 0,71,72
 1406 540 1406 540 1386 579 c 128,-1,73
 1366 618 1366 618 1318 618 c 0,74,75
 1255 618 1255 618 1208 547 c 128,-1,76
 1161 476 1161 476 1138 345 c 0,77,78
 1133 316 1133 316 1128 278.5 c 128,-1,79
 1123 241 1123 241 1123 203 c 0,61,62
EndSplineSet
EndChar

StartChar: ampersand
Encoding: 38 38 9
Width: 1593
Flags: W
LayerCount: 2
Fore
SplineSet
1099 1102 m 0,0,1
 1099 1023 1099 1023 1067.5 968 c 128,-1,2
 1036 913 1036 913 985.5 873.5 c 128,-1,3
 935 834 935 834 871.5 805.5 c 128,-1,4
 808 777 808 777 745 752 c 1,5,-1
 1057 401 l 1,6,7
 1111 484 1111 484 1146 561.5 c 128,-1,8
 1181 639 1181 639 1196 717 c 1,9,-1
 1080 743 l 1,10,-1
 1091 807 l 1,11,-1
 1568 807 l 1,12,-1
 1557 743 l 1,13,-1
 1432 717 l 1,14,15
 1414 674 1414 674 1387 620.5 c 128,-1,16
 1360 567 1360 567 1326 509 c 128,-1,17
 1292 451 1292 451 1250.5 392.5 c 128,-1,18
 1209 334 1209 334 1161 282 c 1,19,-1
 1334 88 l 1,20,-1
 1456 63 l 1,21,-1
 1445 0 l 1,22,-1
 1081 0 l 1,23,-1
 980 120 l 1,24,25
 938 92 938 92 891.5 66.5 c 128,-1,26
 845 41 845 41 789.5 22 c 128,-1,27
 734 3 734 3 666.5 -8.5 c 128,-1,28
 599 -20 599 -20 515 -20 c 0,29,30
 392 -20 392 -20 304 6.5 c 128,-1,31
 216 33 216 33 159.5 81 c 128,-1,32
 103 129 103 129 76.5 196.5 c 128,-1,33
 50 264 50 264 50 347 c 0,34,35
 50 443 50 443 89 510.5 c 128,-1,36
 128 578 128 578 187 624.5 c 128,-1,37
 246 671 246 671 315.5 701 c 128,-1,38
 385 731 385 731 447 753 c 1,39,40
 414 805 414 805 387.5 875.5 c 128,-1,41
 361 946 361 946 361 1037 c 0,42,43
 361 1110 361 1110 387.5 1170 c 128,-1,44
 414 1230 414 1230 463.5 1272.5 c 128,-1,45
 513 1315 513 1315 584.5 1338 c 128,-1,46
 656 1361 656 1361 747 1361 c 0,47,48
 842 1361 842 1361 909 1338.5 c 128,-1,49
 976 1316 976 1316 1018 1279.5 c 128,-1,50
 1060 1243 1060 1243 1079.5 1196.5 c 128,-1,51
 1099 1150 1099 1150 1099 1102 c 0,0,1
517 658 m 1,52,53
 482 640 482 640 446 617.5 c 128,-1,54
 410 595 410 595 381 560.5 c 128,-1,55
 352 526 352 526 334 476.5 c 128,-1,56
 316 427 316 427 316 356 c 0,57,58
 316 296 316 296 333.5 249.5 c 128,-1,59
 351 203 351 203 382 171.5 c 128,-1,60
 413 140 413 140 455 124 c 128,-1,61
 497 108 497 108 547 108 c 0,62,63
 650 108 650 108 735.5 140.5 c 128,-1,64
 821 173 821 173 886 228 c 1,65,-1
 517 658 l 1,52,53
595 1071 m 0,66,67
 595 1013 595 1013 616.5 954.5 c 128,-1,68
 638 896 638 896 675 843 c 1,69,70
 718 863 718 863 755 885 c 128,-1,71
 792 907 792 907 819.5 935.5 c 128,-1,72
 847 964 847 964 863 1001 c 128,-1,73
 879 1038 879 1038 879 1088 c 0,74,75
 879 1172 879 1172 841.5 1218 c 128,-1,76
 804 1264 804 1264 747 1264 c 0,77,78
 673 1264 673 1264 634 1212 c 128,-1,79
 595 1160 595 1160 595 1071 c 0,66,67
EndSplineSet
EndChar

StartChar: quotesingle
Encoding: 39 39 10
Width: 569
Flags: W
LayerCount: 2
Fore
SplineSet
291 1341 m 1,0,-1
 529 1341 l 1,1,-1
 366 860 l 1,2,-1
 282 860 l 1,3,-1
 291 1341 l 1,0,-1
EndSplineSet
EndChar

StartChar: parenleft
Encoding: 40 40 11
Width: 682
Flags: W
LayerCount: 2
Fore
SplineSet
339 120 m 0,0,1
 339 -20 339 -20 375 -136.5 c 128,-1,2
 411 -253 411 -253 500 -332 c 1,3,-1
 478 -436 l 1,4,5
 383 -381 383 -381 312.5 -316 c 128,-1,6
 242 -251 242 -251 195 -172 c 128,-1,7
 148 -93 148 -93 124.5 3 c 128,-1,8
 101 99 101 99 101 218 c 0,9,10
 101 284 101 284 108.5 358 c 128,-1,11
 116 432 116 432 130 515 c 0,12,13
 163 703 163 703 218 841.5 c 128,-1,14
 273 980 273 980 354.5 1085 c 128,-1,15
 436 1190 436 1190 547.5 1270 c 128,-1,16
 659 1350 659 1350 805 1421 c 1,17,-1
 783 1297 l 1,18,19
 689 1234 689 1234 622 1143 c 128,-1,20
 555 1052 555 1052 507.5 944 c 128,-1,21
 460 836 460 836 428.5 716 c 128,-1,22
 397 596 397 596 376 474 c 1,23,24
 359 382 359 382 349 293 c 128,-1,25
 339 204 339 204 339 120 c 0,0,1
EndSplineSet
EndChar

StartChar: parenright
Encoding: 41 41 12
Width: 682
Flags: W
LayerCount: 2
Fore
SplineSet
-153 -436 m 1,0,-1
 -132 -312 l 1,1,2
 -39 -249 -39 -249 28.5 -158 c 128,-1,3
 96 -67 96 -67 144 41.5 c 128,-1,4
 192 150 192 150 223.5 271 c 128,-1,5
 255 392 255 392 277 514 c 0,6,7
 294 607 294 607 304 696 c 128,-1,8
 314 785 314 785 314 870 c 0,9,10
 314 939 314 939 305.5 1003 c 128,-1,11
 297 1067 297 1067 278.5 1123.5 c 128,-1,12
 260 1180 260 1180 229.5 1229 c 128,-1,13
 199 1278 199 1278 155 1317 c 1,14,-1
 173 1421 l 1,15,16
 268 1365 268 1365 339 1300.5 c 128,-1,17
 410 1236 410 1236 457 1157.5 c 128,-1,18
 504 1079 504 1079 527.5 983 c 128,-1,19
 551 887 551 887 551 769 c 0,20,21
 551 641 551 641 522 475 c 0,22,23
 489 286 489 286 433.5 146.5 c 128,-1,24
 378 7 378 7 296.5 -98.5 c 128,-1,25
 215 -204 215 -204 103.5 -284.5 c 128,-1,26
 -8 -365 -8 -365 -153 -436 c 1,0,-1
EndSplineSet
EndChar

StartChar: asterisk
Encoding: 42 42 13
Width: 1024
Flags: W
LayerCount: 2
Fore
SplineSet
632 889 m 1,0,-1
 654 565 l 1,1,-1
 424 602 l 1,2,-1
 543 907 l 1,3,-1
 223 719 l 1,4,-1
 163 944 l 1,5,-1
 480 983 l 1,6,-1
 191 1120 l 1,7,-1
 317 1315 l 1,8,-1
 564 1040 l 1,9,-1
 545 1364 l 1,10,-1
 775 1328 l 1,11,-1
 653 1026 l 1,12,-1
 973 1205 l 1,13,-1
 1034 984 l 1,14,-1
 712 946 l 1,15,-1
 1007 812 l 1,16,-1
 880 619 l 1,17,-1
 632 889 l 1,0,-1
EndSplineSet
EndChar

StartChar: plus
Encoding: 43 43 14
Width: 1167
Flags: W
LayerCount: 2
Fore
SplineSet
672 608 m 1,0,-1
 672 203 l 1,1,-1
 529 203 l 1,2,-1
 529 608 l 1,3,-1
 125 608 l 1,4,-1
 125 751 l 1,5,-1
 529 751 l 1,6,-1
 529 1157 l 1,7,-1
 672 1157 l 1,8,-1
 672 751 l 1,9,-1
 1077 751 l 1,10,-1
 1077 608 l 1,11,-1
 672 608 l 1,0,-1
EndSplineSet
EndChar

StartChar: comma
Encoding: 44 44 15
Width: 512
Flags: W
LayerCount: 2
Fore
SplineSet
343 106 m 0,0,1
 343 35 343 35 321.5 -29.5 c 128,-1,2
 300 -94 300 -94 253.5 -149 c 128,-1,3
 207 -204 207 -204 133.5 -247 c 128,-1,4
 60 -290 60 -290 -44 -317 c 1,5,-1
 -44 -225 l 1,6,7
 7 -211 7 -211 42 -187 c 128,-1,8
 77 -163 77 -163 98.5 -136 c 128,-1,9
 120 -109 120 -109 129 -83 c 128,-1,10
 138 -57 138 -57 138 -39 c 0,11,12
 138 -19 138 -19 127.5 -5.5 c 128,-1,13
 117 8 117 8 101.5 19 c 128,-1,14
 86 30 86 30 67.5 41.5 c 128,-1,15
 49 53 49 53 33.5 69 c 128,-1,16
 18 85 18 85 7.5 108.5 c 128,-1,17
 -3 132 -3 132 -3 168 c 0,18,19
 -3 233 -3 233 42 267 c 128,-1,20
 87 301 87 301 156 301 c 0,21,22
 194 301 194 301 228 288.5 c 128,-1,23
 262 276 262 276 287.5 251 c 128,-1,24
 313 226 313 226 328 190 c 128,-1,25
 343 154 343 154 343 106 c 0,0,1
EndSplineSet
EndChar

StartChar: uni00AD
Encoding: 173 173 16
AltUni2: 00002d.ffffffff.0 00002d.ffffffff.0
Width: 682
Flags: W
LayerCount: 2
Fore
SplineSet
43 395 m 1,0,-1
 76 569 l 1,1,-1
 608 569 l 1,2,-1
 575 395 l 1,3,-1
 43 395 l 1,0,-1
EndSplineSet
EndChar

StartChar: period
Encoding: 46 46 17
Width: 512
Flags: W
LayerCount: 2
Fore
SplineSet
181 -29 m 0,0,1
 146 -29 146 -29 116 -16 c 128,-1,2
 86 -3 86 -3 63.5 19.5 c 128,-1,3
 41 42 41 42 28 72 c 128,-1,4
 15 102 15 102 15 137 c 0,5,6
 15 171 15 171 28 201.5 c 128,-1,7
 41 232 41 232 63.5 254.5 c 128,-1,8
 86 277 86 277 116 290 c 128,-1,9
 146 303 146 303 181 303 c 0,10,11
 215 303 215 303 245.5 290 c 128,-1,12
 276 277 276 277 298.5 254.5 c 128,-1,13
 321 232 321 232 334 201.5 c 128,-1,14
 347 171 347 171 347 137 c 0,15,16
 347 102 347 102 334 72 c 128,-1,17
 321 42 321 42 298.5 19.5 c 128,-1,18
 276 -3 276 -3 245.5 -16 c 128,-1,19
 215 -29 215 -29 181 -29 c 0,0,1
EndSplineSet
EndChar

StartChar: slash
Encoding: 47 47 18
Width: 569
Flags: W
LayerCount: 2
Fore
SplineSet
16 -20 m 1,0,-1
 -124 -20 l 1,1,-1
 586 1349 l 1,2,-1
 726 1349 l 1,3,-1
 16 -20 l 1,0,-1
EndSplineSet
EndChar

StartChar: zero
Encoding: 48 48 19
Width: 1024
Flags: W
LayerCount: 2
Fore
SplineSet
988 951 m 0,0,1
 988 893 988 893 981.5 820.5 c 128,-1,2
 975 748 975 748 962 676 c 0,3,4
 932 508 932 508 884.5 378 c 128,-1,5
 837 248 837 248 769 159.5 c 128,-1,6
 701 71 701 71 612 25.5 c 128,-1,7
 523 -20 523 -20 410 -20 c 0,8,9
 245 -20 245 -20 158 83.5 c 128,-1,10
 71 187 71 187 71 399 c 0,11,12
 71 458 71 458 77 529.5 c 128,-1,13
 83 601 83 601 96 676 c 0,14,15
 126 842 126 842 174 970 c 128,-1,16
 222 1098 222 1098 289.5 1185 c 128,-1,17
 357 1272 357 1272 445 1317 c 128,-1,18
 533 1362 533 1362 643 1362 c 0,19,20
 809 1362 809 1362 898.5 1262 c 128,-1,21
 988 1162 988 1162 988 951 c 0,0,1
741 970 m 1,22,23
 741 1108 741 1108 713.5 1179.5 c 128,-1,24
 686 1251 686 1251 617 1251 c 0,25,26
 566 1251 566 1251 526 1213.5 c 128,-1,27
 486 1176 486 1176 454 1104 c 128,-1,28
 422 1032 422 1032 396 926 c 128,-1,29
 370 820 370 820 348 683 c 0,30,31
 332 585 332 585 324 510.5 c 128,-1,32
 316 436 316 436 316 367 c 0,33,34
 316 306 316 306 322 255 c 128,-1,35
 328 204 328 204 342 167.5 c 128,-1,36
 356 131 356 131 378.5 110.5 c 128,-1,37
 401 90 401 90 435 90 c 0,38,39
 487 90 487 90 527 126 c 128,-1,40
 567 162 567 162 599.5 232.5 c 128,-1,41
 632 303 632 303 657.5 407.5 c 128,-1,42
 683 512 683 512 706 649 c 0,43,44
 713 694 713 694 719 739 c 128,-1,45
 725 784 725 784 729.5 826 c 128,-1,46
 734 868 734 868 737 904.5 c 128,-1,47
 740 941 740 941 741 970 c 1,22,23
EndSplineSet
EndChar

StartChar: one
Encoding: 49 49 20
Width: 1024
Flags: W
LayerCount: 2
Fore
SplineSet
578 110 m 1,0,-1
 817 86 l 1,1,-1
 802 0 l 1,2,-1
 48 0 l 1,3,-1
 63 86 l 1,4,-1
 309 110 l 1,5,-1
 486 1116 l 1,6,-1
 233 1045 l 1,7,-1
 248 1130 l 1,8,-1
 665 1352 l 1,9,-1
 797 1352 l 1,10,-1
 578 110 l 1,0,-1
EndSplineSet
EndChar

StartChar: two
Encoding: 50 50 21
Width: 1024
Flags: W
LayerCount: 2
Fore
SplineSet
825 0 m 1,0,-1
 -25 0 l 1,1,-1
 8 189 l 1,2,3
 157 304 157 304 284 414 c 128,-1,4
 411 524 411 524 503.5 630 c 128,-1,5
 596 736 596 736 648.5 840 c 128,-1,6
 701 944 701 944 701 1049 c 0,7,8
 701 1157 701 1157 651 1205.5 c 128,-1,9
 601 1254 601 1254 520 1254 c 0,10,11
 472 1254 472 1254 432 1239.5 c 128,-1,12
 392 1225 392 1225 361 1202 c 1,13,-1
 284 1008 l 1,14,-1
 197 1008 l 1,15,-1
 251 1313 l 1,16,17
 335 1331 335 1331 413.5 1343.5 c 128,-1,18
 492 1356 492 1356 582 1356 c 0,19,20
 679 1356 679 1356 752.5 1335.5 c 128,-1,21
 826 1315 826 1315 876 1277 c 128,-1,22
 926 1239 926 1239 951.5 1186 c 128,-1,23
 977 1133 977 1133 977 1067 c 0,24,25
 977 980 977 980 948 901.5 c 128,-1,26
 919 823 919 823 867.5 750.5 c 128,-1,27
 816 678 816 678 743.5 609.5 c 128,-1,28
 671 541 671 541 583.5 474.5 c 128,-1,29
 496 408 496 408 397 341.5 c 128,-1,30
 298 275 298 275 192 206 c 1,31,-1
 864 206 l 1,32,-1
 825 0 l 1,0,-1
EndSplineSet
EndChar

StartChar: three
Encoding: 51 51 22
Width: 1024
Flags: W
LayerCount: 2
Fore
SplineSet
347 -20 m 0,0,1
 116 -20 116 -20 -16 20 c 1,2,-1
 29 345 l 1,3,-1
 121 345 l 1,4,-1
 135 130 l 1,5,6
 148 119 148 119 173 110.5 c 128,-1,7
 198 102 198 102 227 95 c 128,-1,8
 256 88 256 88 285.5 84.5 c 128,-1,9
 315 81 315 81 336 81 c 0,10,11
 474 81 474 81 551 160 c 128,-1,12
 628 239 628 239 628 394 c 0,13,14
 628 509 628 509 578.5 565.5 c 128,-1,15
 529 622 529 622 432 633 c 1,16,-1
 317 640 l 1,17,-1
 339 761 l 1,18,-1
 452 769 l 2,19,20
 516 773 516 773 561.5 795 c 128,-1,21
 607 817 607 817 636 853.5 c 128,-1,22
 665 890 665 890 678 940 c 128,-1,23
 691 990 691 990 691 1051 c 0,24,25
 691 1152 691 1152 643 1203 c 128,-1,26
 595 1254 595 1254 510 1254 c 0,27,28
 464 1254 464 1254 423.5 1239.5 c 128,-1,29
 383 1225 383 1225 354 1202 c 1,30,-1
 277 1008 l 1,31,-1
 190 1008 l 1,32,-1
 244 1313 l 1,33,34
 280 1322 280 1322 316.5 1330 c 128,-1,35
 353 1338 353 1338 392.5 1344 c 128,-1,36
 432 1350 432 1350 476.5 1353 c 128,-1,37
 521 1356 521 1356 574 1356 c 0,38,39
 668 1356 668 1356 742 1335.5 c 128,-1,40
 816 1315 816 1315 866 1277.5 c 128,-1,41
 916 1240 916 1240 942.5 1186 c 128,-1,42
 969 1132 969 1132 969 1065 c 0,43,44
 969 991 969 991 948.5 930 c 128,-1,45
 928 869 928 869 886 822.5 c 128,-1,46
 844 776 844 776 780.5 745.5 c 128,-1,47
 717 715 717 715 631 702 c 1,48,49
 694 692 694 692 745 666.5 c 128,-1,50
 796 641 796 641 831.5 601.5 c 128,-1,51
 867 562 867 562 886.5 510 c 128,-1,52
 906 458 906 458 906 397 c 0,53,54
 906 291 906 291 863 212.5 c 128,-1,55
 820 134 820 134 744.5 82.5 c 128,-1,56
 669 31 669 31 567 5.5 c 128,-1,57
 465 -20 465 -20 347 -20 c 0,0,1
EndSplineSet
EndChar

StartChar: four
Encoding: 52 52 23
Width: 1024
Flags: W
LayerCount: 2
Fore
SplineSet
772 275 m 1,0,-1
 725 0 l 1,1,-1
 476 0 l 1,2,-1
 523 275 l 1,3,-1
 -32 275 l 1,4,-1
 -4 428 l 1,5,-1
 759 1348 l 1,6,-1
 962 1348 l 1,7,-1
 805 460 l 1,8,-1
 962 460 l 1,9,-1
 929 275 l 1,10,-1
 772 275 l 1,0,-1
625 846 m 2,11,12
 630 873 630 873 639.5 912.5 c 128,-1,13
 649 952 649 952 658 989 c 0,14,15
 669 1032 669 1032 681 1077 c 1,16,-1
 171 460 l 1,17,-1
 556 460 l 1,18,-1
 625 846 l 2,11,12
EndSplineSet
EndChar

StartChar: five
Encoding: 53 53 24
Width: 1024
Flags: W
LayerCount: 2
Fore
SplineSet
516 798 m 0,0,1
 617 798 617 798 692 773.5 c 128,-1,2
 767 749 767 749 816 703.5 c 128,-1,3
 865 658 865 658 889 593.5 c 128,-1,4
 913 529 913 529 913 450 c 0,5,6
 913 337 913 337 874.5 249.5 c 128,-1,7
 836 162 836 162 763 102 c 128,-1,8
 690 42 690 42 583 11 c 128,-1,9
 476 -20 476 -20 340 -20 c 0,10,11
 285 -20 285 -20 241.5 -17 c 128,-1,12
 198 -14 198 -14 161.5 -8.5 c 128,-1,13
 125 -3 125 -3 91.5 4.5 c 128,-1,14
 58 12 58 12 23 20 c 1,15,-1
 68 345 l 1,16,-1
 160 345 l 1,17,-1
 174 130 l 1,18,19
 202 107 202 107 252 94 c 128,-1,20
 302 81 302 81 354 81 c 0,21,22
 427 81 427 81 480.5 107.5 c 128,-1,23
 534 134 534 134 569.5 182 c 128,-1,24
 605 230 605 230 622 297 c 128,-1,25
 639 364 639 364 639 445 c 0,26,27
 639 496 639 496 629.5 540 c 128,-1,28
 620 584 620 584 597 617 c 128,-1,29
 574 650 574 650 536 668.5 c 128,-1,30
 498 687 498 687 442 687 c 0,31,32
 414 687 414 687 386.5 683 c 128,-1,33
 359 679 359 679 333.5 673.5 c 128,-1,34
 308 668 308 668 286.5 661 c 128,-1,35
 265 654 265 654 250 648 c 1,36,-1
 157 648 l 1,37,-1
 279 1341 l 1,38,-1
 971 1341 l 1,39,-1
 935 1138 l 1,40,-1
 369 1138 l 1,41,-1
 306 773 l 1,42,43
 324 778 324 778 344.5 782.5 c 128,-1,44
 365 787 365 787 390 790.5 c 128,-1,45
 415 794 415 794 446 796 c 128,-1,46
 477 798 477 798 516 798 c 0,0,1
EndSplineSet
EndChar

StartChar: six
Encoding: 54 54 25
Width: 1024
Flags: W
LayerCount: 2
Fore
SplineSet
459 -20 m 0,0,1
 365 -20 365 -20 292.5 11 c 128,-1,2
 220 42 220 42 170.5 102 c 128,-1,3
 121 162 121 162 95.5 248.5 c 128,-1,4
 70 335 70 335 70 446 c 0,5,6
 70 571 70 571 94.5 687.5 c 128,-1,7
 119 804 119 804 163 905 c 128,-1,8
 207 1006 207 1006 268.5 1089 c 128,-1,9
 330 1172 330 1172 404.5 1231.5 c 128,-1,10
 479 1291 479 1291 564.5 1323.5 c 128,-1,11
 650 1356 650 1356 742 1356 c 0,12,13
 824 1356 824 1356 897 1343 c 128,-1,14
 970 1330 970 1330 1024 1313 c 1,15,-1
 970 1008 l 1,16,-1
 883 1008 l 1,17,-1
 874 1202 l 1,18,19
 843 1227 843 1227 807 1240.5 c 128,-1,20
 771 1254 771 1254 733 1254 c 0,21,22
 663 1254 663 1254 604 1214 c 128,-1,23
 545 1174 545 1174 498 1105 c 128,-1,24
 451 1036 451 1036 416 942.5 c 128,-1,25
 381 849 381 849 360 742 c 1,26,27
 415 771 415 771 482 793 c 128,-1,28
 549 815 549 815 624 815 c 0,29,30
 705 815 705 815 765.5 790.5 c 128,-1,31
 826 766 826 766 865.5 722 c 128,-1,32
 905 678 905 678 924.5 617 c 128,-1,33
 944 556 944 556 944 483 c 0,34,35
 944 379 944 379 912 287.5 c 128,-1,36
 880 196 880 196 818.5 128 c 128,-1,37
 757 60 757 60 666.5 20 c 128,-1,38
 576 -20 576 -20 459 -20 c 0,0,1
329 415 m 0,39,40
 329 318 329 318 341.5 253.5 c 128,-1,41
 354 189 354 189 375.5 151 c 128,-1,42
 397 113 397 113 424.5 97 c 128,-1,43
 452 81 452 81 482 81 c 0,44,45
 526 81 526 81 562 108 c 128,-1,46
 598 135 598 135 623.5 184.5 c 128,-1,47
 649 234 649 234 663 304 c 128,-1,48
 677 374 677 374 677 459 c 0,49,50
 677 579 677 579 631 634.5 c 128,-1,51
 585 690 585 690 513 690 c 0,52,53
 473 690 473 690 430 678.5 c 128,-1,54
 387 667 387 667 344 649 c 1,55,56
 329 535 329 535 329 415 c 0,39,40
EndSplineSet
EndChar

StartChar: seven
Encoding: 55 55 26
Width: 1024
Flags: W
LayerCount: 2
Fore
SplineSet
254 958 m 1,0,-1
 167 958 l 1,1,-1
 235 1341 l 1,2,-1
 1092 1341 l 1,3,-1
 1078 1262 l 1,4,-1
 345 0 l 1,5,-1
 86 0 l 1,6,-1
 860 1138 l 1,7,-1
 331 1138 l 1,8,-1
 254 958 l 1,0,-1
EndSplineSet
EndChar

StartChar: eight
Encoding: 56 56 27
Width: 1024
Flags: W
LayerCount: 2
Fore
SplineSet
993 1085 m 0,0,1
 993 1005 993 1005 972.5 942.5 c 128,-1,2
 952 880 952 880 917.5 833.5 c 128,-1,3
 883 787 883 787 837.5 756.5 c 128,-1,4
 792 726 792 726 741 711 c 1,5,6
 824 681 824 681 871.5 611.5 c 128,-1,7
 919 542 919 542 919 440 c 0,8,9
 919 329 919 329 889 243 c 128,-1,10
 859 157 859 157 797.5 98.5 c 128,-1,11
 736 40 736 40 642 10 c 128,-1,12
 548 -20 548 -20 419 -20 c 0,13,14
 321 -20 321 -20 249 5 c 128,-1,15
 177 30 177 30 130 75.5 c 128,-1,16
 83 121 83 121 60 183.5 c 128,-1,17
 37 246 37 246 37 321 c 0,18,19
 37 403 37 403 59 468.5 c 128,-1,20
 81 534 81 534 121 582.5 c 128,-1,21
 161 631 161 631 216 663.5 c 128,-1,22
 271 696 271 696 337 711 c 1,23,24
 305 728 305 728 279 755.5 c 128,-1,25
 253 783 253 783 234.5 817.5 c 128,-1,26
 216 852 216 852 205.5 893.5 c 128,-1,27
 195 935 195 935 195 980 c 0,28,29
 195 1068 195 1068 222 1139 c 128,-1,30
 249 1210 249 1210 305 1259.5 c 128,-1,31
 361 1309 361 1309 446.5 1335.5 c 128,-1,32
 532 1362 532 1362 649 1362 c 0,33,34
 737 1362 737 1362 801.5 1343 c 128,-1,35
 866 1324 866 1324 908.5 1288 c 128,-1,36
 951 1252 951 1252 972 1200.5 c 128,-1,37
 993 1149 993 1149 993 1085 c 0,0,1
447 914 m 0,38,39
 447 846 447 846 471 806 c 128,-1,40
 495 766 495 766 553 766 c 0,41,42
 601 766 601 766 636.5 795 c 128,-1,43
 672 824 672 824 695 872 c 128,-1,44
 718 920 718 920 729 982 c 128,-1,45
 740 1044 740 1044 740 1109 c 0,46,47
 740 1182 740 1182 713.5 1221.5 c 128,-1,48
 687 1261 687 1261 625 1261 c 0,49,50
 578 1261 578 1261 544 1234 c 128,-1,51
 510 1207 510 1207 488.5 1160 c 128,-1,52
 467 1113 467 1113 457 1049.5 c 128,-1,53
 447 986 447 986 447 914 c 0,38,39
289 272 m 0,54,55
 289 181 289 181 326.5 132 c 128,-1,56
 364 83 364 83 443 83 c 0,57,58
 503 83 503 83 545.5 112 c 128,-1,59
 588 141 588 141 614.5 193 c 128,-1,60
 641 245 641 245 653.5 316 c 128,-1,61
 666 387 666 387 666 471 c 0,62,63
 666 512 666 512 657.5 546 c 128,-1,64
 649 580 649 580 631 604 c 128,-1,65
 613 628 613 628 584 641 c 128,-1,66
 555 654 555 654 513 654 c 0,67,68
 456 654 456 654 414 626.5 c 128,-1,69
 372 599 372 599 344.5 548.5 c 128,-1,70
 317 498 317 498 303 427.5 c 128,-1,71
 289 357 289 357 289 272 c 0,54,55
EndSplineSet
EndChar

StartChar: nine
Encoding: 57 57 28
Width: 1024
Flags: W
LayerCount: 2
Fore
SplineSet
588 1355 m 0,0,1
 674 1355 674 1355 747.5 1323.5 c 128,-1,2
 821 1292 821 1292 874.5 1231.5 c 128,-1,3
 928 1171 928 1171 958 1082.5 c 128,-1,4
 988 994 988 994 988 880 c 0,5,6
 988 753 988 753 964.5 636.5 c 128,-1,7
 941 520 941 520 898 420 c 128,-1,8
 855 320 855 320 794.5 239 c 128,-1,9
 734 158 734 158 660.5 100.5 c 128,-1,10
 587 43 587 43 502.5 11.5 c 128,-1,11
 418 -20 418 -20 326 -20 c 0,12,13
 238 -20 238 -20 165.5 -8.5 c 128,-1,14
 93 3 93 3 30 23 c 1,15,-1
 84 328 l 1,16,-1
 171 328 l 1,17,-1
 180 134 l 1,18,19
 215 106 215 106 258 94 c 128,-1,20
 301 82 301 82 339 82 c 0,21,22
 409 82 409 82 467.5 121.5 c 128,-1,23
 526 161 526 161 572 229 c 128,-1,24
 618 297 618 297 650.5 388.5 c 128,-1,25
 683 480 683 480 703 584 c 1,26,27
 649 558 649 558 584 539.5 c 128,-1,28
 519 521 519 521 443 521 c 0,29,30
 358 521 358 521 296 548 c 128,-1,31
 234 575 234 575 193.5 622.5 c 128,-1,32
 153 670 153 670 133.5 734 c 128,-1,33
 114 798 114 798 114 872 c 0,34,35
 114 971 114 971 146.5 1059 c 128,-1,36
 179 1147 179 1147 240 1212.5 c 128,-1,37
 301 1278 301 1278 389 1316.5 c 128,-1,38
 477 1355 477 1355 588 1355 c 0,0,1
730 883 m 0,39,40
 730 989 730 989 716 1060 c 128,-1,41
 702 1131 702 1131 680 1174.5 c 128,-1,42
 658 1218 658 1218 630.5 1236.5 c 128,-1,43
 603 1255 603 1255 576 1255 c 0,44,45
 532 1255 532 1255 495.5 1227 c 128,-1,46
 459 1199 459 1199 433 1148.5 c 128,-1,47
 407 1098 407 1098 393 1027.5 c 128,-1,48
 379 957 379 957 379 872 c 0,49,50
 379 758 379 758 420 702 c 128,-1,51
 461 646 461 646 535 646 c 0,52,53
 576 646 576 646 624 657 c 128,-1,54
 672 668 672 668 718 685 c 1,55,56
 730 782 730 782 730 883 c 0,39,40
EndSplineSet
EndChar

StartChar: colon
Encoding: 58 58 29
Width: 682
Flags: W
LayerCount: 2
Fore
SplineSet
374 628 m 256,0,1
 339 628 339 628 308.5 641 c 128,-1,2
 278 654 278 654 256 676.5 c 128,-1,3
 234 699 234 699 221.5 729 c 128,-1,4
 209 759 209 759 209 794 c 256,5,6
 209 829 209 829 221.5 859.5 c 128,-1,7
 234 890 234 890 256 912.5 c 128,-1,8
 278 935 278 935 308.5 947.5 c 128,-1,9
 339 960 339 960 374 960 c 256,10,11
 409 960 409 960 439 947.5 c 128,-1,12
 469 935 469 935 491.5 912.5 c 128,-1,13
 514 890 514 890 527 859.5 c 128,-1,14
 540 829 540 829 540 794 c 256,15,16
 540 759 540 759 527 729 c 128,-1,17
 514 699 514 699 491.5 676.5 c 128,-1,18
 469 654 469 654 439 641 c 128,-1,19
 409 628 409 628 374 628 c 256,0,1
235 -29 m 0,20,21
 200 -29 200 -29 170 -16 c 128,-1,22
 140 -3 140 -3 117.5 19.5 c 128,-1,23
 95 42 95 42 82 72 c 128,-1,24
 69 102 69 102 69 137 c 0,25,26
 69 171 69 171 82 201.5 c 128,-1,27
 95 232 95 232 117.5 254.5 c 128,-1,28
 140 277 140 277 170 290 c 128,-1,29
 200 303 200 303 235 303 c 0,30,31
 269 303 269 303 299.5 290 c 128,-1,32
 330 277 330 277 352.5 254.5 c 128,-1,33
 375 232 375 232 388 201.5 c 128,-1,34
 401 171 401 171 401 137 c 0,35,36
 401 102 401 102 388 72 c 128,-1,37
 375 42 375 42 352.5 19.5 c 128,-1,38
 330 -3 330 -3 299.5 -16 c 128,-1,39
 269 -29 269 -29 235 -29 c 0,20,21
EndSplineSet
EndChar

StartChar: uni037E
Encoding: 894 894 30
AltUni2: 00003b.ffffffff.0 00003b.ffffffff.0
Width: 682
Flags: W
LayerCount: 2
Fore
SplineSet
413 106 m 0,0,1
 413 35 413 35 391.5 -29.5 c 128,-1,2
 370 -94 370 -94 323.5 -149 c 128,-1,3
 277 -204 277 -204 203.5 -247 c 128,-1,4
 130 -290 130 -290 26 -317 c 1,5,-1
 26 -225 l 1,6,7
 77 -211 77 -211 112 -187 c 128,-1,8
 147 -163 147 -163 168.5 -136 c 128,-1,9
 190 -109 190 -109 199 -83 c 128,-1,10
 208 -57 208 -57 208 -39 c 0,11,12
 208 -19 208 -19 197.5 -5.5 c 128,-1,13
 187 8 187 8 171.5 19 c 128,-1,14
 156 30 156 30 137.5 41.5 c 128,-1,15
 119 53 119 53 103.5 69 c 128,-1,16
 88 85 88 85 77.5 108.5 c 128,-1,17
 67 132 67 132 67 168 c 0,18,19
 67 233 67 233 112 267 c 128,-1,20
 157 301 157 301 226 301 c 0,21,22
 264 301 264 301 298 288.5 c 128,-1,23
 332 276 332 276 357.5 251 c 128,-1,24
 383 226 383 226 398 190 c 128,-1,25
 413 154 413 154 413 106 c 0,0,1
382 628 m 256,26,27
 347 628 347 628 316.5 641 c 128,-1,28
 286 654 286 654 264 676.5 c 128,-1,29
 242 699 242 699 229.5 729 c 128,-1,30
 217 759 217 759 217 794 c 256,31,32
 217 829 217 829 229.5 859.5 c 128,-1,33
 242 890 242 890 264 912.5 c 128,-1,34
 286 935 286 935 316.5 947.5 c 128,-1,35
 347 960 347 960 382 960 c 256,36,37
 417 960 417 960 447 947.5 c 128,-1,38
 477 935 477 935 499.5 912.5 c 128,-1,39
 522 890 522 890 535 859.5 c 128,-1,40
 548 829 548 829 548 794 c 256,41,42
 548 759 548 759 535 729 c 128,-1,43
 522 699 522 699 499.5 676.5 c 128,-1,44
 477 654 477 654 447 641 c 128,-1,45
 417 628 417 628 382 628 c 256,26,27
EndSplineSet
EndChar

StartChar: less
Encoding: 60 60 31
Width: 1167
Flags: W
LayerCount: 2
Fore
SplineSet
101 635 m 1,0,-1
 101 725 l 1,1,-1
 1053 1193 l 1,2,-1
 1053 1050 l 1,3,-1
 286 680 l 1,4,-1
 1053 309 l 1,5,-1
 1053 166 l 1,6,-1
 101 635 l 1,0,-1
EndSplineSet
EndChar

StartChar: equal
Encoding: 61 61 32
Width: 1167
Flags: W
LayerCount: 2
Fore
SplineSet
1070 547 m 1,0,-1
 1070 403 l 1,1,-1
 118 403 l 1,2,-1
 118 547 l 1,3,-1
 1070 547 l 1,0,-1
1070 956 m 1,4,-1
 1070 813 l 1,5,-1
 118 813 l 1,6,-1
 118 956 l 1,7,-1
 1070 956 l 1,4,-1
EndSplineSet
EndChar

StartChar: greater
Encoding: 62 62 33
Width: 1167
Flags: W
LayerCount: 2
Fore
SplineSet
153 166 m 1,0,-1
 153 309 l 1,1,-1
 921 680 l 1,2,-1
 153 1050 l 1,3,-1
 153 1193 l 1,4,-1
 1105 725 l 1,5,-1
 1105 635 l 1,6,-1
 153 166 l 1,0,-1
EndSplineSet
EndChar

StartChar: question
Encoding: 63 63 34
Width: 1024
Flags: W
LayerCount: 2
Fore
SplineSet
950 1043 m 0,0,1
 950 872 950 872 859.5 769 c 128,-1,2
 769 666 769 666 578 614 c 2,3,-1
 497 592 l 1,4,-1
 434 390 l 1,5,-1
 331 390 l 1,6,-1
 329 703 l 1,7,-1
 436 726 l 2,8,9
 493 738 493 738 538 763 c 128,-1,10
 583 788 583 788 614.5 827.5 c 128,-1,11
 646 867 646 867 663 922 c 128,-1,12
 680 977 680 977 680 1051 c 0,13,14
 680 1146 680 1146 636.5 1200 c 128,-1,15
 593 1254 593 1254 491 1254 c 0,16,17
 453 1254 453 1254 411.5 1240.5 c 128,-1,18
 370 1227 370 1227 344 1207 c 1,19,-1
 279 1013 l 1,20,-1
 190 1013 l 1,21,-1
 230 1308 l 1,22,23
 299 1329 299 1329 379 1342.5 c 128,-1,24
 459 1356 459 1356 542 1356 c 0,25,26
 645 1356 645 1356 721.5 1334 c 128,-1,27
 798 1312 798 1312 849 1271.5 c 128,-1,28
 900 1231 900 1231 925 1173 c 128,-1,29
 950 1115 950 1115 950 1043 c 0,0,1
350 -29 m 256,30,31
 315 -29 315 -29 284.5 -16 c 128,-1,32
 254 -3 254 -3 232 19.5 c 128,-1,33
 210 42 210 42 197.5 72 c 128,-1,34
 185 102 185 102 185 137 c 0,35,36
 185 171 185 171 197.5 201.5 c 128,-1,37
 210 232 210 232 232 254.5 c 128,-1,38
 254 277 254 277 284.5 290 c 128,-1,39
 315 303 315 303 350 303 c 256,40,41
 385 303 385 303 415 290 c 128,-1,42
 445 277 445 277 467.5 254.5 c 128,-1,43
 490 232 490 232 503 201.5 c 128,-1,44
 516 171 516 171 516 137 c 0,45,46
 516 102 516 102 503 72 c 128,-1,47
 490 42 490 42 467.5 19.5 c 128,-1,48
 445 -3 445 -3 415 -16 c 128,-1,49
 385 -29 385 -29 350 -29 c 256,30,31
EndSplineSet
EndChar

StartChar: at
Encoding: 64 64 35
Width: 1704
Flags: W
LayerCount: 2
Fore
SplineSet
972 1364 m 0,0,1
 1140 1364 1140 1364 1267 1320.5 c 128,-1,2
 1394 1277 1394 1277 1479 1197 c 128,-1,3
 1564 1117 1564 1117 1606.5 1004 c 128,-1,4
 1649 891 1649 891 1649 752 c 0,5,6
 1649 649 1649 649 1625.5 555 c 128,-1,7
 1602 461 1602 461 1559.5 380.5 c 128,-1,8
 1517 300 1517 300 1459 234 c 128,-1,9
 1401 168 1401 168 1331 121.5 c 128,-1,10
 1261 75 1261 75 1182 50 c 128,-1,11
 1103 25 1103 25 1020 25 c 0,12,13
 987 25 987 25 958 35 c 128,-1,14
 929 45 929 45 907.5 62.5 c 128,-1,15
 886 80 886 80 871.5 104 c 128,-1,16
 857 128 857 128 853 156 c 1,17,18
 830 137 830 137 797.5 114.5 c 128,-1,19
 765 92 765 92 728 72 c 128,-1,20
 691 52 691 52 652.5 38.5 c 128,-1,21
 614 25 614 25 580 25 c 0,22,23
 530 25 530 25 494.5 46 c 128,-1,24
 459 67 459 67 436.5 101 c 128,-1,25
 414 135 414 135 404 178.5 c 128,-1,26
 394 222 394 222 394 267 c 0,27,28
 394 438 394 438 463 574 c 128,-1,29
 532 710 532 710 665 805 c 0,30,31
 716 842 716 842 762.5 865 c 128,-1,32
 809 888 809 888 858.5 901 c 128,-1,33
 908 914 908 914 963 919 c 128,-1,34
 1018 924 1018 924 1085 924 c 0,35,36
 1133 924 1133 924 1183 920.5 c 128,-1,37
 1233 917 1233 917 1268 913 c 1,38,-1
 1147 379 l 2,39,40
 1142 358 1142 358 1137 334.5 c 128,-1,41
 1132 311 1132 311 1127.5 289.5 c 128,-1,42
 1123 268 1123 268 1120 250 c 128,-1,43
 1117 232 1117 232 1117 223 c 0,44,45
 1117 201 1117 201 1128.5 185 c 128,-1,46
 1140 169 1140 169 1169 169 c 0,47,48
 1213 169 1213 169 1251.5 193 c 128,-1,49
 1290 217 1290 217 1322 258.5 c 128,-1,50
 1354 300 1354 300 1378.5 356.5 c 128,-1,51
 1403 413 1403 413 1420 477.5 c 128,-1,52
 1437 542 1437 542 1446 611.5 c 128,-1,53
 1455 681 1455 681 1455 750 c 0,54,55
 1455 872 1455 872 1420.5 966 c 128,-1,56
 1386 1060 1386 1060 1322 1123.5 c 128,-1,57
 1258 1187 1258 1187 1167 1220 c 128,-1,58
 1076 1253 1076 1253 964 1253 c 256,59,60
 852 1253 852 1253 754.5 1221 c 128,-1,61
 657 1189 657 1189 577 1130.5 c 128,-1,62
 497 1072 497 1072 434.5 990.5 c 128,-1,63
 372 909 372 909 329 810 c 128,-1,64
 286 711 286 711 264 598.5 c 128,-1,65
 242 486 242 486 242 365 c 0,66,67
 242 239 242 239 278.5 123 c 128,-1,68
 315 7 315 7 390 -81 c 128,-1,69
 465 -169 465 -169 578.5 -221.5 c 128,-1,70
 692 -274 692 -274 846 -274 c 0,71,72
 942 -274 942 -274 1019 -259.5 c 128,-1,73
 1096 -245 1096 -245 1159.5 -221 c 128,-1,74
 1223 -197 1223 -197 1276 -165 c 128,-1,75
 1329 -133 1329 -133 1379 -97 c 1,76,-1
 1431 -173 l 1,77,78
 1375 -218 1375 -218 1312 -257 c 128,-1,79
 1249 -296 1249 -296 1174 -325.5 c 128,-1,80
 1099 -355 1099 -355 1010 -372 c 128,-1,81
 921 -389 921 -389 815 -389 c 0,82,83
 631 -389 631 -389 488 -330.5 c 128,-1,84
 345 -272 345 -272 247.5 -170 c 128,-1,85
 150 -68 150 -68 99 69 c 128,-1,86
 48 206 48 206 48 362 c 0,87,88
 48 505 48 505 79 635 c 128,-1,89
 110 765 110 765 168 876 c 128,-1,90
 226 987 226 987 309 1077.5 c 128,-1,91
 392 1168 392 1168 494.5 1231.5 c 128,-1,92
 597 1295 597 1295 717.5 1329.5 c 128,-1,93
 838 1364 838 1364 972 1364 c 0,0,1
644 320 m 0,94,95
 644 254 644 254 664 221.5 c 128,-1,96
 684 189 684 189 712 189 c 0,97,98
 732 189 732 189 752.5 195 c 128,-1,99
 773 201 773 201 792 210.5 c 128,-1,100
 811 220 811 220 827.5 231.5 c 128,-1,101
 844 243 844 243 856 253 c 1,102,-1
 983 805 l 1,103,104
 979 806 979 806 971 806.5 c 128,-1,105
 963 807 963 807 955 808 c 128,-1,106
 947 809 947 809 939.5 809.5 c 128,-1,107
 932 810 932 810 928 810 c 0,108,109
 911 810 911 810 890 807.5 c 128,-1,110
 869 805 869 805 847 798 c 128,-1,111
 825 791 825 791 802.5 778 c 128,-1,112
 780 765 780 765 760 744 c 1,113,114
 741 720 741 720 720.5 674.5 c 128,-1,115
 700 629 700 629 683 571.5 c 128,-1,116
 666 514 666 514 655 448.5 c 128,-1,117
 644 383 644 383 644 320 c 0,94,95
EndSplineSet
EndChar

StartChar: A
Encoding: 65 65 36
Width: 1366
Flags: W
LayerCount: 2
Fore
SplineSet
302 73 m 1,0,-1
 288 0 l 1,1,-1
 -106 0 l 1,2,-1
 -92 73 l 1,3,-1
 11 100 l 1,4,-1
 679 1352 l 1,5,-1
 919 1352 l 1,6,-1
 1173 100 l 1,7,-1
 1282 73 l 1,8,-1
 1268 0 l 1,9,-1
 719 0 l 1,10,-1
 733 73 l 1,11,-1
 871 100 l 1,12,-1
 810 447 l 1,13,-1
 338 447 l 1,14,-1
 154 100 l 1,15,-1
 302 73 l 1,0,-1
689 1118 m 1,16,-1
 394 557 l 1,17,-1
 790 557 l 1,18,-1
 689 1118 l 1,16,-1
EndSplineSet
EndChar

StartChar: B
Encoding: 66 66 37
Width: 1366
Flags: W
LayerCount: 2
Fore
SplineSet
677 764 m 2,0,1
 832 764 832 764 912.5 830 c 128,-1,2
 993 896 993 896 993 1035 c 0,3,4
 993 1130 993 1130 932.5 1180.5 c 128,-1,5
 872 1231 872 1231 755 1231 c 2,6,-1
 666 1231 l 1,7,-1
 583 764 l 1,8,-1
 677 764 l 2,0,1
654 104 m 0,9,10
 747 104 747 104 809.5 125 c 128,-1,11
 872 146 872 146 910 185.5 c 128,-1,12
 948 225 948 225 964.5 280.5 c 128,-1,13
 981 336 981 336 981 405 c 0,14,15
 981 471 981 471 959.5 518 c 128,-1,16
 938 565 938 565 898.5 595.5 c 128,-1,17
 859 626 859 626 803 640 c 128,-1,18
 747 654 747 654 678 654 c 2,19,-1
 564 654 l 1,20,-1
 468 110 l 1,21,22
 503 108 503 108 536 107 c 1,23,24
 565 105 565 105 597 104.5 c 128,-1,25
 629 104 629 104 654 104 c 0,9,10
648 -6 m 0,26,27
 593 -6 593 -6 549.5 -5 c 128,-1,28
 506 -4 506 -4 466.5 -3 c 128,-1,29
 427 -2 427 -2 388 -1 c 128,-1,30
 349 0 349 0 303 0 c 2,31,-1
 -19 0 l 1,32,-1
 -7 73 l 1,33,-1
 171 100 l 1,34,-1
 372 1242 l 1,35,-1
 204 1268 l 1,36,-1
 218 1341 l 1,37,-1
 804 1341 l 2,38,39
 937 1341 937 1341 1029.5 1320 c 128,-1,40
 1122 1299 1122 1299 1180 1261 c 128,-1,41
 1238 1223 1238 1223 1264 1169 c 128,-1,42
 1290 1115 1290 1115 1290 1048 c 0,43,44
 1290 972 1290 972 1265 914.5 c 128,-1,45
 1240 857 1240 857 1195 816.5 c 128,-1,46
 1150 776 1150 776 1088 751 c 128,-1,47
 1026 726 1026 726 953 716 c 1,48,49
 1022 710 1022 710 1081.5 687.5 c 128,-1,50
 1141 665 1141 665 1184.5 626 c 128,-1,51
 1228 587 1228 587 1253 531.5 c 128,-1,52
 1278 476 1278 476 1278 404 c 0,53,54
 1278 195 1278 195 1120.5 94.5 c 128,-1,55
 963 -6 963 -6 648 -6 c 0,26,27
EndSplineSet
EndChar

StartChar: C
Encoding: 67 67 38
Width: 1366
Flags: W
LayerCount: 2
Fore
SplineSet
670 -20 m 0,0,1
 523 -20 523 -20 411 19.5 c 128,-1,2
 299 59 299 59 223.5 131.5 c 128,-1,3
 148 204 148 204 109 305.5 c 128,-1,4
 70 407 70 407 70 531 c 0,5,6
 70 724 70 724 132.5 877.5 c 128,-1,7
 195 1031 195 1031 307 1137 c 128,-1,8
 419 1243 419 1243 573.5 1299.5 c 128,-1,9
 728 1356 728 1356 912 1356 c 0,10,11
 1060 1356 1060 1356 1175 1340 c 128,-1,12
 1290 1324 1290 1324 1385 1304 c 1,13,-1
 1332 967 l 1,14,-1
 1248 967 l 1,15,-1
 1248 1161 l 1,16,17
 1194 1204 1194 1204 1117.5 1227.5 c 128,-1,18
 1041 1251 1041 1251 957 1251 c 0,19,20
 834 1251 834 1251 729 1199.5 c 128,-1,21
 624 1148 624 1148 547 1052.5 c 128,-1,22
 470 957 470 957 426.5 822.5 c 128,-1,23
 383 688 383 688 383 522 c 0,24,25
 383 427 383 427 404 346.5 c 128,-1,26
 425 266 425 266 468 207.5 c 128,-1,27
 511 149 511 149 577 116 c 128,-1,28
 643 83 643 83 734 83 c 0,29,30
 789 83 789 83 841.5 91.5 c 128,-1,31
 894 100 894 100 940.5 114 c 128,-1,32
 987 128 987 128 1025.5 146 c 128,-1,33
 1064 164 1064 164 1091 184 c 1,34,-1
 1168 404 l 1,35,-1
 1253 404 l 1,36,-1
 1187 64 l 1,37,38
 1138 48 1138 48 1077.5 33 c 128,-1,39
 1017 18 1017 18 950 6 c 128,-1,40
 883 -6 883 -6 812 -13 c 128,-1,41
 741 -20 741 -20 670 -20 c 0,0,1
EndSplineSet
EndChar

StartChar: D
Encoding: 68 68 39
Width: 1479
Flags: W
LayerCount: 2
Fore
SplineSet
1120 774 m 0,0,1
 1120 899 1120 899 1090 986 c 128,-1,2
 1060 1073 1060 1073 1005.5 1127.5 c 128,-1,3
 951 1182 951 1182 874.5 1206.5 c 128,-1,4
 798 1231 798 1231 705 1231 c 2,5,-1
 668 1231 l 1,6,-1
 471 114 l 1,7,8
 503 111 503 111 532.5 108.5 c 128,-1,9
 562 106 562 106 595 106 c 0,10,11
 720 106 720 106 817.5 153.5 c 128,-1,12
 915 201 915 201 982.5 288.5 c 128,-1,13
 1050 376 1050 376 1085 499 c 128,-1,14
 1120 622 1120 622 1120 774 c 0,0,1
742 1341 m 2,15,16
 910 1341 910 1341 1038.5 1305 c 128,-1,17
 1167 1269 1167 1269 1254 1198.5 c 128,-1,18
 1341 1128 1341 1128 1386 1025 c 128,-1,19
 1431 922 1431 922 1431 788 c 0,20,21
 1431 609 1431 609 1374 463 c 128,-1,22
 1317 317 1317 317 1209.5 213 c 128,-1,23
 1102 109 1102 109 947.5 52.5 c 128,-1,24
 793 -4 793 -4 599 -4 c 0,25,26
 481 -4 481 -4 371 -2 c 128,-1,27
 261 0 261 0 180 0 c 2,28,-1
 -15 0 l 1,29,-1
 -3 73 l 1,30,-1
 174 100 l 1,31,-1
 375 1242 l 1,32,-1
 208 1268 l 1,33,-1
 221 1341 l 1,34,-1
 742 1341 l 2,15,16
EndSplineSet
EndChar

StartChar: E
Encoding: 69 69 40
Width: 1366
Flags: W
LayerCount: 2
Fore
SplineSet
-3 73 m 1,0,-1
 174 100 l 1,1,-1
 375 1242 l 1,2,-1
 208 1268 l 1,3,-1
 221 1341 l 1,4,-1
 1273 1341 l 1,5,-1
 1213 1000 l 1,6,-1
 1122 1000 l 1,7,-1
 1128 1217 l 1,8,9
 1097 1221 1097 1221 1055.5 1224 c 128,-1,10
 1014 1227 1014 1227 969.5 1228.5 c 128,-1,11
 925 1230 925 1230 882.5 1230.5 c 128,-1,12
 840 1231 840 1231 807 1231 c 2,13,-1
 669 1231 l 1,14,-1
 582 739 l 1,15,-1
 863 739 l 1,16,-1
 920 887 l 1,17,-1
 1009 887 l 1,18,-1
 936 475 l 1,19,-1
 847 475 l 1,20,-1
 843 627 l 1,21,-1
 562 627 l 1,22,-1
 471 110 l 1,23,-1
 654 110 l 2,24,25
 716 110 716 110 770.5 111.5 c 128,-1,26
 825 113 825 113 869 115 c 128,-1,27
 913 117 913 117 944.5 120 c 128,-1,28
 976 123 976 123 992 126 c 1,29,-1
 1095 374 l 1,30,-1
 1186 374 l 1,31,-1
 1102 0 l 1,32,-1
 -15 0 l 1,33,-1
 -3 73 l 1,0,-1
EndSplineSet
EndChar

StartChar: F
Encoding: 70 70 41
Width: 1366
Flags: W
LayerCount: 2
Fore
SplineSet
556 592 m 1,0,-1
 469 100 l 1,1,-1
 687 73 l 1,2,-1
 675 0 l 1,3,-1
 -2 0 l 1,4,-1
 10 73 l 1,5,-1
 174 100 l 1,6,-1
 375 1242 l 1,7,-1
 208 1268 l 1,8,-1
 221 1341 l 1,9,-1
 1332 1341 l 1,10,-1
 1268 980 l 1,11,-1
 1174 980 l 1,12,-1
 1184 1217 l 1,13,14
 1163 1220 1163 1220 1128 1222 c 128,-1,15
 1093 1224 1093 1224 1051 1226 c 128,-1,16
 1009 1228 1009 1228 964.5 1228.5 c 128,-1,17
 920 1229 920 1229 879.5 1230 c 128,-1,18
 839 1231 839 1231 807 1231 c 128,-1,19
 775 1231 775 1231 760 1231 c 2,20,-1
 669 1231 l 1,21,-1
 576 702 l 1,22,-1
 939 702 l 1,23,-1
 1000 872 l 1,24,-1
 1089 872 l 1,25,-1
 1009 420 l 1,26,-1
 920 420 l 1,27,-1
 919 592 l 1,28,-1
 556 592 l 1,0,-1
EndSplineSet
EndChar

StartChar: G
Encoding: 71 71 42
Width: 1479
Flags: W
LayerCount: 2
Fore
SplineSet
70 523 m 0,0,1
 70 724 70 724 135.5 879 c 128,-1,2
 201 1034 201 1034 316 1140 c 128,-1,3
 431 1246 431 1246 587 1301 c 128,-1,4
 743 1356 743 1356 924 1356 c 0,5,6
 1062 1356 1062 1356 1177 1339.5 c 128,-1,7
 1292 1323 1292 1323 1399 1294 c 1,8,-1
 1344 986 l 1,9,-1
 1260 986 l 1,10,-1
 1261 1160 l 1,11,12
 1203 1204 1203 1204 1122.5 1227.5 c 128,-1,13
 1042 1251 1042 1251 941 1251 c 0,14,15
 829 1251 829 1251 727.5 1202 c 128,-1,16
 626 1153 626 1153 549 1058.5 c 128,-1,17
 472 964 472 964 426.5 824 c 128,-1,18
 381 684 381 684 381 503 c 0,19,20
 381 398 381 398 405 319 c 128,-1,21
 429 240 429 240 472 187.5 c 128,-1,22
 515 135 515 135 575 109 c 128,-1,23
 635 83 635 83 708 83 c 0,24,25
 785 83 785 83 847.5 97.5 c 128,-1,26
 910 112 910 112 945 126 c 1,27,-1
 1013 506 l 1,28,-1
 846 538 l 1,29,-1
 858 606 l 1,30,-1
 1456 606 l 1,31,-1
 1444 538 l 1,32,-1
 1308 506 l 1,33,-1
 1231 70 l 1,34,35
 1164 49 1164 49 1098 32.5 c 128,-1,36
 1032 16 1032 16 962.5 4 c 128,-1,37
 893 -8 893 -8 818.5 -14 c 128,-1,38
 744 -20 744 -20 662 -20 c 0,39,40
 520 -20 520 -20 409.5 17.5 c 128,-1,41
 299 55 299 55 223.5 125.5 c 128,-1,42
 148 196 148 196 109 296.5 c 128,-1,43
 70 397 70 397 70 523 c 0,0,1
EndSplineSet
EndChar

StartChar: H
Encoding: 72 72 43
Width: 1593
Flags: W
LayerCount: 2
Fore
SplineSet
-15 0 m 1,0,-1
 -2 74 l 1,1,-1
 174 100 l 1,2,-1
 375 1241 l 1,3,-1
 208 1268 l 1,4,-1
 221 1341 l 1,5,-1
 860 1341 l 1,6,-1
 847 1268 l 1,7,-1
 670 1241 l 1,8,-1
 583 745 l 1,9,-1
 1071 745 l 1,10,-1
 1158 1241 l 1,11,-1
 991 1268 l 1,12,-1
 1004 1341 l 1,13,-1
 1645 1341 l 1,14,-1
 1632 1268 l 1,15,-1
 1454 1241 l 1,16,-1
 1253 100 l 1,17,-1
 1421 74 l 1,18,-1
 1408 0 l 1,19,-1
 767 0 l 1,20,-1
 780 74 l 1,21,-1
 957 100 l 1,22,-1
 1051 635 l 1,23,-1
 563 635 l 1,24,-1
 469 100 l 1,25,-1
 636 74 l 1,26,-1
 623 0 l 1,27,-1
 -15 0 l 1,0,-1
EndSplineSet
EndChar

StartChar: I
Encoding: 73 73 44
Width: 797
Flags: W
LayerCount: 2
Fore
SplineSet
464 100 m 1,0,-1
 631 74 l 1,1,-1
 618 0 l 1,2,-1
 -20 0 l 1,3,-1
 -7 74 l 1,4,-1
 169 100 l 1,5,-1
 370 1241 l 1,6,-1
 203 1268 l 1,7,-1
 216 1341 l 1,8,-1
 855 1341 l 1,9,-1
 842 1268 l 1,10,-1
 665 1241 l 1,11,-1
 464 100 l 1,0,-1
EndSplineSet
EndChar

StartChar: J
Encoding: 74 74 45
Width: 1024
Flags: W
LayerCount: 2
Fore
SplineSet
613 1242 m 1,0,-1
 446 1268 l 1,1,-1
 459 1341 l 1,2,-1
 1078 1341 l 1,3,-1
 1065 1268 l 1,4,-1
 908 1242 l 1,5,-1
 766 432 l 2,6,7
 742 295 742 295 686.5 207.5 c 128,-1,8
 631 120 631 120 559 69.5 c 128,-1,9
 487 19 487 19 404.5 -0.5 c 128,-1,10
 322 -20 322 -20 244 -20 c 0,11,12
 175 -20 175 -20 108 -12 c 128,-1,13
 41 -4 41 -4 -4 10 c 1,14,-1
 50 314 l 1,15,-1
 133 314 l 1,16,-1
 137 135 l 1,17,18
 152 112 152 112 180 99 c 128,-1,19
 208 86 208 86 250 86 c 0,20,21
 284 86 284 86 315.5 98 c 128,-1,22
 347 110 347 110 372.5 134 c 128,-1,23
 398 158 398 158 416.5 193.5 c 128,-1,24
 435 229 435 229 443 276 c 2,25,-1
 613 1242 l 1,0,-1
EndSplineSet
EndChar

StartChar: K
Encoding: 75 75 46
Width: 1366
Flags: W
LayerCount: 2
Fore
SplineSet
469 100 m 1,0,-1
 647 73 l 1,1,-1
 635 0 l 1,2,-1
 -15 0 l 1,3,-1
 -3 73 l 1,4,-1
 174 100 l 1,5,-1
 375 1242 l 1,6,-1
 208 1268 l 1,7,-1
 221 1341 l 1,8,-1
 850 1341 l 1,9,-1
 837 1268 l 1,10,-1
 670 1242 l 1,11,-1
 579 718 l 1,12,-1
 1155 1242 l 1,13,-1
 1042 1268 l 1,14,-1
 1055 1341 l 1,15,-1
 1480 1341 l 1,16,-1
 1467 1268 l 1,17,-1
 1328 1242 l 1,18,-1
 855 813 l 1,19,-1
 1208 100 l 1,20,-1
 1342 73 l 1,21,-1
 1330 0 l 1,22,-1
 944 0 l 1,23,-1
 648 636 l 1,24,-1
 555 591 l 1,25,-1
 469 100 l 1,0,-1
EndSplineSet
EndChar

StartChar: L
Encoding: 76 76 47
Width: 1251
Flags: W
LayerCount: 2
Fore
SplineSet
872 1268 m 1,0,-1
 670 1242 l 1,1,-1
 470 106 l 1,2,-1
 583 106 l 2,3,4
 635 106 635 106 694.5 108 c 128,-1,5
 754 110 754 110 807 113 c 128,-1,6
 860 116 860 116 901 119.5 c 128,-1,7
 942 123 942 123 958 126 c 1,8,-1
 1075 405 l 1,9,-1
 1159 405 l 1,10,-1
 1070 0 l 1,11,-1
 -15 0 l 1,12,-1
 -3 73 l 1,13,-1
 174 100 l 1,14,-1
 375 1242 l 1,15,-1
 209 1268 l 1,16,-1
 222 1341 l 1,17,-1
 885 1341 l 1,18,-1
 872 1268 l 1,0,-1
EndSplineSet
EndChar

StartChar: M
Encoding: 77 77 48
Width: 1821
Flags: W
LayerCount: 2
Fore
SplineSet
740 0 m 1,0,-1
 695 0 l 1,1,-1
 474 1158 l 1,2,-1
 287 100 l 1,3,-1
 462 73 l 1,4,-1
 450 0 l 1,5,-1
 -27 0 l 1,6,-1
 -15 73 l 1,7,-1
 162 100 l 1,8,-1
 363 1242 l 1,9,-1
 196 1268 l 1,10,-1
 209 1341 l 1,11,-1
 702 1341 l 1,12,-1
 867 467 l 1,13,-1
 1343 1341 l 1,14,-1
 1878 1341 l 1,15,-1
 1865 1268 l 1,16,-1
 1688 1242 l 1,17,-1
 1487 100 l 1,18,-1
 1654 73 l 1,19,-1
 1642 0 l 1,20,-1
 985 0 l 1,21,-1
 997 73 l 1,22,-1
 1192 100 l 1,23,-1
 1379 1158 l 1,24,-1
 740 0 l 1,0,-1
EndSplineSet
EndChar

StartChar: N
Encoding: 78 78 49
Width: 1479
Flags: W
LayerCount: 2
Fore
SplineSet
1225 1242 m 1,0,-1
 1050 1268 l 1,1,-1
 1063 1341 l 1,2,-1
 1540 1341 l 1,3,-1
 1527 1268 l 1,4,-1
 1350 1242 l 1,5,-1
 1132 0 l 1,6,-1
 1017 0 l 1,7,-1
 476 1112 l 1,8,-1
 295 100 l 1,9,-1
 470 73 l 1,10,-1
 458 0 l 1,11,-1
 -19 0 l 1,12,-1
 -7 73 l 1,13,-1
 170 100 l 1,14,-1
 371 1242 l 1,15,-1
 204 1268 l 1,16,-1
 217 1341 l 1,17,-1
 650 1341 l 1,18,-1
 1085 447 l 1,19,-1
 1225 1242 l 1,0,-1
EndSplineSet
EndChar

StartChar: O
Encoding: 79 79 50
Width: 1479
Flags: W
LayerCount: 2
Fore
SplineSet
1120 843 m 0,0,1
 1120 936 1120 936 1101 1011 c 128,-1,2
 1082 1086 1082 1086 1045.5 1139.5 c 128,-1,3
 1009 1193 1009 1193 955 1222 c 128,-1,4
 901 1251 901 1251 832 1251 c 0,5,6
 755 1251 755 1251 691 1214.5 c 128,-1,7
 627 1178 627 1178 576 1117.5 c 128,-1,8
 525 1057 525 1057 487.5 978.5 c 128,-1,9
 450 900 450 900 425 815 c 128,-1,10
 400 730 400 730 387.5 644.5 c 128,-1,11
 375 559 375 559 375 485 c 0,12,13
 375 393 375 393 393.5 319 c 128,-1,14
 412 245 412 245 447.5 192.5 c 128,-1,15
 483 140 483 140 535.5 111.5 c 128,-1,16
 588 83 588 83 657 83 c 0,17,18
 735 83 735 83 799.5 118.5 c 128,-1,19
 864 154 864 154 915.5 214 c 128,-1,20
 967 274 967 274 1005.5 352 c 128,-1,21
 1044 430 1044 430 1069.5 514 c 128,-1,22
 1095 598 1095 598 1107.5 683.5 c 128,-1,23
 1120 769 1120 769 1120 843 c 0,0,1
639 -20 m 0,24,25
 510 -20 510 -20 406 20.5 c 128,-1,26
 302 61 302 61 228 133.5 c 128,-1,27
 154 206 154 206 114 305.5 c 128,-1,28
 74 405 74 405 74 524 c 0,29,30
 74 637 74 637 96.5 742.5 c 128,-1,31
 119 848 119 848 163.5 940.5 c 128,-1,32
 208 1033 208 1033 274.5 1109.5 c 128,-1,33
 341 1186 341 1186 427.5 1240.5 c 128,-1,34
 514 1295 514 1295 621.5 1325.5 c 128,-1,35
 729 1356 729 1356 856 1356 c 0,36,37
 985 1356 985 1356 1089 1315.5 c 128,-1,38
 1193 1275 1193 1275 1267 1202.5 c 128,-1,39
 1341 1130 1341 1130 1381 1030 c 128,-1,40
 1421 930 1421 930 1421 812 c 0,41,42
 1421 715 1421 715 1402 615.5 c 128,-1,43
 1383 516 1383 516 1343 423.5 c 128,-1,44
 1303 331 1303 331 1241 250 c 128,-1,45
 1179 169 1179 169 1092 109 c 128,-1,46
 1005 49 1005 49 892.5 14.5 c 128,-1,47
 780 -20 780 -20 639 -20 c 0,24,25
EndSplineSet
EndChar

StartChar: P
Encoding: 80 80 51
Width: 1251
Flags: W
LayerCount: 2
Fore
SplineSet
643 636 m 2,0,1
 719 636 719 636 779.5 659.5 c 128,-1,2
 840 683 840 683 882.5 727.5 c 128,-1,3
 925 772 925 772 948 835.5 c 128,-1,4
 971 899 971 899 971 980 c 0,5,6
 971 1049 971 1049 953 1096.5 c 128,-1,7
 935 1144 935 1144 904 1174 c 128,-1,8
 873 1204 873 1204 830 1217 c 128,-1,9
 787 1230 787 1230 738 1230 c 2,10,-1
 669 1230 l 1,11,-1
 564 636 l 1,12,-1
 643 636 l 2,0,1
544 526 m 1,13,-1
 468 100 l 1,14,-1
 687 73 l 1,15,-1
 676 0 l 1,16,-1
 -1 0 l 1,17,-1
 10 73 l 1,18,-1
 172 100 l 1,19,-1
 374 1242 l 1,20,-1
 206 1268 l 1,21,-1
 218 1341 l 1,22,-1
 749 1341 l 2,23,24
 885 1341 885 1341 982.5 1316 c 128,-1,25
 1080 1291 1080 1291 1142.5 1244.5 c 128,-1,26
 1205 1198 1205 1198 1234.5 1131.5 c 128,-1,27
 1264 1065 1264 1065 1264 983 c 0,28,29
 1264 881 1264 881 1229 797 c 128,-1,30
 1194 713 1194 713 1122.5 652.5 c 128,-1,31
 1051 592 1051 592 942.5 559 c 128,-1,32
 834 526 834 526 687 526 c 2,33,-1
 544 526 l 1,13,-1
EndSplineSet
EndChar

StartChar: Q
Encoding: 81 81 52
Width: 1479
Flags: W
LayerCount: 2
Fore
SplineSet
1421 812 m 0,0,1
 1421 692 1421 692 1392 570 c 128,-1,2
 1363 448 1363 448 1301.5 340.5 c 128,-1,3
 1240 233 1240 233 1143 148.5 c 128,-1,4
 1046 64 1046 64 910 20 c 1,5,-1
 942 -29 l 1,6,7
 976 -83 976 -83 1007.5 -118.5 c 128,-1,8
 1039 -154 1039 -154 1067 -175 c 128,-1,9
 1095 -196 1095 -196 1119.5 -204.5 c 128,-1,10
 1144 -213 1144 -213 1166 -213 c 0,11,12
 1192 -213 1192 -213 1215 -210 c 128,-1,13
 1238 -207 1238 -207 1255 -205 c 1,14,-1
 1268 -283 l 1,15,16
 1249 -291 1249 -291 1218 -299.5 c 128,-1,17
 1187 -308 1187 -308 1151 -315 c 128,-1,18
 1115 -322 1115 -322 1077.5 -327 c 128,-1,19
 1040 -332 1040 -332 1007 -332 c 0,20,21
 933 -332 933 -332 879 -315.5 c 128,-1,22
 825 -299 825 -299 781.5 -266 c 128,-1,23
 738 -233 738 -233 700.5 -183.5 c 128,-1,24
 663 -134 663 -134 623 -68 c 2,25,-1
 593 -18 l 1,26,27
 474 -11 474 -11 378 32 c 128,-1,28
 282 75 282 75 214.5 146.5 c 128,-1,29
 147 218 147 218 110.5 314.5 c 128,-1,30
 74 411 74 411 74 524 c 256,31,32
 74 637 74 637 96.5 742.5 c 128,-1,33
 119 848 119 848 163.5 940.5 c 128,-1,34
 208 1033 208 1033 274.5 1109.5 c 128,-1,35
 341 1186 341 1186 427.5 1240.5 c 128,-1,36
 514 1295 514 1295 621.5 1325.5 c 128,-1,37
 729 1356 729 1356 856 1356 c 0,38,39
 985 1356 985 1356 1089 1315.5 c 128,-1,40
 1193 1275 1193 1275 1267 1202.5 c 128,-1,41
 1341 1130 1341 1130 1381 1030 c 128,-1,42
 1421 930 1421 930 1421 812 c 0,0,1
1120 843 m 0,43,44
 1120 936 1120 936 1101 1011 c 128,-1,45
 1082 1086 1082 1086 1045.5 1139.5 c 128,-1,46
 1009 1193 1009 1193 955 1222 c 128,-1,47
 901 1251 901 1251 832 1251 c 0,48,49
 755 1251 755 1251 691 1214.5 c 128,-1,50
 627 1178 627 1178 576 1117.5 c 128,-1,51
 525 1057 525 1057 487.5 978.5 c 128,-1,52
 450 900 450 900 425 815 c 128,-1,53
 400 730 400 730 387.5 644.5 c 128,-1,54
 375 559 375 559 375 485 c 0,55,56
 375 393 375 393 393.5 319 c 128,-1,57
 412 245 412 245 447.5 192.5 c 128,-1,58
 483 140 483 140 535.5 111.5 c 128,-1,59
 588 83 588 83 657 83 c 0,60,61
 735 83 735 83 799.5 118.5 c 128,-1,62
 864 154 864 154 915.5 214 c 128,-1,63
 967 274 967 274 1005.5 352 c 128,-1,64
 1044 430 1044 430 1069.5 514 c 128,-1,65
 1095 598 1095 598 1107.5 683.5 c 128,-1,66
 1120 769 1120 769 1120 843 c 0,43,44
EndSplineSet
EndChar

StartChar: R
Encoding: 82 82 53
Width: 1366
Flags: W
LayerCount: 2
Fore
SplineSet
552 568 m 1,0,-1
 469 100 l 1,1,-1
 636 73 l 1,2,-1
 624 0 l 1,3,-1
 -3 0 l 1,4,-1
 9 73 l 1,5,-1
 173 100 l 1,6,-1
 374 1242 l 1,7,-1
 207 1268 l 1,8,-1
 220 1341 l 1,9,-1
 755 1341 l 2,10,11
 890 1341 890 1341 987 1319.5 c 128,-1,12
 1084 1298 1084 1298 1146.5 1255.5 c 128,-1,13
 1209 1213 1209 1213 1239 1150 c 128,-1,14
 1269 1087 1269 1087 1269 1003 c 0,15,16
 1269 916 1269 916 1244 848.5 c 128,-1,17
 1219 781 1219 781 1175 731.5 c 128,-1,18
 1131 682 1131 682 1070.5 648.5 c 128,-1,19
 1010 615 1010 615 940 596 c 1,20,-1
 1141 100 l 1,21,-1
 1288 73 l 1,22,-1
 1276 0 l 1,23,-1
 876 0 l 1,24,-1
 668 568 l 1,25,-1
 552 568 l 1,0,-1
626 678 m 2,26,27
 708 678 708 678 773 699 c 128,-1,28
 838 720 838 720 883 759.5 c 128,-1,29
 928 799 928 799 952 856.5 c 128,-1,30
 976 914 976 914 976 987 c 0,31,32
 976 1117 976 1117 915.5 1174 c 128,-1,33
 855 1231 855 1231 738 1231 c 2,34,-1
 669 1231 l 1,35,-1
 571 678 l 1,36,-1
 626 678 l 2,26,27
EndSplineSet
EndChar

StartChar: S
Encoding: 83 83 54
Width: 1139
Flags: W
LayerCount: 2
Fore
SplineSet
432 -20 m 0,0,1
 301 -20 301 -20 201.5 2.5 c 128,-1,2
 102 25 102 25 37 51 c 1,3,-1
 101 411 l 1,4,-1
 189 411 l 1,5,-1
 190 196 l 1,6,7
 207 171 207 171 234.5 150 c 128,-1,8
 262 129 262 129 296 113.5 c 128,-1,9
 330 98 330 98 369 89.5 c 128,-1,10
 408 81 408 81 449 81 c 0,11,12
 528 81 528 81 585.5 98.5 c 128,-1,13
 643 116 643 116 680 147 c 128,-1,14
 717 178 717 178 735 220 c 128,-1,15
 753 262 753 262 753 311 c 0,16,17
 753 365 753 365 729 405 c 128,-1,18
 705 445 705 445 665.5 477.5 c 128,-1,19
 626 510 626 510 576 538.5 c 128,-1,20
 526 567 526 567 473.5 596.5 c 128,-1,21
 421 626 421 626 371 660.5 c 128,-1,22
 321 695 321 695 281.5 740 c 128,-1,23
 242 785 242 785 218 843 c 128,-1,24
 194 901 194 901 194 979 c 0,25,26
 194 1075 194 1075 229.5 1145.5 c 128,-1,27
 265 1216 265 1216 332.5 1263 c 128,-1,28
 400 1310 400 1310 497 1333 c 128,-1,29
 594 1356 594 1356 717 1356 c 0,30,31
 802 1356 802 1356 891 1344 c 128,-1,32
 980 1332 980 1332 1053 1313 c 1,33,-1
 997 994 l 1,34,-1
 908 994 l 1,35,-1
 901 1190 l 1,36,37
 863 1219 863 1219 809.5 1235.5 c 128,-1,38
 756 1252 756 1252 690 1252 c 0,39,40
 626 1252 626 1252 580 1237 c 128,-1,41
 534 1222 534 1222 505 1197 c 128,-1,42
 476 1172 476 1172 462 1138.5 c 128,-1,43
 448 1105 448 1105 448 1069 c 0,44,45
 448 1021 448 1021 472 984 c 128,-1,46
 496 947 496 947 536 916 c 128,-1,47
 576 885 576 885 626.5 857 c 128,-1,48
 677 829 677 829 729.5 799 c 128,-1,49
 782 769 782 769 832.5 734.5 c 128,-1,50
 883 700 883 700 923 655.5 c 128,-1,51
 963 611 963 611 987 554.5 c 128,-1,52
 1011 498 1011 498 1011 423 c 0,53,54
 1011 313 1011 313 972.5 230 c 128,-1,55
 934 147 934 147 860 91.5 c 128,-1,56
 786 36 786 36 678.5 8 c 128,-1,57
 571 -20 571 -20 432 -20 c 0,0,1
EndSplineSet
EndChar

StartChar: T
Encoding: 84 84 55
Width: 1251
Flags: W
LayerCount: 2
Fore
SplineSet
167 0 m 1,0,-1
 179 73 l 1,1,-1
 397 100 l 1,2,-1
 597 1235 l 1,3,-1
 536 1235 l 2,4,5
 513 1235 513 1235 482 1233.5 c 128,-1,6
 451 1232 451 1232 419.5 1229 c 128,-1,7
 388 1226 388 1226 359 1222.5 c 128,-1,8
 330 1219 330 1219 311 1215 c 1,9,-1
 236 966 l 1,10,-1
 149 966 l 1,11,-1
 215 1341 l 1,12,-1
 1318 1341 l 1,13,-1
 1252 966 l 1,14,-1
 1164 966 l 1,15,-1
 1177 1215 l 1,16,17
 1159 1219 1159 1219 1130.5 1222 c 128,-1,18
 1102 1225 1102 1225 1070 1227.5 c 128,-1,19
 1038 1230 1038 1230 1006.5 1231.5 c 128,-1,20
 975 1233 975 1233 952 1233 c 2,21,-1
 893 1233 l 1,22,-1
 693 100 l 1,23,-1
 901 73 l 1,24,-1
 889 0 l 1,25,-1
 167 0 l 1,0,-1
EndSplineSet
EndChar

StartChar: U
Encoding: 85 85 56
Width: 1479
Flags: W
LayerCount: 2
Fore
SplineSet
167 1268 m 1,0,-1
 180 1341 l 1,1,-1
 799 1341 l 1,2,-1
 786 1268 l 1,3,-1
 609 1242 l 1,4,-1
 496 586 l 2,5,6
 485 524 485 524 479 470.5 c 128,-1,7
 473 417 473 417 473 389 c 0,8,9
 473 251 473 251 542.5 186.5 c 128,-1,10
 612 122 612 122 740 122 c 0,11,12
 830 122 830 122 898.5 148 c 128,-1,13
 967 174 967 174 1015.5 219.5 c 128,-1,14
 1064 265 1064 265 1093.5 327.5 c 128,-1,15
 1123 390 1123 390 1136 463 c 2,16,-1
 1273 1242 l 1,17,-1
 1098 1268 l 1,18,-1
 1111 1341 l 1,19,-1
 1567 1341 l 1,20,-1
 1554 1268 l 1,21,-1
 1397 1242 l 1,22,-1
 1262 471 l 2,23,24
 1243 364 1243 364 1203.5 274 c 128,-1,25
 1164 184 1164 184 1096.5 119 c 128,-1,26
 1029 54 1029 54 929 17.5 c 128,-1,27
 829 -19 829 -19 689 -19 c 0,28,29
 555 -19 555 -19 459 12.5 c 128,-1,30
 363 44 363 44 301 99.5 c 128,-1,31
 239 155 239 155 209.5 232 c 128,-1,32
 180 309 180 309 180 399 c 0,33,34
 180 436 180 436 185.5 482.5 c 128,-1,35
 191 529 191 529 200 583 c 2,36,-1
 314 1242 l 1,37,-1
 167 1268 l 1,0,-1
EndSplineSet
EndChar

StartChar: V
Encoding: 86 86 57
Width: 1366
Flags: W
LayerCount: 2
Fore
SplineSet
1505 1341 m 1,0,-1
 1493 1268 l 1,1,-1
 1361 1241 l 1,2,-1
 639 -31 l 1,3,-1
 526 -31 l 1,4,-1
 225 1241 l 1,5,-1
 120 1268 l 1,6,-1
 132 1341 l 1,7,-1
 679 1341 l 1,8,-1
 667 1268 l 1,9,-1
 523 1241 l 1,10,-1
 725 362 l 1,11,-1
 1212 1241 l 1,12,-1
 1082 1268 l 1,13,-1
 1094 1341 l 1,14,-1
 1505 1341 l 1,0,-1
EndSplineSet
EndChar

StartChar: W
Encoding: 87 87 58
Width: 1821
Flags: W
LayerCount: 2
Fore
SplineSet
1806 1242 m 1,0,-1
 1214 -31 l 1,1,-1
 1120 -31 l 1,2,-1
 962 817 l 1,3,-1
 560 -31 l 1,4,-1
 459 -31 l 1,5,-1
 271 1242 l 1,6,-1
 141 1268 l 1,7,-1
 154 1341 l 1,8,-1
 718 1341 l 1,9,-1
 705 1268 l 1,10,-1
 543 1242 l 1,11,-1
 649 428 l 1,12,-1
 1046 1257 l 1,13,-1
 1146 1257 l 1,14,-1
 1298 423 l 1,15,-1
 1660 1242 l 1,16,-1
 1496 1268 l 1,17,-1
 1509 1341 l 1,18,-1
 1941 1341 l 1,19,-1
 1928 1268 l 1,20,-1
 1806 1242 l 1,0,-1
EndSplineSet
EndChar

StartChar: X
Encoding: 88 88 59
Width: 1366
Flags: W
LayerCount: 2
Fore
SplineSet
257 100 m 1,0,-1
 408 73 l 1,1,-1
 396 0 l 1,2,-1
 -52 0 l 1,3,-1
 -40 73 l 1,4,-1
 113 100 l 1,5,-1
 574 635 l 1,6,-1
 336 1242 l 1,7,-1
 190 1268 l 1,8,-1
 203 1341 l 1,9,-1
 816 1341 l 1,10,-1
 803 1268 l 1,11,-1
 638 1242 l 1,12,-1
 781 875 l 1,13,-1
 1097 1242 l 1,14,-1
 946 1268 l 1,15,-1
 959 1341 l 1,16,-1
 1408 1341 l 1,17,-1
 1395 1268 l 1,18,-1
 1242 1242 l 1,19,-1
 826 760 l 1,20,-1
 1085 100 l 1,21,-1
 1232 73 l 1,22,-1
 1220 0 l 1,23,-1
 607 0 l 1,24,-1
 619 73 l 1,25,-1
 784 100 l 1,26,-1
 619 520 l 1,27,-1
 257 100 l 1,0,-1
EndSplineSet
EndChar

StartChar: Y
Encoding: 89 89 60
Width: 1251
Flags: W
LayerCount: 2
Fore
SplineSet
782 548 m 1,0,-1
 702 100 l 1,1,-1
 910 73 l 1,2,-1
 898 0 l 1,3,-1
 176 0 l 1,4,-1
 188 73 l 1,5,-1
 406 100 l 1,6,-1
 485 542 l 1,7,-1
 251 1242 l 1,8,-1
 105 1268 l 1,9,-1
 118 1341 l 1,10,-1
 754 1341 l 1,11,-1
 741 1268 l 1,12,-1
 556 1242 l 1,13,-1
 734 686 l 1,14,-1
 1098 1242 l 1,15,-1
 939 1268 l 1,16,-1
 952 1341 l 1,17,-1
 1408 1341 l 1,18,-1
 1395 1268 l 1,19,-1
 1248 1242 l 1,20,-1
 782 548 l 1,0,-1
EndSplineSet
EndChar

StartChar: Z
Encoding: 90 90 61
Width: 1251
Flags: W
LayerCount: 2
Fore
SplineSet
15 114 m 1,0,-1
 841 1235 l 1,1,-1
 649 1235 l 2,2,3
 603 1235 603 1235 558.5 1233.5 c 128,-1,4
 514 1232 514 1232 475.5 1229 c 128,-1,5
 437 1226 437 1226 406 1222.5 c 128,-1,6
 375 1219 375 1219 356 1215 c 1,7,-1
 288 1004 l 1,8,-1
 199 1004 l 1,9,-1
 258 1341 l 1,10,-1
 1199 1341 l 1,11,-1
 1180 1235 l 1,12,-1
 357 104 l 1,13,-1
 544 104 l 2,14,15
 603 104 603 104 664.5 107.5 c 128,-1,16
 726 111 726 111 779.5 116.5 c 128,-1,17
 833 122 833 122 874 127.5 c 128,-1,18
 915 133 915 133 934 137 c 1,19,-1
 1038 393 l 1,20,-1
 1128 393 l 1,21,-1
 1032 0 l 1,22,-1
 -5 0 l 1,23,-1
 15 114 l 1,0,-1
EndSplineSet
EndChar

StartChar: bracketleft
Encoding: 91 91 62
Width: 682
Flags: W
LayerCount: 2
Fore
SplineSet
51 -274 m 1,0,-1
 350 1421 l 1,1,-1
 786 1421 l 1,2,-1
 774 1354 l 1,3,-1
 564 1313 l 1,4,-1
 303 -166 l 1,5,-1
 499 -207 l 1,6,-1
 487 -274 l 1,7,-1
 51 -274 l 1,0,-1
EndSplineSet
EndChar

StartChar: backslash
Encoding: 92 92 63
Width: 569
Flags: W
LayerCount: 2
Fore
SplineSet
339 -20 m 1,0,-1
 130 1349 l 1,1,-1
 257 1349 l 1,2,-1
 469 -20 l 1,3,-1
 339 -20 l 1,0,-1
EndSplineSet
EndChar

StartChar: bracketright
Encoding: 93 93 64
Width: 682
Flags: W
LayerCount: 2
Fore
SplineSet
-106 -274 m 1,0,-1
 -94 -207 l 1,1,-1
 116 -166 l 1,2,-1
 377 1313 l 1,3,-1
 181 1354 l 1,4,-1
 193 1421 l 1,5,-1
 629 1421 l 1,6,-1
 330 -274 l 1,7,-1
 -106 -274 l 1,0,-1
EndSplineSet
EndChar

StartChar: asciicircum
Encoding: 94 94 65
Width: 1167
Flags: W
LayerCount: 2
Fore
SplineSet
934 389 m 1,0,-1
 604 1150 l 1,1,-1
 274 389 l 1,2,-1
 131 389 l 1,3,-1
 559 1341 l 1,4,-1
 649 1341 l 1,5,-1
 1077 389 l 1,6,-1
 934 389 l 1,0,-1
EndSplineSet
EndChar

StartChar: underscore
Encoding: 95 95 66
Width: 1024
Flags: W
LayerCount: 2
Fore
SplineSet
-153 -285 m 1,0,-1
 -153 -141 l 1,1,-1
 903 -141 l 1,2,-1
 903 -285 l 1,3,-1
 -153 -285 l 1,0,-1
EndSplineSet
EndChar

StartChar: grave
Encoding: 96 96 67
Width: 682
Flags: W
LayerCount: 2
Fore
SplineSet
547 1118 m 1,0,-1
 230 1386 l 1,1,-1
 237 1423 l 1,2,-1
 502 1423 l 1,3,-1
 639 1150 l 1,4,-1
 633 1118 l 1,5,-1
 547 1118 l 1,0,-1
EndSplineSet
EndChar

StartChar: a
Encoding: 97 97 68
Width: 1024
Flags: W
LayerCount: 2
Fore
SplineSet
823 90 m 1,0,-1
 932 58 l 1,1,-1
 924 0 l 1,2,-1
 577 0 l 1,3,-1
 573 138 l 1,4,5
 546 104 546 104 513.5 75 c 128,-1,6
 481 46 481 46 444.5 24.5 c 128,-1,7
 408 3 408 3 368.5 -9 c 128,-1,8
 329 -21 329 -21 288 -21 c 0,9,10
 230 -21 230 -21 181.5 0 c 128,-1,11
 133 21 133 21 98 63.5 c 128,-1,12
 63 106 63 106 43.5 170 c 128,-1,13
 24 234 24 234 24 319 c 0,14,15
 24 448 24 448 64.5 565 c 128,-1,16
 105 682 105 682 179 770.5 c 128,-1,17
 253 859 253 859 357 911.5 c 128,-1,18
 461 964 461 964 588 964 c 0,19,20
 660 964 660 964 724.5 951.5 c 128,-1,21
 789 939 789 939 839 919 c 1,22,-1
 921 956 l 1,23,-1
 975 956 l 1,24,-1
 823 90 l 1,0,-1
287 351 m 0,25,26
 287 293 287 293 297.5 250.5 c 128,-1,27
 308 208 308 208 325.5 180.5 c 128,-1,28
 343 153 343 153 364.5 140 c 128,-1,29
 386 127 386 127 408 127 c 0,30,31
 431 127 431 127 455.5 139.5 c 128,-1,32
 480 152 480 152 503.5 172.5 c 128,-1,33
 527 193 527 193 548 217.5 c 128,-1,34
 569 242 569 242 585 266 c 1,35,-1
 684 829 l 1,36,37
 663 845 663 845 629 854 c 128,-1,38
 595 863 595 863 560 863 c 0,39,40
 499 863 499 863 448.5 818 c 128,-1,41
 398 773 398 773 362 700 c 128,-1,42
 326 627 326 627 306.5 535.5 c 128,-1,43
 287 444 287 444 287 351 c 0,25,26
EndSplineSet
EndChar

StartChar: b
Encoding: 98 98 69
Width: 1024
Flags: W
LayerCount: 2
Fore
SplineSet
700 587 m 0,0,1
 700 647 700 647 689.5 690 c 128,-1,2
 679 733 679 733 662 760 c 128,-1,3
 645 787 645 787 623 800 c 128,-1,4
 601 813 601 813 579 813 c 0,5,6
 560 813 560 813 538.5 802.5 c 128,-1,7
 517 792 517 792 494.5 773.5 c 128,-1,8
 472 755 472 755 449 729.5 c 128,-1,9
 426 704 426 704 405 674 c 1,10,-1
 308 124 l 1,11,12
 320 112 320 112 337.5 103 c 128,-1,13
 355 94 355 94 373 88 c 128,-1,14
 391 82 391 82 408 79 c 128,-1,15
 425 76 425 76 437 76 c 0,16,17
 493 76 493 76 541 121 c 128,-1,18
 589 166 589 166 624.5 239 c 128,-1,19
 660 312 660 312 680 403 c 128,-1,20
 700 494 700 494 700 587 c 0,0,1
449 -23 m 0,21,22
 401 -23 401 -23 347.5 -19 c 128,-1,23
 294 -15 294 -15 239 -7 c 128,-1,24
 184 1 184 1 130 14.5 c 128,-1,25
 76 28 76 28 27 48 c 1,26,-1
 254 1333 l 1,27,-1
 162 1356 l 1,28,-1
 173 1421 l 1,29,-1
 538 1421 l 1,30,-1
 462 991 l 2,31,32
 459 973 459 973 454.5 949 c 128,-1,33
 450 925 450 925 444.5 899 c 128,-1,34
 439 873 439 873 433 847 c 128,-1,35
 427 821 427 821 420 797 c 1,36,37
 447 833 447 833 479 864 c 128,-1,38
 511 895 511 895 547 917.5 c 128,-1,39
 583 940 583 940 622 952.5 c 128,-1,40
 661 965 661 965 701 965 c 0,41,42
 757 965 757 965 805 943.5 c 128,-1,43
 853 922 853 922 888 880 c 128,-1,44
 923 838 923 838 943 775.5 c 128,-1,45
 963 713 963 713 963 631 c 0,46,47
 963 545 963 545 946 463 c 128,-1,48
 929 381 929 381 897.5 308.5 c 128,-1,49
 866 236 866 236 821 175 c 128,-1,50
 776 114 776 114 719 70 c 128,-1,51
 662 26 662 26 594 1.5 c 128,-1,52
 526 -23 526 -23 449 -23 c 0,21,22
EndSplineSet
EndChar

StartChar: c
Encoding: 99 99 70
Width: 909
Flags: W
LayerCount: 2
Fore
SplineSet
391 -20 m 0,0,1
 301 -20 301 -20 233 5.5 c 128,-1,2
 165 31 165 31 120 77.5 c 128,-1,3
 75 124 75 124 52.5 188 c 128,-1,4
 30 252 30 252 30 330 c 0,5,6
 30 486 30 486 78.5 605 c 128,-1,7
 127 724 127 724 205.5 804 c 128,-1,8
 284 884 284 884 383.5 924.5 c 128,-1,9
 483 965 483 965 585 965 c 0,10,11
 625 965 625 965 667 961 c 128,-1,12
 709 957 709 957 748.5 950.5 c 128,-1,13
 788 944 788 944 822 936 c 128,-1,14
 856 928 856 928 879 920 c 1,15,-1
 830 632 l 1,16,-1
 758 632 l 1,17,-1
 744 803 l 1,18,19
 719 831 719 831 683.5 847 c 128,-1,20
 648 863 648 863 598 863 c 0,21,22
 540 863 540 863 486 824.5 c 128,-1,23
 432 786 432 786 390 717 c 128,-1,24
 348 648 348 648 323 552 c 128,-1,25
 298 456 298 456 298 340 c 0,26,27
 298 277 298 277 311.5 232 c 128,-1,28
 325 187 325 187 348 158.5 c 128,-1,29
 371 130 371 130 403 117 c 128,-1,30
 435 104 435 104 471 104 c 0,31,32
 546 104 546 104 607.5 131 c 128,-1,33
 669 158 669 158 726 198 c 1,34,-1
 770 135 l 1,35,36
 743 111 743 111 704 84 c 128,-1,37
 665 57 665 57 616.5 34 c 128,-1,38
 568 11 568 11 511 -4.5 c 128,-1,39
 454 -20 454 -20 391 -20 c 0,0,1
EndSplineSet
EndChar

StartChar: d
Encoding: 100 100 71
Width: 1024
Flags: W
LayerCount: 2
Fore
SplineSet
276 -20 m 0,0,1
 223 -20 223 -20 177 1 c 128,-1,2
 131 22 131 22 97 63 c 128,-1,3
 63 104 63 104 43.5 166 c 128,-1,4
 24 228 24 228 24 310 c 0,5,6
 24 439 24 439 59.5 557.5 c 128,-1,7
 95 676 95 676 161 766 c 128,-1,8
 227 856 227 856 320 910 c 128,-1,9
 413 964 413 964 528 964 c 0,10,11
 550 964 550 964 575 962 c 128,-1,12
 600 960 600 960 623.5 956.5 c 128,-1,13
 647 953 647 953 667.5 947.5 c 128,-1,14
 688 942 688 942 702 936 c 1,15,16
 703 948 703 948 704.5 965.5 c 128,-1,17
 706 983 706 983 708 1001 c 128,-1,18
 710 1019 710 1019 712 1035 c 128,-1,19
 714 1051 714 1051 716 1060 c 2,20,-1
 762 1332 l 1,21,-1
 602 1356 l 1,22,-1
 614 1421 l 1,23,-1
 1049 1421 l 1,24,-1
 812 85 l 1,25,-1
 911 60 l 1,26,-1
 899 0 l 1,27,-1
 567 0 l 1,28,-1
 560 144 l 1,29,30
 533 108 533 108 500 77.5 c 128,-1,31
 467 47 467 47 430 25.5 c 128,-1,32
 393 4 393 4 354 -8 c 128,-1,33
 315 -20 315 -20 276 -20 c 0,0,1
287 354 m 0,34,35
 287 294 287 294 295.5 251 c 128,-1,36
 304 208 304 208 318.5 181 c 128,-1,37
 333 154 333 154 351.5 141 c 128,-1,38
 370 128 370 128 390 128 c 0,39,40
 409 128 409 128 432.5 138.5 c 128,-1,41
 456 149 456 149 481 167.5 c 128,-1,42
 506 186 506 186 531 211.5 c 128,-1,43
 556 237 556 237 577 267 c 1,44,-1
 674 817 l 1,45,46
 662 829 662 829 644 838 c 128,-1,47
 626 847 626 847 606.5 853 c 128,-1,48
 587 859 587 859 569.5 862 c 128,-1,49
 552 865 552 865 540 865 c 0,50,51
 484 865 484 865 437.5 820 c 128,-1,52
 391 775 391 775 357.5 702 c 128,-1,53
 324 629 324 629 305.5 538 c 128,-1,54
 287 447 287 447 287 354 c 0,34,35
EndSplineSet
EndChar

StartChar: e
Encoding: 101 101 72
Width: 909
Flags: W
LayerCount: 2
Fore
SplineSet
864 760 m 0,0,1
 864 695 864 695 828 635.5 c 128,-1,2
 792 576 792 576 723 529 c 128,-1,3
 654 482 654 482 554 450 c 128,-1,4
 454 418 454 418 325 408 c 1,5,6
 324 404 324 404 323 395.5 c 128,-1,7
 322 387 322 387 321.5 377.5 c 128,-1,8
 321 368 321 368 320.5 357.5 c 128,-1,9
 320 347 320 347 320 340 c 0,10,11
 320 295 320 295 328 252.5 c 128,-1,12
 336 210 336 210 356 177 c 128,-1,13
 376 144 376 144 411.5 124 c 128,-1,14
 447 104 447 104 501 104 c 0,15,16
 575 104 575 104 638 132.5 c 128,-1,17
 701 161 701 161 756 198 c 1,18,-1
 800 135 l 1,19,20
 769 109 769 109 727 81.5 c 128,-1,21
 685 54 685 54 635 31.5 c 128,-1,22
 585 9 585 9 528 -5.5 c 128,-1,23
 471 -20 471 -20 411 -20 c 0,24,25
 317 -20 317 -20 248.5 4.5 c 128,-1,26
 180 29 180 29 135.5 74 c 128,-1,27
 91 119 91 119 69.5 184 c 128,-1,28
 48 249 48 249 48 330 c 0,29,30
 48 419 48 419 67.5 500.5 c 128,-1,31
 87 582 87 582 122.5 652.5 c 128,-1,32
 158 723 158 723 206 780.5 c 128,-1,33
 254 838 254 838 311.5 879 c 128,-1,34
 369 920 369 920 433 942.5 c 128,-1,35
 497 965 497 965 563 965 c 0,36,37
 636 965 636 965 692 949.5 c 128,-1,38
 748 934 748 934 786.5 906.5 c 128,-1,39
 825 879 825 879 844.5 841.5 c 128,-1,40
 864 804 864 804 864 760 c 0,0,1
341 508 m 1,41,42
 408 515 408 515 460 540.5 c 128,-1,43
 512 566 512 566 547.5 602.5 c 128,-1,44
 583 639 583 639 601.5 683.5 c 128,-1,45
 620 728 620 728 620 773 c 0,46,47
 620 815 620 815 599.5 836 c 128,-1,48
 579 857 579 857 551 857 c 0,49,50
 513 857 513 857 479.5 827 c 128,-1,51
 446 797 446 797 418.5 748 c 128,-1,52
 391 699 391 699 371 636.5 c 128,-1,53
 351 574 351 574 341 508 c 1,41,42
EndSplineSet
EndChar

StartChar: f
Encoding: 102 102 73
Width: 682
Flags: W
LayerCount: 2
Fore
SplineSet
222 836 m 1,0,-1
 60 836 l 1,1,-1
 72 905 l 1,2,-1
 241 944 l 1,3,-1
 264 1066 l 2,4,5
 301 1264 301 1264 408 1353 c 128,-1,6
 515 1442 515 1442 693 1442 c 0,7,8
 737 1442 737 1442 781.5 1435.5 c 128,-1,9
 826 1429 826 1429 852 1421 c 1,10,-1
 813 1199 l 1,11,-1
 749 1199 l 1,12,-1
 737 1311 l 1,13,14
 729 1319 729 1319 716.5 1325.5 c 128,-1,15
 704 1332 704 1332 681 1332 c 256,16,17
 658 1332 658 1332 637.5 1321.5 c 128,-1,18
 617 1311 617 1311 599 1285 c 128,-1,19
 581 1259 581 1259 566 1213.5 c 128,-1,20
 551 1168 551 1168 538 1098 c 2,21,-1
 509 940 l 1,22,-1
 715 940 l 1,23,-1
 697 836 l 1,24,-1
 491 836 l 1,25,-1
 269 -436 l 1,26,-1
 0 -436 l 1,27,-1
 222 836 l 1,0,-1
EndSplineSet
EndChar

StartChar: g
Encoding: 103 103 74
Width: 1024
Flags: W
LayerCount: 2
Fore
SplineSet
292 355 m 0,0,1
 292 295 292 295 302 252 c 128,-1,2
 312 209 312 209 328.5 182 c 128,-1,3
 345 155 345 155 365.5 142 c 128,-1,4
 386 129 386 129 407 129 c 0,5,6
 442 129 442 129 489.5 164 c 128,-1,7
 537 199 537 199 582 259 c 1,8,-1
 689 841 l 1,9,10
 663 852 663 852 632.5 859 c 128,-1,11
 602 866 602 866 560 866 c 0,12,13
 498 866 498 866 448.5 821 c 128,-1,14
 399 776 399 776 364.5 703 c 128,-1,15
 330 630 330 630 311 539 c 128,-1,16
 292 448 292 448 292 355 c 0,0,1
29 311 m 0,17,18
 29 397 29 397 45.5 479 c 128,-1,19
 62 561 62 561 93 633.5 c 128,-1,20
 124 706 124 706 169.5 767 c 128,-1,21
 215 828 215 828 273.5 872 c 128,-1,22
 332 916 332 916 402.5 940.5 c 128,-1,23
 473 965 473 965 555 965 c 0,24,25
 603 965 603 965 656 961.5 c 128,-1,26
 709 958 709 958 762.5 952 c 128,-1,27
 816 946 816 946 869 938.5 c 128,-1,28
 922 931 922 931 970 923 c 1,29,-1
 798 -35 l 2,30,31
 778 -143 778 -143 736 -219.5 c 128,-1,32
 694 -296 694 -296 630.5 -344 c 128,-1,33
 567 -392 567 -392 482.5 -414 c 128,-1,34
 398 -436 398 -436 294 -436 c 0,35,36
 243 -436 243 -436 193 -430 c 128,-1,37
 143 -424 143 -424 99 -414 c 128,-1,38
 55 -404 55 -404 19.5 -391 c 128,-1,39
 -16 -378 -16 -378 -38 -365 c 1,40,-1
 -16 -112 l 1,41,-1
 40 -112 l 1,42,-1
 76 -243 l 1,43,44
 112 -280 112 -280 169 -303.5 c 128,-1,45
 226 -327 226 -327 295 -327 c 0,46,47
 353 -327 353 -327 392.5 -309 c 128,-1,48
 432 -291 432 -291 458.5 -258 c 128,-1,49
 485 -225 485 -225 500 -178.5 c 128,-1,50
 515 -132 515 -132 525 -75 c 0,51,52
 528 -57 528 -57 533 -30 c 128,-1,53
 538 -3 538 -3 544 27 c 128,-1,54
 550 57 550 57 557 88 c 128,-1,55
 564 119 564 119 572 145 c 1,56,57
 544 109 544 109 510.5 78 c 128,-1,58
 477 47 477 47 440 24.5 c 128,-1,59
 403 2 403 2 364.5 -10.5 c 128,-1,60
 326 -23 326 -23 288 -23 c 0,61,62
 233 -23 233 -23 186 -1.5 c 128,-1,63
 139 20 139 20 104 62 c 128,-1,64
 69 104 69 104 49 166.5 c 128,-1,65
 29 229 29 229 29 311 c 0,17,18
EndSplineSet
EndChar

StartChar: h
Encoding: 104 104 75
Width: 1139
Flags: W
LayerCount: 2
Fore
SplineSet
475 958 m 2,0,1
 471 934 471 934 465 904.5 c 128,-1,2
 459 875 459 875 453.5 847.5 c 128,-1,3
 448 820 448 820 443 798 c 128,-1,4
 438 776 438 776 436 769 c 1,5,6
 512 866 512 866 606.5 915.5 c 128,-1,7
 701 965 701 965 818 965 c 0,8,9
 864 965 864 965 903.5 952 c 128,-1,10
 943 939 943 939 972 913.5 c 128,-1,11
 1001 888 1001 888 1017 851 c 128,-1,12
 1033 814 1033 814 1033 766 c 0,13,14
 1033 748 1033 748 1030 723 c 128,-1,15
 1027 698 1027 698 1023.5 671.5 c 128,-1,16
 1020 645 1020 645 1015.5 621 c 128,-1,17
 1011 597 1011 597 1008 580 c 2,18,-1
 921 90 l 1,19,-1
 1037 66 l 1,20,-1
 1024 0 l 1,21,-1
 638 0 l 1,22,-1
 740 569 l 2,23,24
 744 590 744 590 748 613 c 128,-1,25
 752 636 752 636 755 657 c 128,-1,26
 758 678 758 678 760 696 c 128,-1,27
 762 714 762 714 762 725 c 0,28,29
 762 822 762 822 671 822 c 0,30,31
 637 822 637 822 599 801.5 c 128,-1,32
 561 781 561 781 525 748.5 c 128,-1,33
 489 716 489 716 459 675 c 128,-1,34
 429 634 429 634 412 594 c 1,35,-1
 306 0 l 1,36,-1
 40 0 l 1,37,-1
 274 1331 l 1,38,-1
 183 1355 l 1,39,-1
 194 1421 l 1,40,-1
 559 1421 l 1,41,-1
 475 958 l 2,0,1
EndSplineSet
EndChar

StartChar: i
Encoding: 105 105 76
Width: 569
Flags: W
LayerCount: 2
Fore
SplineSet
337 90 m 1,0,-1
 456 66 l 1,1,-1
 445 0 l 1,2,-1
 52 0 l 1,3,-1
 202 850 l 1,4,-1
 111 874 l 1,5,-1
 122 940 l 1,6,-1
 487 940 l 1,7,-1
 337 90 l 1,0,-1
253 1268 m 256,8,9
 253 1300 253 1300 265 1328 c 128,-1,10
 277 1356 277 1356 298 1376.5 c 128,-1,11
 319 1397 319 1397 347 1409 c 128,-1,12
 375 1421 375 1421 407 1421 c 256,13,14
 439 1421 439 1421 467 1409 c 128,-1,15
 495 1397 495 1397 515.5 1376.5 c 128,-1,16
 536 1356 536 1356 548 1328 c 128,-1,17
 560 1300 560 1300 560 1268 c 256,18,19
 560 1236 560 1236 548 1208 c 128,-1,20
 536 1180 536 1180 515.5 1159 c 128,-1,21
 495 1138 495 1138 467 1126 c 128,-1,22
 439 1114 439 1114 407 1114 c 256,23,24
 375 1114 375 1114 347 1126 c 128,-1,25
 319 1138 319 1138 298 1159 c 128,-1,26
 277 1180 277 1180 265 1208 c 128,-1,27
 253 1236 253 1236 253 1268 c 256,8,9
EndSplineSet
EndChar

StartChar: j
Encoding: 106 106 77
Width: 569
Flags: W
LayerCount: 2
Fore
SplineSet
328 -39 m 2,0,1
 309 -145 309 -145 270 -220.5 c 128,-1,2
 231 -296 231 -296 175.5 -344 c 128,-1,3
 120 -392 120 -392 50 -414 c 128,-1,4
 -20 -436 -20 -436 -100 -436 c 0,5,6
 -145 -436 -145 -436 -189 -431 c 128,-1,7
 -233 -426 -233 -426 -268 -418 c 1,8,-1
 -229 -193 l 1,9,-1
 -166 -193 l 1,10,-1
 -142 -311 l 1,11,12
 -134 -317 -134 -317 -123 -321.5 c 128,-1,13
 -112 -326 -112 -326 -97 -326 c 0,14,15
 -75 -326 -75 -326 -53.5 -312.5 c 128,-1,16
 -32 -299 -32 -299 -12.5 -269 c 128,-1,17
 7 -239 7 -239 24 -190.5 c 128,-1,18
 41 -142 41 -142 53 -71 c 2,19,-1
 214 840 l 1,20,-1
 54 874 l 1,21,-1
 65 940 l 1,22,-1
 500 940 l 1,23,-1
 328 -39 l 2,0,1
268 1268 m 256,24,25
 268 1300 268 1300 280 1328 c 128,-1,26
 292 1356 292 1356 313 1376.5 c 128,-1,27
 334 1397 334 1397 362 1409 c 128,-1,28
 390 1421 390 1421 422 1421 c 256,29,30
 454 1421 454 1421 482 1409 c 128,-1,31
 510 1397 510 1397 530.5 1376.5 c 128,-1,32
 551 1356 551 1356 563 1328 c 128,-1,33
 575 1300 575 1300 575 1268 c 256,34,35
 575 1236 575 1236 563 1208 c 128,-1,36
 551 1180 551 1180 530.5 1159 c 128,-1,37
 510 1138 510 1138 482 1126 c 128,-1,38
 454 1114 454 1114 422 1114 c 256,39,40
 390 1114 390 1114 362 1126 c 128,-1,41
 334 1138 334 1138 313 1159 c 128,-1,42
 292 1180 292 1180 280 1208 c 128,-1,43
 268 1236 268 1236 268 1268 c 256,24,25
EndSplineSet
EndChar

StartChar: k
Encoding: 107 107 78
Width: 1024
Flags: W
LayerCount: 2
Fore
SplineSet
388 507 m 1,0,-1
 739 851 l 1,1,-1
 653 874 l 1,2,-1
 664 940 l 1,3,-1
 1008 940 l 1,4,-1
 997 874 l 1,5,-1
 905 852 l 1,6,-1
 662 628 l 1,7,-1
 884 90 l 1,8,-1
 964 66 l 1,9,-1
 953 0 l 1,10,-1
 639 0 l 1,11,-1
 473 453 l 1,12,-1
 365 383 l 1,13,-1
 297 0 l 1,14,-1
 28 0 l 1,15,-1
 263 1331 l 1,16,-1
 171 1355 l 1,17,-1
 183 1421 l 1,18,-1
 548 1421 l 1,19,-1
 388 507 l 1,0,-1
EndSplineSet
EndChar

StartChar: l
Encoding: 108 108 79
Width: 569
Flags: W
LayerCount: 2
Fore
SplineSet
330 90 m 1,0,-1
 449 66 l 1,1,-1
 438 0 l 1,2,-1
 45 0 l 1,3,-1
 281 1331 l 1,4,-1
 190 1355 l 1,5,-1
 201 1421 l 1,6,-1
 566 1421 l 1,7,-1
 330 90 l 1,0,-1
EndSplineSet
EndChar

StartChar: m
Encoding: 109 109 80
Width: 1593
Flags: W
LayerCount: 2
Fore
SplineSet
1220 725 m 0,0,1
 1220 822 1220 822 1148 822 c 0,2,3
 1121 822 1121 822 1087 798.5 c 128,-1,4
 1053 775 1053 775 1021.5 737.5 c 128,-1,5
 990 700 990 700 965.5 654 c 128,-1,6
 941 608 941 608 933 563 c 2,7,-1
 834 0 l 1,8,-1
 567 0 l 1,9,-1
 669 569 l 2,10,11
 673 590 673 590 677 613 c 128,-1,12
 681 636 681 636 684 657 c 128,-1,13
 687 678 687 678 689 696 c 128,-1,14
 691 714 691 714 691 725 c 0,15,16
 691 822 691 822 617 822 c 0,17,18
 590 822 590 822 560 801.5 c 128,-1,19
 530 781 530 781 501.5 748.5 c 128,-1,20
 473 716 473 716 449.5 675 c 128,-1,21
 426 634 426 634 411 594 c 1,22,-1
 305 0 l 1,23,-1
 39 0 l 1,24,-1
 187 849 l 1,25,-1
 98 874 l 1,26,-1
 111 940 l 1,27,-1
 439 940 l 1,28,-1
 436 772 l 1,29,30
 508 870 508 870 589 917.5 c 128,-1,31
 670 965 670 965 770 965 c 0,32,33
 809 965 809 965 843 954 c 128,-1,34
 877 943 877 943 903 919 c 128,-1,35
 929 895 929 895 944.5 857.5 c 128,-1,36
 960 820 960 820 961 767 c 1,37,38
 1033 868 1033 868 1116.5 916.5 c 128,-1,39
 1200 965 1200 965 1299 965 c 0,40,41
 1338 965 1338 965 1373 952.5 c 128,-1,42
 1408 940 1408 940 1434.5 914 c 128,-1,43
 1461 888 1461 888 1476 848 c 128,-1,44
 1491 808 1491 808 1491 754 c 0,45,46
 1491 742 1491 742 1488 719.5 c 128,-1,47
 1485 697 1485 697 1481.5 671.5 c 128,-1,48
 1478 646 1478 646 1473.5 621.5 c 128,-1,49
 1469 597 1469 597 1466 580 c 2,50,-1
 1379 90 l 1,51,-1
 1495 66 l 1,52,-1
 1482 0 l 1,53,-1
 1096 0 l 1,54,-1
 1198 569 l 2,55,56
 1202 590 1202 590 1206 613 c 128,-1,57
 1210 636 1210 636 1213 657 c 128,-1,58
 1216 678 1216 678 1218 696 c 128,-1,59
 1220 714 1220 714 1220 725 c 0,0,1
EndSplineSet
EndChar

StartChar: n
Encoding: 110 110 81
Width: 1139
Flags: W
LayerCount: 2
Fore
SplineSet
764 725 m 0,0,1
 764 822 764 822 673 822 c 0,2,3
 639 822 639 822 601 801.5 c 128,-1,4
 563 781 563 781 527 748.5 c 128,-1,5
 491 716 491 716 461 675 c 128,-1,6
 431 634 431 634 414 594 c 1,7,-1
 308 0 l 1,8,-1
 42 0 l 1,9,-1
 190 849 l 1,10,-1
 101 874 l 1,11,-1
 114 940 l 1,12,-1
 448 940 l 1,13,-1
 440 765 l 1,14,15
 516 863 516 863 609.5 914 c 128,-1,16
 703 965 703 965 820 965 c 0,17,18
 866 965 866 965 905.5 952.5 c 128,-1,19
 945 940 945 940 974 915 c 128,-1,20
 1003 890 1003 890 1019 852 c 128,-1,21
 1035 814 1035 814 1035 763 c 0,22,23
 1035 745 1035 745 1032.5 722 c 128,-1,24
 1030 699 1030 699 1026 674.5 c 128,-1,25
 1022 650 1022 650 1018 625.5 c 128,-1,26
 1014 601 1014 601 1010 580 c 2,27,-1
 923 90 l 1,28,-1
 1039 66 l 1,29,-1
 1026 0 l 1,30,-1
 640 0 l 1,31,-1
 742 569 l 2,32,33
 746 590 746 590 750 613 c 128,-1,34
 754 636 754 636 757 657 c 128,-1,35
 760 678 760 678 762 696 c 128,-1,36
 764 714 764 714 764 725 c 0,0,1
EndSplineSet
EndChar

StartChar: o
Encoding: 111 111 82
Width: 1024
Flags: W
LayerCount: 2
Fore
SplineSet
683 625 m 0,0,1
 683 742 683 742 652 804 c 128,-1,2
 621 866 621 866 558 866 c 0,3,4
 511 866 511 866 464 822.5 c 128,-1,5
 417 779 417 779 380 704 c 128,-1,6
 343 629 343 629 320 529.5 c 128,-1,7
 297 430 297 430 297 319 c 0,8,9
 297 204 297 204 334 141.5 c 128,-1,10
 371 79 371 79 429 79 c 0,11,12
 476 79 476 79 521.5 119.5 c 128,-1,13
 567 160 567 160 603 232.5 c 128,-1,14
 639 305 639 305 661 405 c 128,-1,15
 683 505 683 505 683 625 c 0,0,1
406 -20 m 0,16,17
 323 -20 323 -20 254 7 c 128,-1,18
 185 34 185 34 135.5 85 c 128,-1,19
 86 136 86 136 59 209 c 128,-1,20
 32 282 32 282 32 374 c 0,21,22
 32 491 32 491 70 598 c 128,-1,23
 108 705 108 705 179.5 786.5 c 128,-1,24
 251 868 251 868 352.5 916.5 c 128,-1,25
 454 965 454 965 580 965 c 0,26,27
 663 965 663 965 732 938 c 128,-1,28
 801 911 801 911 850.5 860 c 128,-1,29
 900 809 900 809 927 736 c 128,-1,30
 954 663 954 663 954 571 c 0,31,32
 954 454 954 454 916 347 c 128,-1,33
 878 240 878 240 806.5 158.5 c 128,-1,34
 735 77 735 77 633.5 28.5 c 128,-1,35
 532 -20 532 -20 406 -20 c 0,16,17
EndSplineSet
EndChar

StartChar: p
Encoding: 112 112 83
Width: 1024
Flags: W
LayerCount: 2
Fore
SplineSet
962 631 m 0,0,1
 962 502 962 502 926.5 384 c 128,-1,2
 891 266 891 266 824 176.5 c 128,-1,3
 757 87 757 87 662 33.5 c 128,-1,4
 567 -20 567 -20 449 -20 c 0,5,6
 404 -20 404 -20 362.5 -10 c 128,-1,7
 321 0 321 0 294 13 c 1,8,9
 293 1 293 1 291.5 -16.5 c 128,-1,10
 290 -34 290 -34 288 -52 c 128,-1,11
 286 -70 286 -70 283.5 -86 c 128,-1,12
 281 -102 281 -102 280 -111 c 2,13,-1
 242 -347 l 1,14,-1
 402 -371 l 1,15,-1
 390 -436 l 1,16,-1
 -146 -436 l 1,17,-1
 -134 -371 l 1,18,-1
 -30 -347 l 1,19,-1
 184 855 l 1,20,-1
 85 880 l 1,21,-1
 97 940 l 1,22,-1
 442 940 l 1,23,-1
 436 802 l 1,24,25
 492 875 492 875 559.5 920 c 128,-1,26
 627 965 627 965 703 965 c 0,27,28
 758 965 758 965 805 943.5 c 128,-1,29
 852 922 852 922 887 880 c 128,-1,30
 922 838 922 838 942 775.5 c 128,-1,31
 962 713 962 713 962 631 c 0,0,1
699 587 m 0,32,33
 699 647 699 647 689.5 690 c 128,-1,34
 680 733 680 733 664.5 760 c 128,-1,35
 649 787 649 787 629 800 c 128,-1,36
 609 813 609 813 588 813 c 0,37,38
 553 813 553 813 509 776.5 c 128,-1,39
 465 740 465 740 420 680 c 1,40,-1
 322 127 l 1,41,42
 346 103 346 103 379.5 91 c 128,-1,43
 413 79 413 79 438 79 c 0,44,45
 477 79 477 79 512 99.5 c 128,-1,46
 547 120 547 120 576 156 c 128,-1,47
 605 192 605 192 628 240.5 c 128,-1,48
 651 289 651 289 666.5 345.5 c 128,-1,49
 682 402 682 402 690.5 463.5 c 128,-1,50
 699 525 699 525 699 587 c 0,32,33
EndSplineSet
EndChar

StartChar: q
Encoding: 113 113 84
Width: 1024
Flags: W
LayerCount: 2
Fore
SplineSet
289 355 m 0,0,1
 289 295 289 295 299 252 c 128,-1,2
 309 209 309 209 325.5 182 c 128,-1,3
 342 155 342 155 362.5 142 c 128,-1,4
 383 129 383 129 403 129 c 0,5,6
 420 129 420 129 442.5 139.5 c 128,-1,7
 465 150 465 150 489.5 168.5 c 128,-1,8
 514 187 514 187 539 212.5 c 128,-1,9
 564 238 564 238 586 268 c 1,10,-1
 691 841 l 1,11,12
 665 852 665 852 630 859 c 128,-1,13
 595 866 595 866 554 866 c 0,14,15
 493 866 493 866 444 821 c 128,-1,16
 395 776 395 776 360.5 703 c 128,-1,17
 326 630 326 630 307.5 539 c 128,-1,18
 289 448 289 448 289 355 c 0,0,1
540 965 m 0,19,20
 646 965 646 965 759.5 953.5 c 128,-1,21
 873 942 873 942 972 923 c 1,22,-1
 743 -348 l 1,23,-1
 835 -371 l 1,24,-1
 824 -436 l 1,25,-1
 459 -436 l 1,26,-1
 532 -49 l 2,27,28
 535 -31 535 -31 539.5 -7 c 128,-1,29
 544 17 544 17 549.5 43 c 128,-1,30
 555 69 555 69 561 95 c 128,-1,31
 567 121 567 121 574 145 c 1,32,33
 547 109 547 109 512.5 78 c 128,-1,34
 478 47 478 47 439.5 24.5 c 128,-1,35
 401 2 401 2 361 -10.5 c 128,-1,36
 321 -23 321 -23 284 -23 c 0,37,38
 230 -23 230 -23 182.5 -1.5 c 128,-1,39
 135 20 135 20 100.5 62 c 128,-1,40
 66 104 66 104 46 166.5 c 128,-1,41
 26 229 26 229 26 311 c 0,42,43
 26 440 26 440 60.5 558.5 c 128,-1,44
 95 677 95 677 161 767 c 128,-1,45
 227 857 227 857 322.5 911 c 128,-1,46
 418 965 418 965 540 965 c 0,19,20
EndSplineSet
EndChar

StartChar: r
Encoding: 114 114 85
Width: 797
Flags: W
LayerCount: 2
Fore
SplineSet
438 738 m 1,0,1
 468 797 468 797 504 840 c 128,-1,2
 540 883 540 883 578 910.5 c 128,-1,3
 616 938 616 938 655 951.5 c 128,-1,4
 694 965 694 965 729 965 c 0,5,6
 749 965 749 965 773.5 962 c 128,-1,7
 798 959 798 959 812 955 c 1,8,-1
 754 618 l 1,9,-1
 699 618 l 1,10,-1
 655 755 l 1,11,12
 619 755 619 755 587.5 746.5 c 128,-1,13
 556 738 556 738 527 719 c 128,-1,14
 498 700 498 700 470.5 669.5 c 128,-1,15
 443 639 443 639 416 596 c 1,16,-1
 311 0 l 1,17,-1
 42 0 l 1,18,-1
 192 850 l 1,19,-1
 75 874 l 1,20,-1
 86 940 l 1,21,-1
 461 940 l 1,22,-1
 438 738 l 1,0,1
EndSplineSet
EndChar

StartChar: s
Encoding: 115 115 86
Width: 797
Flags: W
LayerCount: 2
Fore
SplineSet
693 297 m 0,0,1
 693 145 693 145 591 62.5 c 128,-1,2
 489 -20 489 -20 286 -20 c 0,3,4
 243 -20 243 -20 197.5 -14.5 c 128,-1,5
 152 -9 152 -9 111.5 -0.5 c 128,-1,6
 71 8 71 8 39 17 c 128,-1,7
 7 26 7 26 -11 34 c 1,8,-1
 35 295 l 1,9,-1
 101 295 l 1,10,-1
 116 163 l 1,11,12
 128 146 128 146 145 130 c 128,-1,13
 162 114 162 114 183.5 101 c 128,-1,14
 205 88 205 88 232.5 80.5 c 128,-1,15
 260 73 260 73 293 73 c 0,16,17
 336 73 336 73 370 85.5 c 128,-1,18
 404 98 404 98 426.5 119 c 128,-1,19
 449 140 449 140 461 167.5 c 128,-1,20
 473 195 473 195 473 225 c 0,21,22
 473 256 473 256 458.5 279.5 c 128,-1,23
 444 303 444 303 419.5 323 c 128,-1,24
 395 343 395 343 363.5 361 c 128,-1,25
 332 379 332 379 298 399 c 0,26,27
 257 422 257 422 220.5 448.5 c 128,-1,28
 184 475 184 475 156 508.5 c 128,-1,29
 128 542 128 542 111.5 584 c 128,-1,30
 95 626 95 626 95 680 c 0,31,32
 95 764 95 764 125.5 819.5 c 128,-1,33
 156 875 156 875 207.5 907 c 128,-1,34
 259 939 259 939 327.5 952 c 128,-1,35
 396 965 396 965 472 965 c 0,36,37
 536 965 536 965 603.5 956 c 128,-1,38
 671 947 671 947 734 933 c 1,39,-1
 691 692 l 1,40,-1
 625 692 l 1,41,-1
 612 802 l 1,42,43
 591 828 591 828 550 849.5 c 128,-1,44
 509 871 509 871 458 871 c 0,45,46
 382 871 382 871 346.5 837 c 128,-1,47
 311 803 311 803 311 748 c 0,48,49
 311 720 311 720 324 698 c 128,-1,50
 337 676 337 676 359 657 c 128,-1,51
 381 638 381 638 409.5 620.5 c 128,-1,52
 438 603 438 603 470 585 c 0,53,54
 513 561 513 561 553 535 c 128,-1,55
 593 509 593 509 624 476 c 128,-1,56
 655 443 655 443 674 399.5 c 128,-1,57
 693 356 693 356 693 297 c 0,0,1
EndSplineSet
EndChar

StartChar: t
Encoding: 116 116 87
Width: 569
Flags: W
LayerCount: 2
Fore
SplineSet
428 106 m 0,0,1
 452 106 452 106 479 113.5 c 128,-1,2
 506 121 506 121 538 132 c 1,3,-1
 564 62 l 1,4,5
 544 48 544 48 514.5 33.5 c 128,-1,6
 485 19 485 19 449.5 7 c 128,-1,7
 414 -5 414 -5 374.5 -12.5 c 128,-1,8
 335 -20 335 -20 296 -20 c 0,9,10
 232 -20 232 -20 188.5 -3.5 c 128,-1,11
 145 13 145 13 118 41 c 128,-1,12
 91 69 91 69 79 106 c 128,-1,13
 67 143 67 143 67 185 c 0,14,15
 67 214 67 214 72.5 252.5 c 128,-1,16
 78 291 78 291 85 329 c 2,17,-1
 177 836 l 1,18,-1
 62 836 l 1,19,-1
 73 901 l 1,20,-1
 215 940 l 1,21,-1
 354 1153 l 1,22,-1
 500 1153 l 1,23,-1
 462 940 l 1,24,-1
 620 940 l 1,25,-1
 602 836 l 1,26,-1
 444 836 l 1,27,-1
 353 327 l 2,28,29
 346 291 346 291 341.5 258 c 128,-1,30
 337 225 337 225 337 207 c 0,31,32
 337 154 337 154 363.5 130 c 128,-1,33
 390 106 390 106 428 106 c 0,0,1
EndSplineSet
EndChar

StartChar: u
Encoding: 117 117 88
Width: 1139
Flags: W
LayerCount: 2
Fore
SplineSet
350 216 m 0,0,1
 350 119 350 119 441 119 c 0,2,3
 475 119 475 119 513 139.5 c 128,-1,4
 551 160 551 160 587 192.5 c 128,-1,5
 623 225 623 225 653 265.5 c 128,-1,6
 683 306 683 306 700 347 c 1,7,-1
 806 940 l 1,8,-1
 1072 940 l 1,9,-1
 924 91 l 1,10,-1
 1033 66 l 1,11,-1
 1020 0 l 1,12,-1
 666 0 l 1,13,-1
 674 176 l 1,14,15
 598 78 598 78 504.5 27 c 128,-1,16
 411 -24 411 -24 294 -24 c 0,17,18
 247 -24 247 -24 208 -11.5 c 128,-1,19
 169 1 169 1 140 27 c 128,-1,20
 111 53 111 53 95 93 c 128,-1,21
 79 133 79 133 79 187 c 0,22,23
 79 199 79 199 81.5 221.5 c 128,-1,24
 84 244 84 244 88 270.5 c 128,-1,25
 92 297 92 297 97 325 c 128,-1,26
 102 353 102 353 106 376 c 2,27,-1
 191 850 l 1,28,-1
 75 874 l 1,29,-1
 88 940 l 1,30,-1
 474 940 l 1,31,-1
 372 372 l 2,32,33
 368 351 368 351 364 328 c 128,-1,34
 360 305 360 305 357 284 c 128,-1,35
 354 263 354 263 352 245 c 128,-1,36
 350 227 350 227 350 216 c 0,0,1
EndSplineSet
EndChar

StartChar: v
Encoding: 118 118 89
Width: 909
Flags: W
LayerCount: 2
Fore
SplineSet
330 941 m 1,0,-1
 479 287 l 1,1,-1
 682 601 l 2,2,3
 714 651 714 651 731 700 c 128,-1,4
 748 749 748 749 748 781 c 0,5,6
 748 806 748 806 740.5 822 c 128,-1,7
 733 838 733 838 720.5 848.5 c 128,-1,8
 708 859 708 859 691.5 864.5 c 128,-1,9
 675 870 675 870 658 875 c 1,10,-1
 670 940 l 1,11,-1
 901 940 l 1,12,13
 910 932 910 932 918.5 915 c 128,-1,14
 927 898 927 898 927 877 c 0,15,16
 927 861 927 861 923.5 840 c 128,-1,17
 920 819 920 819 911 791.5 c 128,-1,18
 902 764 902 764 886 730.5 c 128,-1,19
 870 697 870 697 844 657 c 2,20,-1
 407 -20 l 1,21,-1
 284 -20 l 1,22,-1
 80 851 l 1,23,-1
 19 875 l 1,24,-1
 30 941 l 1,25,-1
 330 941 l 1,0,-1
EndSplineSet
EndChar

StartChar: w
Encoding: 119 119 90
Width: 1366
Flags: W
LayerCount: 2
Fore
SplineSet
1129 580 m 2,0,1
 1140 600 1140 600 1150 626.5 c 128,-1,2
 1160 653 1160 653 1168 680.5 c 128,-1,3
 1176 708 1176 708 1180.5 733 c 128,-1,4
 1185 758 1185 758 1185 775 c 0,5,6
 1185 803 1185 803 1176.5 820.5 c 128,-1,7
 1168 838 1168 838 1153.5 848.5 c 128,-1,8
 1139 859 1139 859 1121 864.5 c 128,-1,9
 1103 870 1103 870 1085 875 c 1,10,-1
 1097 940 l 1,11,-1
 1342 940 l 1,12,13
 1356 929 1356 929 1364.5 909 c 128,-1,14
 1373 889 1373 889 1373 859 c 0,15,16
 1373 826 1373 826 1360 776 c 128,-1,17
 1347 726 1347 726 1306 657 c 2,18,-1
 904 -20 l 1,19,-1
 785 -20 l 1,20,-1
 682 518 l 1,21,-1
 386 -20 l 1,22,-1
 253 -20 l 1,23,-1
 82 850 l 1,24,-1
 2 874 l 1,25,-1
 13 940 l 1,26,-1
 317 940 l 1,27,-1
 443 282 l 1,28,-1
 752 846 l 1,29,-1
 852 846 l 1,30,-1
 964 282 l 1,31,-1
 1129 580 l 2,0,1
EndSplineSet
EndChar

StartChar: x
Encoding: 120 120 91
Width: 1024
Flags: W
LayerCount: 2
Fore
SplineSet
439 374 m 1,0,-1
 274 236 l 2,1,2
 240 207 240 207 221.5 187 c 128,-1,3
 203 167 203 167 194 152 c 128,-1,4
 185 137 185 137 183.5 125.5 c 128,-1,5
 182 114 182 114 182 104 c 0,6,7
 182 93 182 93 191.5 81.5 c 128,-1,8
 201 70 201 70 224 65 c 1,9,-1
 212 0 l 1,10,-1
 -9 0 l 1,11,12
 -15 5 -15 5 -20 16.5 c 128,-1,13
 -25 28 -25 28 -25 43 c 0,14,15
 -25 78 -25 78 7.5 119.5 c 128,-1,16
 40 161 40 161 112 221 c 2,17,-1
 396 460 l 1,18,-1
 194 850 l 1,19,-1
 108 875 l 1,20,-1
 119 940 l 1,21,-1
 418 940 l 1,22,-1
 583 615 l 1,23,-1
 685 700 l 2,24,25
 719 728 719 728 738.5 749 c 128,-1,26
 758 770 758 770 768 786 c 128,-1,27
 778 802 778 802 780.5 814 c 128,-1,28
 783 826 783 826 783 836 c 0,29,30
 783 849 783 849 769.5 859.5 c 128,-1,31
 756 870 756 870 728 875 c 1,32,-1
 740 940 l 1,33,-1
 953 940 l 1,34,35
 962 933 962 933 968 922.5 c 128,-1,36
 974 912 974 912 974 897 c 0,37,38
 974 859 974 859 941 813 c 128,-1,39
 908 767 908 767 836 707 c 2,40,-1
 628 533 l 1,41,-1
 856 86 l 1,42,-1
 942 65 l 1,43,-1
 931 0 l 1,44,-1
 629 0 l 1,45,-1
 439 374 l 1,0,-1
EndSplineSet
EndChar

StartChar: y
Encoding: 121 121 92
Width: 909
Flags: W
LayerCount: 2
Fore
SplineSet
915 877 m 0,0,1
 915 861 915 861 912 840 c 128,-1,2
 909 819 909 819 900 792 c 128,-1,3
 891 765 891 765 875 731 c 128,-1,4
 859 697 859 697 834 657 c 2,5,-1
 395 -59 l 2,6,7
 346 -139 346 -139 297 -209 c 128,-1,8
 248 -279 248 -279 195.5 -330.5 c 128,-1,9
 143 -382 143 -382 84 -412 c 128,-1,10
 25 -442 25 -442 -44 -442 c 0,11,12
 -72 -442 -72 -442 -92.5 -441 c 128,-1,13
 -113 -440 -113 -440 -131 -437.5 c 128,-1,14
 -149 -435 -149 -435 -166.5 -431.5 c 128,-1,15
 -184 -428 -184 -428 -205 -423 c 1,16,-1
 -163 -181 l 1,17,-1
 -103 -181 l 1,18,-1
 -83 -307 l 1,19,20
 -71 -318 -71 -318 -54.5 -324 c 128,-1,21
 -38 -330 -38 -330 -13 -330 c 0,22,23
 24 -330 24 -330 61 -306.5 c 128,-1,24
 98 -283 98 -283 134 -244.5 c 128,-1,25
 170 -206 170 -206 204.5 -156 c 128,-1,26
 239 -106 239 -106 272 -52 c 2,27,-1
 300 -5 l 1,28,-1
 86 850 l 1,29,-1
 25 874 l 1,30,-1
 36 940 l 1,31,-1
 339 940 l 1,32,-1
 491 301 l 1,33,-1
 672 601 l 2,34,35
 686 624 686 624 697.5 649 c 128,-1,36
 709 674 709 674 717.5 698 c 128,-1,37
 726 722 726 722 731 743.5 c 128,-1,38
 736 765 736 765 736 781 c 0,39,40
 736 806 736 806 728.5 822 c 128,-1,41
 721 838 721 838 708.5 848.5 c 128,-1,42
 696 859 696 859 679.5 864.5 c 128,-1,43
 663 870 663 870 646 875 c 1,44,-1
 658 940 l 1,45,-1
 889 940 l 1,46,47
 898 932 898 932 906.5 915 c 128,-1,48
 915 898 915 898 915 877 c 0,0,1
EndSplineSet
EndChar

StartChar: z
Encoding: 122 122 93
Width: 797
Flags: W
LayerCount: 2
Fore
SplineSet
-58 0 m 1,0,-1
 -50 50 l 1,1,-1
 466 850 l 1,2,-1
 396 850 l 2,3,4
 368 850 368 850 340.5 847.5 c 128,-1,5
 313 845 313 845 288 840.5 c 128,-1,6
 263 836 263 836 243.5 829.5 c 128,-1,7
 224 823 224 823 212 815 c 1,8,-1
 152 660 l 1,9,-1
 80 660 l 1,10,-1
 129 940 l 1,11,-1
 789 940 l 1,12,-1
 780 886 l 1,13,-1
 264 90 l 1,14,-1
 347 90 l 2,15,16
 374 90 374 90 404.5 93.5 c 128,-1,17
 435 97 435 97 463.5 103 c 128,-1,18
 492 109 492 109 517 117.5 c 128,-1,19
 542 126 542 126 559 137 c 1,20,-1
 641 315 l 1,21,-1
 713 315 l 1,22,-1
 639 0 l 1,23,-1
 -58 0 l 1,0,-1
EndSplineSet
EndChar

StartChar: braceleft
Encoding: 123 123 94
Width: 713
Flags: W
LayerCount: 2
Fore
SplineSet
402 -274 m 2,0,1
 336 -274 336 -274 288.5 -256.5 c 128,-1,2
 241 -239 241 -239 210.5 -208 c 128,-1,3
 180 -177 180 -177 165 -133.5 c 128,-1,4
 150 -90 150 -90 150 -38 c 0,5,6
 150 2 150 2 157 40 c 2,7,-1
 205 315 l 2,8,9
 211 348 211 348 211 376 c 0,10,11
 211 458 211 458 163.5 494 c 128,-1,12
 116 530 116 530 28 533 c 1,13,-1
 43 618 l 1,14,15
 146 621 146 621 211.5 670.5 c 128,-1,16
 277 720 277 720 297 834 c 2,17,-1
 352 1148 l 2,18,19
 377 1289 377 1289 461.5 1355 c 128,-1,20
 546 1421 546 1421 701 1421 c 2,21,-1
 836 1421 l 1,22,-1
 821 1334 l 1,23,-1
 759 1334 l 2,24,25
 690 1334 690 1334 649.5 1299.5 c 128,-1,26
 609 1265 609 1265 594 1179 c 2,27,-1
 530 819 l 2,28,29
 521 769 521 769 498.5 727 c 128,-1,30
 476 685 476 685 443 652.5 c 128,-1,31
 410 620 410 620 369 598.5 c 128,-1,32
 328 577 328 577 283 568 c 1,33,-1
 283 565 l 1,34,35
 358 548 358 548 401.5 496.5 c 128,-1,36
 445 445 445 445 445 365 c 0,37,38
 445 352 445 352 443.5 339 c 128,-1,39
 442 326 442 326 440 312 c 2,40,-1
 387 8 l 2,41,42
 381 -25 381 -25 381 -53 c 0,43,44
 381 -114 381 -114 407.5 -150.5 c 128,-1,45
 434 -187 434 -187 491 -187 c 2,46,-1
 553 -187 l 1,47,-1
 537 -274 l 1,48,-1
 402 -274 l 2,0,1
EndSplineSet
EndChar

StartChar: bar
Encoding: 124 124 95
Width: 451
Flags: W
LayerCount: 2
Fore
SplineSet
139 -442 m 1,0,-1
 139 1421 l 1,1,-1
 282 1421 l 1,2,-1
 282 -442 l 1,3,-1
 139 -442 l 1,0,-1
EndSplineSet
EndChar

StartChar: braceright
Encoding: 125 125 96
Width: 713
Flags: W
LayerCount: 2
Fore
SplineSet
-120 -274 m 1,0,-1
 -104 -187 l 1,1,-1
 -42 -187 l 2,2,3
 27 -187 27 -187 67 -152.5 c 128,-1,4
 107 -118 107 -118 122 -32 c 2,5,-1
 187 332 l 2,6,7
 196 383 196 383 218 425 c 128,-1,8
 240 467 240 467 272.5 499.5 c 128,-1,9
 305 532 305 532 346 553.5 c 128,-1,10
 387 575 387 575 434 585 c 1,11,-1
 434 588 l 1,12,13
 362 604 362 604 317 656 c 128,-1,14
 272 708 272 708 272 788 c 0,15,16
 272 800 272 800 273.5 812.5 c 128,-1,17
 275 825 275 825 277 839 c 2,18,-1
 329 1139 l 2,19,20
 335 1172 335 1172 335 1201 c 0,21,22
 335 1262 335 1262 308.5 1298 c 128,-1,23
 282 1334 282 1334 226 1334 c 2,24,-1
 164 1334 l 1,25,-1
 179 1421 l 1,26,-1
 314 1421 l 2,27,28
 444 1421 444 1421 505.5 1358.5 c 128,-1,29
 567 1296 567 1296 567 1190 c 0,30,31
 567 1170 567 1170 565 1150 c 128,-1,32
 563 1130 563 1130 559 1108 c 2,33,-1
 512 834 l 2,34,35
 506 801 506 801 506 773 c 0,36,37
 506 692 506 692 553.5 656 c 128,-1,38
 601 620 601 620 688 618 c 1,39,-1
 673 533 l 1,40,41
 622 531 622 531 580 518.5 c 128,-1,42
 538 506 538 506 505.5 480 c 128,-1,43
 473 454 473 454 451.5 413.5 c 128,-1,44
 430 373 430 373 420 315 c 2,45,-1
 364 0 l 2,46,47
 340 -136 340 -136 255 -205 c 128,-1,48
 170 -274 170 -274 15 -274 c 2,49,-1
 -120 -274 l 1,0,-1
EndSplineSet
EndChar

StartChar: asciitilde
Encoding: 126 126 97
Width: 1167
Flags: W
LayerCount: 2
Fore
SplineSet
831 481 m 0,0,1
 783 481 783 481 739 499 c 128,-1,2
 695 517 695 517 655 544 c 128,-1,3
 615 571 615 571 578 602 c 128,-1,4
 541 633 541 633 506.5 660 c 128,-1,5
 472 687 472 687 439.5 705 c 128,-1,6
 407 723 407 723 376 723 c 0,7,8
 342 723 342 723 317 711 c 128,-1,9
 292 699 292 699 274.5 670.5 c 128,-1,10
 257 642 257 642 245.5 595.5 c 128,-1,11
 234 549 234 549 227 481 c 1,12,-1
 86 481 l 1,13,14
 93 550 93 550 107 619 c 128,-1,15
 121 688 121 688 152 742.5 c 128,-1,16
 183 797 183 797 236.5 831.5 c 128,-1,17
 290 866 290 866 376 866 c 0,18,19
 415 866 415 866 450 855 c 128,-1,20
 485 844 485 844 517.5 827 c 128,-1,21
 550 810 550 810 579.5 787.5 c 128,-1,22
 609 765 609 765 636 743 c 0,23,24
 653 729 653 729 676.5 708.5 c 128,-1,25
 700 688 700 688 726.5 669 c 128,-1,26
 753 650 753 650 780 637 c 128,-1,27
 807 624 807 624 831 624 c 0,28,29
 864 624 864 624 888 637.5 c 128,-1,30
 912 651 912 651 929 680 c 128,-1,31
 946 709 946 709 958 755 c 128,-1,32
 970 801 970 801 978 866 c 1,33,-1
 1122 866 l 1,34,35
 1113 798 1113 798 1097.5 729 c 128,-1,36
 1082 660 1082 660 1050.5 605 c 128,-1,37
 1019 550 1019 550 966.5 515.5 c 128,-1,38
 914 481 914 481 831 481 c 0,0,1
EndSplineSet
EndChar

StartChar: exclamdown
Encoding: 161 161 98
Width: 797
Flags: W
LayerCount: 2
Fore
SplineSet
340 512 m 1,0,-1
 435 512 l 1,1,-1
 375 -409 l 1,2,-1
 76 -409 l 1,3,-1
 340 512 l 1,0,-1
433 961 m 0,4,5
 467 961 467 961 497.5 948 c 128,-1,6
 528 935 528 935 550.5 912.5 c 128,-1,7
 573 890 573 890 586 859.5 c 128,-1,8
 599 829 599 829 599 795 c 0,9,10
 599 760 599 760 586 730 c 128,-1,11
 573 700 573 700 550.5 677.5 c 128,-1,12
 528 655 528 655 497.5 642 c 128,-1,13
 467 629 467 629 433 629 c 0,14,15
 398 629 398 629 368 642 c 128,-1,16
 338 655 338 655 315.5 677.5 c 128,-1,17
 293 700 293 700 280 730 c 128,-1,18
 267 760 267 760 267 795 c 0,19,20
 267 829 267 829 280 859.5 c 128,-1,21
 293 890 293 890 315.5 912.5 c 128,-1,22
 338 935 338 935 368 948 c 128,-1,23
 398 961 398 961 433 961 c 0,4,5
EndSplineSet
EndChar

StartChar: cent
Encoding: 162 162 99
Width: 1024
Flags: W
LayerCount: 2
Fore
SplineSet
883 348 m 1,0,1
 861 329 861 329 830.5 306.5 c 128,-1,2
 800 284 800 284 762.5 262.5 c 128,-1,3
 725 241 725 241 681.5 223 c 128,-1,4
 638 205 638 205 590 195 c 1,5,-1
 556 0 l 1,6,-1
 464 0 l 1,7,-1
 496 185 l 1,8,9
 406 185 406 185 336.5 210.5 c 128,-1,10
 267 236 267 236 219.5 282.5 c 128,-1,11
 172 329 172 329 147.5 393 c 128,-1,12
 123 457 123 457 123 535 c 0,13,14
 123 688 123 688 171 805 c 128,-1,15
 219 922 219 922 296.5 1001.5 c 128,-1,16
 374 1081 374 1081 472 1123.5 c 128,-1,17
 570 1166 570 1166 670 1169 c 1,18,-1
 700 1341 l 1,19,-1
 792 1341 l 1,20,-1
 761 1167 l 1,21,22
 794 1164 794 1164 827.5 1159.5 c 128,-1,23
 861 1155 861 1155 891.5 1149.5 c 128,-1,24
 922 1144 922 1144 948 1137.5 c 128,-1,25
 974 1131 974 1131 992 1125 c 1,26,-1
 943 837 l 1,27,-1
 871 837 l 1,28,-1
 857 1008 l 1,29,30
 817 1053 817 1053 743 1065 c 1,31,-1
 611 311 l 1,32,33
 675 319 675 319 731.5 347.5 c 128,-1,34
 788 376 788 376 839 411 c 1,35,-1
 883 348 l 1,0,1
391 545 m 0,36,37
 391 443 391 443 427.5 385.5 c 128,-1,38
 464 328 464 328 518 312 c 1,39,-1
 651 1065 l 1,40,41
 600 1050 600 1050 553 1005.5 c 128,-1,42
 506 961 506 961 470 893 c 128,-1,43
 434 825 434 825 412.5 736.5 c 128,-1,44
 391 648 391 648 391 545 c 0,36,37
EndSplineSet
EndChar

StartChar: sterling
Encoding: 163 163 100
Width: 1024
Flags: W
LayerCount: 2
Fore
SplineSet
905 203 m 1,0,-1
 868 0 l 1,1,-1
 -5 0 l 1,2,-1
 16 123 l 1,3,4
 61 158 61 158 109.5 194.5 c 128,-1,5
 158 231 158 231 198 274 c 128,-1,6
 238 317 238 317 263.5 369 c 128,-1,7
 289 421 289 421 289 489 c 0,8,9
 289 520 289 520 284 552.5 c 128,-1,10
 279 585 279 585 270 620 c 1,11,-1
 109 620 l 1,12,-1
 127 721 l 1,13,-1
 215 721 l 1,14,15
 204 763 204 763 196.5 807.5 c 128,-1,16
 189 852 189 852 189 902 c 0,17,18
 189 1009 189 1009 222 1093.5 c 128,-1,19
 255 1178 255 1178 321.5 1236.5 c 128,-1,20
 388 1295 388 1295 488 1325.5 c 128,-1,21
 588 1356 588 1356 723 1356 c 0,22,23
 769 1356 769 1356 807.5 1352.5 c 128,-1,24
 846 1349 846 1349 882 1343.5 c 128,-1,25
 918 1338 918 1338 953 1330 c 128,-1,26
 988 1322 988 1322 1026 1313 c 1,27,-1
 972 1008 l 1,28,-1
 885 1008 l 1,29,-1
 876 1202 l 1,30,31
 847 1222 847 1222 807 1238.5 c 128,-1,32
 767 1255 767 1255 710 1255 c 0,33,34
 644 1255 644 1255 594 1225.5 c 128,-1,35
 544 1196 544 1196 510.5 1140 c 128,-1,36
 477 1084 477 1084 459.5 1004 c 128,-1,37
 442 924 442 924 442 822 c 0,38,39
 442 798 442 798 443 770.5 c 128,-1,40
 444 743 444 743 445 721 c 1,41,-1
 707 721 l 1,42,-1
 689 620 l 1,43,-1
 446 620 l 1,44,45
 447 605 447 605 447 586.5 c 128,-1,46
 447 568 447 568 447 551 c 0,47,48
 447 494 447 494 434 442.5 c 128,-1,49
 421 391 421 391 400 347 c 128,-1,50
 379 303 379 303 351.5 266.5 c 128,-1,51
 324 230 324 230 295 203 c 1,52,-1
 905 203 l 1,0,-1
EndSplineSet
EndChar

StartChar: currency
Encoding: 164 164 101
Width: 1024
Flags: W
LayerCount: 2
Fore
SplineSet
750 352 m 1,0,1
 702 318 702 318 645.5 300.5 c 128,-1,2
 589 283 589 283 527 283 c 0,3,4
 464 283 464 283 408 301.5 c 128,-1,5
 352 320 352 320 304 352 c 1,6,-1
 199 248 l 1,7,-1
 99 350 l 1,8,-1
 201 453 l 1,9,10
 169 501 169 501 151.5 557 c 128,-1,11
 134 613 134 613 134 676 c 256,12,13
 134 739 134 739 151.5 795 c 128,-1,14
 169 851 169 851 201 899 c 1,15,-1
 99 1004 l 1,16,-1
 203 1108 l 1,17,-1
 304 1001 l 1,18,19
 352 1033 352 1033 408 1052 c 128,-1,20
 464 1071 464 1071 527 1071 c 0,21,22
 589 1071 589 1071 645.5 1052 c 128,-1,23
 702 1033 702 1033 750 1001 c 1,24,-1
 855 1106 l 1,25,-1
 957 1006 l 1,26,-1
 853 899 l 1,27,28
 885 851 885 851 903.5 794.5 c 128,-1,29
 922 738 922 738 922 676 c 0,30,31
 922 613 922 613 903.5 557 c 128,-1,32
 885 501 885 501 853 453 c 1,33,-1
 957 350 l 1,34,-1
 857 248 l 1,35,-1
 750 352 l 1,0,1
527 932 m 0,36,37
 475 932 475 932 428.5 912 c 128,-1,38
 382 892 382 892 347.5 857 c 128,-1,39
 313 822 313 822 293 775.5 c 128,-1,40
 273 729 273 729 273 676 c 0,41,42
 273 624 273 624 293 577.5 c 128,-1,43
 313 531 313 531 347.5 496.5 c 128,-1,44
 382 462 382 462 428.5 442 c 128,-1,45
 475 422 475 422 527 422 c 0,46,47
 580 422 580 422 626.5 442 c 128,-1,48
 673 462 673 462 708 496.5 c 128,-1,49
 743 531 743 531 763 577.5 c 128,-1,50
 783 624 783 624 783 676 c 0,51,52
 783 729 783 729 763 775.5 c 128,-1,53
 743 822 743 822 708 857 c 128,-1,54
 673 892 673 892 626.5 912 c 128,-1,55
 580 932 580 932 527 932 c 0,36,37
EndSplineSet
EndChar

StartChar: yen
Encoding: 165 165 102
Width: 1024
Flags: W
LayerCount: 2
Fore
SplineSet
131 1275 m 1,0,-1
 143 1341 l 1,1,-1
 616 1341 l 1,2,-1
 604 1275 l 1,3,-1
 488 1249 l 1,4,-1
 597 702 l 1,5,-1
 916 1251 l 1,6,-1
 810 1275 l 1,7,-1
 822 1341 l 1,8,-1
 1153 1341 l 1,9,-1
 1141 1275 l 1,10,-1
 1052 1255 l 1,11,-1
 679 639 l 1,12,-1
 912 639 l 1,13,-1
 894 537 l 1,14,-1
 640 537 l 1,15,-1
 616 399 l 1,16,-1
 870 399 l 1,17,-1
 852 297 l 1,18,-1
 598 297 l 1,19,-1
 561 90 l 1,20,-1
 700 66 l 1,21,-1
 689 0 l 1,22,-1
 135 0 l 1,23,-1
 146 66 l 1,24,-1
 292 90 l 1,25,-1
 329 297 l 1,26,-1
 72 297 l 1,27,-1
 90 399 l 1,28,-1
 347 399 l 1,29,-1
 371 537 l 1,30,-1
 114 537 l 1,31,-1
 132 639 l 1,32,-1
 365 639 l 1,33,-1
 211 1251 l 1,34,-1
 131 1275 l 1,0,-1
EndSplineSet
EndChar

StartChar: brokenbar
Encoding: 166 166 103
Width: 451
Flags: W
LayerCount: 2
Fore
SplineSet
182 801 m 1,0,-1
 182 1421 l 1,1,-1
 324 1421 l 1,2,-1
 324 801 l 1,3,-1
 182 801 l 1,0,-1
182 -442 m 1,4,-1
 182 180 l 1,5,-1
 324 180 l 1,6,-1
 324 -442 l 1,7,-1
 182 -442 l 1,4,-1
EndSplineSet
EndChar

StartChar: section
Encoding: 167 167 104
Width: 1024
Flags: W
LayerCount: 2
Fore
SplineSet
768 57 m 0,0,1
 768 -92 768 -92 660 -173.5 c 128,-1,2
 552 -255 552 -255 334 -255 c 0,3,4
 286 -255 286 -255 238 -249 c 128,-1,5
 190 -243 190 -243 149.5 -234.5 c 128,-1,6
 109 -226 109 -226 79 -217.5 c 128,-1,7
 49 -209 49 -209 37 -204 c 1,8,-1
 83 57 l 1,9,-1
 149 57 l 1,10,-1
 163 -75 l 1,11,12
 176 -90 176 -90 195 -105.5 c 128,-1,13
 214 -121 214 -121 239 -133.5 c 128,-1,14
 264 -146 264 -146 293.5 -154 c 128,-1,15
 323 -162 323 -162 356 -162 c 0,16,17
 401 -162 401 -162 437 -150 c 128,-1,18
 473 -138 473 -138 498.5 -116.5 c 128,-1,19
 524 -95 524 -95 537.5 -65 c 128,-1,20
 551 -35 551 -35 551 0 c 0,21,22
 551 52 551 52 519.5 92 c 128,-1,23
 488 132 488 132 440 166.5 c 128,-1,24
 392 201 392 201 337 235.5 c 128,-1,25
 282 270 282 270 234 312.5 c 128,-1,26
 186 355 186 355 154.5 409 c 128,-1,27
 123 463 123 463 123 538 c 0,28,29
 123 601 123 601 145 652.5 c 128,-1,30
 167 704 167 704 205.5 743.5 c 128,-1,31
 244 783 244 783 296.5 810.5 c 128,-1,32
 349 838 349 838 411 854 c 1,33,34
 382 871 382 871 355 894.5 c 128,-1,35
 328 918 328 918 307 948 c 128,-1,36
 286 978 286 978 273.5 1015 c 128,-1,37
 261 1052 261 1052 261 1096 c 0,38,39
 261 1177 261 1177 292.5 1233 c 128,-1,40
 324 1289 324 1289 378 1324 c 128,-1,41
 432 1359 432 1359 503 1374.5 c 128,-1,42
 574 1390 574 1390 653 1390 c 0,43,44
 723 1390 723 1390 793 1381 c 128,-1,45
 863 1372 863 1372 926 1361 c 1,46,-1
 884 1120 l 1,47,-1
 818 1120 l 1,48,-1
 805 1230 l 1,49,50
 794 1243 794 1243 776 1255 c 128,-1,51
 758 1267 758 1267 735.5 1276 c 128,-1,52
 713 1285 713 1285 687 1290.5 c 128,-1,53
 661 1296 661 1296 636 1296 c 0,54,55
 557 1296 557 1296 515 1259 c 128,-1,56
 473 1222 473 1222 473 1159 c 0,57,58
 473 1121 473 1121 492 1092 c 128,-1,59
 511 1063 511 1063 542 1038.5 c 128,-1,60
 573 1014 573 1014 612.5 992 c 128,-1,61
 652 970 652 970 693.5 947 c 128,-1,62
 735 924 735 924 774.5 898 c 128,-1,63
 814 872 814 872 845 838.5 c 128,-1,64
 876 805 876 805 895 762 c 128,-1,65
 914 719 914 719 914 663 c 0,66,67
 914 599 914 599 893 546 c 128,-1,68
 872 493 872 493 832.5 451 c 128,-1,69
 793 409 793 409 737 378.5 c 128,-1,70
 681 348 681 348 611 329 c 1,71,72
 644 304 644 304 673 275.5 c 128,-1,73
 702 247 702 247 723 214 c 128,-1,74
 744 181 744 181 756 142 c 128,-1,75
 768 103 768 103 768 57 c 0,0,1
514 407 m 1,76,77
 552 415 552 415 585 434 c 128,-1,78
 618 453 618 453 643 479 c 128,-1,79
 668 505 668 505 682 536 c 128,-1,80
 696 567 696 567 696 599 c 0,81,82
 696 633 696 633 681.5 659.5 c 128,-1,83
 667 686 667 686 642.5 707.5 c 128,-1,84
 618 729 618 729 586 746.5 c 128,-1,85
 554 764 554 764 518 781 c 1,86,87
 480 775 480 775 447.5 759 c 128,-1,88
 415 743 415 743 390 720 c 128,-1,89
 365 697 365 697 351 668 c 128,-1,90
 337 639 337 639 337 608 c 0,91,92
 337 574 337 574 351.5 546 c 128,-1,93
 366 518 366 518 390.5 494 c 128,-1,94
 415 470 415 470 447 448.5 c 128,-1,95
 479 427 479 427 514 407 c 1,76,77
EndSplineSet
EndChar

StartChar: dieresis
Encoding: 168 168 105
Width: 682
Flags: W
LayerCount: 2
Fore
SplineSet
640 1130 m 256,0,1
 615 1130 615 1130 593 1140 c 128,-1,2
 571 1150 571 1150 554.5 1166.5 c 128,-1,3
 538 1183 538 1183 528.5 1205 c 128,-1,4
 519 1227 519 1227 519 1251 c 0,5,6
 519 1276 519 1276 528.5 1297.5 c 128,-1,7
 538 1319 538 1319 554.5 1335 c 128,-1,8
 571 1351 571 1351 593 1360.5 c 128,-1,9
 615 1370 615 1370 640 1370 c 256,10,11
 665 1370 665 1370 687 1360.5 c 128,-1,12
 709 1351 709 1351 725 1335 c 128,-1,13
 741 1319 741 1319 750 1297.5 c 128,-1,14
 759 1276 759 1276 759 1251 c 0,15,16
 759 1227 759 1227 750 1205 c 128,-1,17
 741 1183 741 1183 725 1166.5 c 128,-1,18
 709 1150 709 1150 687 1140 c 128,-1,19
 665 1130 665 1130 640 1130 c 256,0,1
284 1130 m 0,20,21
 260 1130 260 1130 238 1140 c 128,-1,22
 216 1150 216 1150 199.5 1166.5 c 128,-1,23
 183 1183 183 1183 173 1205 c 128,-1,24
 163 1227 163 1227 163 1251 c 0,25,26
 163 1276 163 1276 173 1297.5 c 128,-1,27
 183 1319 183 1319 199.5 1335 c 128,-1,28
 216 1351 216 1351 238 1360.5 c 128,-1,29
 260 1370 260 1370 284 1370 c 0,30,31
 309 1370 309 1370 330.5 1360.5 c 128,-1,32
 352 1351 352 1351 368 1335 c 128,-1,33
 384 1319 384 1319 393.5 1297.5 c 128,-1,34
 403 1276 403 1276 403 1251 c 0,35,36
 403 1227 403 1227 394 1205 c 128,-1,37
 385 1183 385 1183 369 1166.5 c 128,-1,38
 353 1150 353 1150 331 1140 c 128,-1,39
 309 1130 309 1130 284 1130 c 0,20,21
EndSplineSet
EndChar

StartChar: copyright
Encoding: 169 169 106
Width: 1530
Flags: W
LayerCount: 2
Fore
SplineSet
87 670 m 0,0,1
 87 766 87 766 111.5 854.5 c 128,-1,2
 136 943 136 943 181 1020 c 128,-1,3
 226 1097 226 1097 288.5 1160 c 128,-1,4
 351 1223 351 1223 428 1268 c 128,-1,5
 505 1313 505 1313 593 1337.5 c 128,-1,6
 681 1362 681 1362 777 1362 c 256,7,8
 873 1362 873 1362 961.5 1337.5 c 128,-1,9
 1050 1313 1050 1313 1127 1268 c 128,-1,10
 1204 1223 1204 1223 1267 1160 c 128,-1,11
 1330 1097 1330 1097 1375 1020 c 128,-1,12
 1420 943 1420 943 1444.5 854.5 c 128,-1,13
 1469 766 1469 766 1469 670 c 256,14,15
 1469 574 1469 574 1444.5 486 c 128,-1,16
 1420 398 1420 398 1375 321 c 128,-1,17
 1330 244 1330 244 1267 181.5 c 128,-1,18
 1204 119 1204 119 1127 74 c 128,-1,19
 1050 29 1050 29 961.5 4.5 c 128,-1,20
 873 -20 873 -20 777 -20 c 0,21,22
 633 -20 633 -20 507.5 34 c 128,-1,23
 382 88 382 88 288.5 181.5 c 128,-1,24
 195 275 195 275 141 400.5 c 128,-1,25
 87 526 87 526 87 670 c 0,0,1
812 254 m 0,26,27
 713 254 713 254 634 282.5 c 128,-1,28
 555 311 555 311 500 364.5 c 128,-1,29
 445 418 445 418 415.5 493.5 c 128,-1,30
 386 569 386 569 386 664 c 0,31,32
 386 772 386 772 415.5 852 c 128,-1,33
 445 932 445 932 500.5 984.5 c 128,-1,34
 556 1037 556 1037 635 1063 c 128,-1,35
 714 1089 714 1089 814 1089 c 0,36,37
 896 1089 896 1089 961.5 1079.5 c 128,-1,38
 1027 1070 1027 1070 1082 1059 c 1,39,-1
 1086 852 l 1,40,-1
 1017 852 l 1,41,-1
 998 957 l 1,42,43
 957 982 957 982 916 995 c 128,-1,44
 875 1008 875 1008 818 1008 c 0,45,46
 752 1008 752 1008 706 989.5 c 128,-1,47
 660 971 660 971 631 930.5 c 128,-1,48
 602 890 602 890 589 824.5 c 128,-1,49
 576 759 576 759 576 666 c 0,50,51
 576 501 576 501 629.5 417.5 c 128,-1,52
 683 334 683 334 812 334 c 0,53,54
 887 334 887 334 931.5 351 c 128,-1,55
 976 368 976 368 1007 393 c 1,56,-1
 1029 512 l 1,57,-1
 1099 512 l 1,58,-1
 1095 293 l 1,59,60
 1069 285 1069 285 1037 278 c 128,-1,61
 1005 271 1005 271 968 265.5 c 128,-1,62
 931 260 931 260 891.5 257 c 128,-1,63
 852 254 852 254 812 254 c 0,26,27
777 1278 m 0,64,65
 652 1278 652 1278 542.5 1230 c 128,-1,66
 433 1182 433 1182 352 1099.5 c 128,-1,67
 271 1017 271 1017 224 906.5 c 128,-1,68
 177 796 177 796 177 670 c 256,69,70
 177 544 177 544 224 433.5 c 128,-1,71
 271 323 271 323 352 240.5 c 128,-1,72
 433 158 433 158 542.5 110.5 c 128,-1,73
 652 63 652 63 777 63 c 0,74,75
 901 63 901 63 1011 110.5 c 128,-1,76
 1121 158 1121 158 1202.5 240.5 c 128,-1,77
 1284 323 1284 323 1331.5 433.5 c 128,-1,78
 1379 544 1379 544 1379 670 c 0,79,80
 1379 754 1379 754 1357.5 831.5 c 128,-1,81
 1336 909 1336 909 1296.5 977 c 128,-1,82
 1257 1045 1257 1045 1202.5 1100 c 128,-1,83
 1148 1155 1148 1155 1081 1195 c 128,-1,84
 1014 1235 1014 1235 937 1256.5 c 128,-1,85
 860 1278 860 1278 777 1278 c 0,64,65
EndSplineSet
EndChar

StartChar: ordfeminine
Encoding: 170 170 107
Width: 545
Flags: W
LayerCount: 2
Fore
SplineSet
584 846 m 1,0,-1
 638 831 l 1,1,-1
 628 782 l 1,2,-1
 425 782 l 1,3,-1
 427 826 l 1,4,5
 397 804 397 804 355.5 785.5 c 128,-1,6
 314 767 314 767 254 767 c 0,7,8
 219 767 219 767 188.5 782 c 128,-1,9
 158 797 158 797 135.5 825 c 128,-1,10
 113 853 113 853 100.5 893 c 128,-1,11
 88 933 88 933 88 983 c 0,12,13
 88 1058 88 1058 112.5 1127 c 128,-1,14
 137 1196 137 1196 184 1248 c 128,-1,15
 231 1300 231 1300 299.5 1331 c 128,-1,16
 368 1362 368 1362 457 1362 c 0,17,18
 503 1362 503 1362 536 1352.5 c 128,-1,19
 569 1343 569 1343 587 1336 c 1,20,-1
 593 1339 l 2,21,22
 596 1341 596 1341 599 1342.5 c 128,-1,23
 602 1344 602 1344 606 1346 c 0,24,25
 614 1350 614 1350 625 1357 c 1,26,-1
 675 1357 l 1,27,-1
 584 846 l 1,0,-1
495 1278 m 1,28,29
 481 1284 481 1284 462 1288.5 c 128,-1,30
 443 1293 443 1293 423 1293 c 0,31,32
 378 1293 378 1293 345.5 1266 c 128,-1,33
 313 1239 313 1239 291 1195.5 c 128,-1,34
 269 1152 269 1152 258.5 1098.5 c 128,-1,35
 248 1045 248 1045 248 992 c 0,36,37
 248 921 248 921 267 887 c 128,-1,38
 286 853 286 853 320 853 c 0,39,40
 343 853 343 853 371.5 863 c 128,-1,41
 400 873 400 873 427 890 c 1,42,-1
 495 1278 l 1,28,29
EndSplineSet
EndChar

StartChar: guillemotleft
Encoding: 171 171 108
Width: 1024
Flags: W
LayerCount: 2
Fore
SplineSet
92 496 m 1,0,-1
 475 852 l 1,1,-1
 576 852 l 1,2,-1
 314 463 l 1,3,-1
 439 74 l 1,4,-1
 338 74 l 1,5,-1
 80 430 l 1,6,-1
 92 496 l 1,0,-1
502 496 m 1,7,-1
 885 852 l 1,8,-1
 985 852 l 1,9,-1
 724 463 l 1,10,-1
 848 74 l 1,11,-1
 748 74 l 1,12,-1
 490 430 l 1,13,-1
 502 496 l 1,7,-1
EndSplineSet
EndChar

StartChar: logicalnot
Encoding: 172 172 109
Width: 1241
Flags: W
LayerCount: 2
Fore
SplineSet
1067 752 m 1,0,-1
 1067 203 l 1,1,-1
 925 203 l 1,2,-1
 925 608 l 1,3,-1
 114 608 l 1,4,-1
 114 752 l 1,5,-1
 1067 752 l 1,0,-1
EndSplineSet
EndChar

StartChar: registered
Encoding: 174 174 110
Width: 1530
Flags: W
LayerCount: 2
Fore
SplineSet
1469 670 m 256,0,1
 1469 574 1469 574 1444.5 486 c 128,-1,2
 1420 398 1420 398 1375 321 c 128,-1,3
 1330 244 1330 244 1267 181.5 c 128,-1,4
 1204 119 1204 119 1127 74 c 128,-1,5
 1050 29 1050 29 961.5 4.5 c 128,-1,6
 873 -20 873 -20 777 -20 c 0,7,8
 633 -20 633 -20 507.5 34 c 128,-1,9
 382 88 382 88 288.5 181.5 c 128,-1,10
 195 275 195 275 141 400.5 c 128,-1,11
 87 526 87 526 87 670 c 0,12,13
 87 766 87 766 111.5 854.5 c 128,-1,14
 136 943 136 943 181 1020 c 128,-1,15
 226 1097 226 1097 288.5 1160 c 128,-1,16
 351 1223 351 1223 428 1268 c 128,-1,17
 505 1313 505 1313 593 1337.5 c 128,-1,18
 681 1362 681 1362 777 1362 c 256,19,20
 873 1362 873 1362 961.5 1337.5 c 128,-1,21
 1050 1313 1050 1313 1127 1268 c 128,-1,22
 1204 1223 1204 1223 1267 1160 c 128,-1,23
 1330 1097 1330 1097 1375 1020 c 128,-1,24
 1420 943 1420 943 1444.5 854.5 c 128,-1,25
 1469 766 1469 766 1469 670 c 256,0,1
966 276 m 1,26,-1
 736 619 l 1,27,-1
 687 619 l 1,28,-1
 687 350 l 1,29,-1
 781 334 l 1,30,-1
 781 276 l 1,31,-1
 435 276 l 1,32,-1
 435 334 l 1,33,-1
 511 350 l 1,34,-1
 511 1010 l 1,35,-1
 427 1026 l 1,36,-1
 427 1081 l 1,37,-1
 777 1081 l 2,38,39
 861 1081 861 1081 920.5 1065 c 128,-1,40
 980 1049 980 1049 1018.5 1019.5 c 128,-1,41
 1057 990 1057 990 1075 949.5 c 128,-1,42
 1093 909 1093 909 1093 860 c 0,43,44
 1093 783 1093 783 1047.5 725 c 128,-1,45
 1002 667 1002 667 914 639 c 1,46,-1
 1121 350 l 1,47,-1
 1191 334 l 1,48,-1
 1191 276 l 1,49,-1
 966 276 l 1,26,-1
910 858 m 0,50,51
 910 906 910 906 897 935 c 128,-1,52
 884 964 884 964 858.5 979.5 c 128,-1,53
 833 995 833 995 795 1000.5 c 128,-1,54
 757 1006 757 1006 706 1006 c 2,55,-1
 687 1006 l 1,56,-1
 687 694 l 1,57,-1
 710 694 l 2,58,59
 814 694 814 694 862 730 c 128,-1,60
 910 766 910 766 910 858 c 0,50,51
777 1278 m 0,61,62
 652 1278 652 1278 542.5 1230 c 128,-1,63
 433 1182 433 1182 352 1099.5 c 128,-1,64
 271 1017 271 1017 224 906.5 c 128,-1,65
 177 796 177 796 177 670 c 256,66,67
 177 544 177 544 224 433.5 c 128,-1,68
 271 323 271 323 352 240.5 c 128,-1,69
 433 158 433 158 542.5 110.5 c 128,-1,70
 652 63 652 63 777 63 c 0,71,72
 901 63 901 63 1011 110.5 c 128,-1,73
 1121 158 1121 158 1202.5 240.5 c 128,-1,74
 1284 323 1284 323 1331.5 433.5 c 128,-1,75
 1379 544 1379 544 1379 670 c 0,76,77
 1379 754 1379 754 1357.5 831.5 c 128,-1,78
 1336 909 1336 909 1296.5 977 c 128,-1,79
 1257 1045 1257 1045 1202.5 1100 c 128,-1,80
 1148 1155 1148 1155 1081 1195 c 128,-1,81
 1014 1235 1014 1235 937 1256.5 c 128,-1,82
 860 1278 860 1278 777 1278 c 0,61,62
EndSplineSet
EndChar

StartChar: macron
Encoding: 175 175 111
Width: 1024
Flags: W
LayerCount: 2
Fore
SplineSet
1196 1452 m 1,0,-1
 137 1452 l 1,1,-1
 137 1546 l 1,2,-1
 1196 1546 l 1,3,-1
 1196 1452 l 1,0,-1
EndSplineSet
EndChar

StartChar: degree
Encoding: 176 176 112
Width: 819
Flags: W
LayerCount: 2
Fore
SplineSet
184 1051 m 0,0,1
 184 1115 184 1115 208 1172 c 128,-1,2
 232 1229 232 1229 274 1271 c 128,-1,3
 316 1313 316 1313 372.5 1337.5 c 128,-1,4
 429 1362 429 1362 494 1362 c 0,5,6
 558 1362 558 1362 615 1337.5 c 128,-1,7
 672 1313 672 1313 714 1271 c 128,-1,8
 756 1229 756 1229 780.5 1172 c 128,-1,9
 805 1115 805 1115 805 1051 c 0,10,11
 805 986 805 986 780.5 929.5 c 128,-1,12
 756 873 756 873 714 831 c 128,-1,13
 672 789 672 789 615 765 c 128,-1,14
 558 741 558 741 494 741 c 0,15,16
 429 741 429 741 372.5 765 c 128,-1,17
 316 789 316 789 274 831 c 128,-1,18
 232 873 232 873 208 929.5 c 128,-1,19
 184 986 184 986 184 1051 c 0,0,1
493 1250 m 0,20,21
 453 1250 453 1250 418 1234.5 c 128,-1,22
 383 1219 383 1219 357.5 1192 c 128,-1,23
 332 1165 332 1165 317.5 1128.5 c 128,-1,24
 303 1092 303 1092 303 1049 c 0,25,26
 303 1008 303 1008 317.5 972 c 128,-1,27
 332 936 332 936 357.5 909 c 128,-1,28
 383 882 383 882 418 866 c 128,-1,29
 453 850 453 850 493 850 c 0,30,31
 535 850 535 850 570 866 c 128,-1,32
 605 882 605 882 630.5 909 c 128,-1,33
 656 936 656 936 670.5 972 c 128,-1,34
 685 1008 685 1008 685 1049 c 0,35,36
 685 1092 685 1092 670.5 1128.5 c 128,-1,37
 656 1165 656 1165 630.5 1192 c 128,-1,38
 605 1219 605 1219 570 1234.5 c 128,-1,39
 535 1250 535 1250 493 1250 c 0,20,21
EndSplineSet
EndChar

StartChar: plusminus
Encoding: 177 177 113
Width: 1124
Flags: W
LayerCount: 2
Fore
SplineSet
632 608 m 1,0,-1
 632 203 l 1,1,-1
 489 203 l 1,2,-1
 489 608 l 1,3,-1
 85 608 l 1,4,-1
 85 752 l 1,5,-1
 489 752 l 1,6,-1
 489 1157 l 1,7,-1
 632 1157 l 1,8,-1
 632 752 l 1,9,-1
 1038 752 l 1,10,-1
 1038 608 l 1,11,-1
 632 608 l 1,0,-1
1038 141 m 1,12,-1
 1038 0 l 1,13,-1
 85 0 l 1,14,-1
 85 141 l 1,15,-1
 1038 141 l 1,12,-1
EndSplineSet
EndChar

StartChar: uni00B2
Encoding: 178 178 114
Width: 614
Flags: W
LayerCount: 2
Fore
SplineSet
550 535 m 1,0,-1
 40 535 l 1,1,-1
 60 649 l 1,2,3
 149 718 149 718 223.5 782 c 128,-1,4
 298 846 298 846 351.5 908.5 c 128,-1,5
 405 971 405 971 435 1033 c 128,-1,6
 465 1095 465 1095 465 1161 c 0,7,8
 465 1213 465 1213 442.5 1245.5 c 128,-1,9
 420 1278 420 1278 375 1278 c 0,10,11
 347 1278 347 1278 323 1269.5 c 128,-1,12
 299 1261 299 1261 280 1247 c 1,13,-1
 234 1131 l 1,14,-1
 172 1131 l 1,15,-1
 205 1323 l 1,16,17
 253 1334 253 1334 302.5 1342 c 128,-1,18
 352 1350 352 1350 404 1350 c 0,19,20
 522 1350 522 1350 585.5 1299 c 128,-1,21
 649 1248 649 1248 649 1161 c 0,22,23
 649 1090 649 1090 614.5 1028.5 c 128,-1,24
 580 967 580 967 521 909.5 c 128,-1,25
 462 852 462 852 382 795 c 128,-1,26
 302 738 302 738 212 677 c 1,27,-1
 575 677 l 1,28,-1
 550 535 l 1,0,-1
EndSplineSet
EndChar

StartChar: uni00B3
Encoding: 179 179 115
Width: 614
Flags: W
LayerCount: 2
Fore
SplineSet
259 522 m 0,0,1
 200 522 200 522 142 530 c 128,-1,2
 84 538 84 538 41 549 c 1,3,-1
 68 752 l 1,4,-1
 133 752 l 1,5,-1
 142 620 l 1,6,7
 159 610 159 610 187.5 602.5 c 128,-1,8
 216 595 216 595 249 595 c 0,9,10
 342 595 342 595 385 645 c 128,-1,11
 428 695 428 695 428 784 c 0,12,13
 428 845 428 845 397 874.5 c 128,-1,14
 366 904 366 904 317 908 c 2,15,-1
 249 914 l 1,16,-1
 263 997 l 1,17,-1
 326 1001 l 2,18,19
 386 1004 386 1004 422 1044.5 c 128,-1,20
 458 1085 458 1085 458 1174 c 0,21,22
 458 1223 458 1223 434 1249.5 c 128,-1,23
 410 1276 410 1276 367 1276 c 0,24,25
 338 1276 338 1276 315 1269 c 128,-1,26
 292 1262 292 1262 271 1249 c 1,27,-1
 224 1130 l 1,28,-1
 162 1130 l 1,29,-1
 196 1323 l 1,30,31
 240 1334 240 1334 285.5 1342 c 128,-1,32
 331 1350 331 1350 393 1350 c 0,33,34
 449 1350 449 1350 494.5 1338 c 128,-1,35
 540 1326 540 1326 572.5 1303.5 c 128,-1,36
 605 1281 605 1281 622.5 1248.5 c 128,-1,37
 640 1216 640 1216 640 1176 c 0,38,39
 640 1079 640 1079 585.5 1025.5 c 128,-1,40
 531 972 531 972 438 956 c 1,41,42
 521 945 521 945 563.5 901.5 c 128,-1,43
 606 858 606 858 606 788 c 0,44,45
 606 734 606 734 584.5 685.5 c 128,-1,46
 563 637 563 637 520 600.5 c 128,-1,47
 477 564 477 564 411.5 543 c 128,-1,48
 346 522 346 522 259 522 c 0,0,1
EndSplineSet
EndChar

StartChar: acute
Encoding: 180 180 116
Width: 682
Flags: W
LayerCount: 2
Fore
SplineSet
253 1118 m 1,0,-1
 259 1151 l 1,1,-1
 455 1423 l 1,2,-1
 740 1423 l 1,3,-1
 736 1386 l 1,4,-1
 339 1118 l 1,5,-1
 253 1118 l 1,0,-1
EndSplineSet
EndChar

StartChar: uni00B5
Encoding: 181 181 117
Width: 1180
Flags: W
LayerCount: 2
Fore
SplineSet
105 874 m 1,0,-1
 118 940 l 1,1,-1
 504 940 l 1,2,-1
 402 371 l 2,3,4
 398 350 398 350 394 327 c 128,-1,5
 390 304 390 304 387 283 c 128,-1,6
 384 262 384 262 382 244 c 128,-1,7
 380 226 380 226 380 215 c 0,8,9
 380 118 380 118 471 118 c 0,10,11
 505 118 505 118 543 138.5 c 128,-1,12
 581 159 581 159 617 191.5 c 128,-1,13
 653 224 653 224 683 264.5 c 128,-1,14
 713 305 713 305 730 346 c 1,15,-1
 836 940 l 1,16,-1
 1102 940 l 1,17,-1
 954 91 l 1,18,-1
 1043 66 l 1,19,-1
 1030 0 l 1,20,-1
 701 0 l 1,21,-1
 704 175 l 1,22,23
 683 144 683 144 653 110 c 128,-1,24
 623 76 623 76 588 47 c 128,-1,25
 553 18 553 18 515.5 -1 c 128,-1,26
 478 -20 478 -20 444 -20 c 0,27,28
 406 -20 406 -20 378 -8.5 c 128,-1,29
 350 3 350 3 333 29 c 1,30,31
 322 -33 322 -33 308.5 -95.5 c 128,-1,32
 295 -158 295 -158 280 -217.5 c 128,-1,33
 265 -277 265 -277 249 -332.5 c 128,-1,34
 233 -388 233 -388 217 -436 c 1,35,-1
 -57 -436 l 1,36,-1
 -49 -391 l 1,37,38
 -40 -372 -40 -372 -23.5 -329 c 128,-1,39
 -7 -286 -7 -286 11.5 -225.5 c 128,-1,40
 30 -165 30 -165 49 -90 c 128,-1,41
 68 -15 68 -15 83 69 c 2,42,-1
 221 850 l 1,43,-1
 105 874 l 1,0,-1
EndSplineSet
EndChar

StartChar: paragraph
Encoding: 182 182 118
Width: 1024
Flags: W
LayerCount: 2
Fore
SplineSet
874 1245 m 1,0,-1
 874 -258 l 1,1,-1
 734 -258 l 1,2,-1
 734 1245 l 1,3,-1
 599 1245 l 1,4,-1
 599 -258 l 1,5,-1
 459 -258 l 1,6,-1
 459 545 l 1,7,8
 372 548 372 548 294.5 574.5 c 128,-1,9
 217 601 217 601 159.5 651 c 128,-1,10
 102 701 102 701 68.5 776 c 128,-1,11
 35 851 35 851 35 952 c 0,12,13
 35 1042 35 1042 62.5 1114 c 128,-1,14
 90 1186 90 1186 144.5 1236.5 c 128,-1,15
 199 1287 199 1287 280.5 1314 c 128,-1,16
 362 1341 362 1341 469 1341 c 2,17,-1
 957 1341 l 1,18,-1
 957 1268 l 1,19,-1
 874 1245 l 1,0,-1
EndSplineSet
EndChar

StartChar: uni2219
Encoding: 8729 8729 119
AltUni2: 0000b7.ffffffff.0 0000b7.ffffffff.0
Width: 512
Flags: W
LayerCount: 2
Fore
SplineSet
270 511 m 0,0,1
 235 511 235 511 205 524 c 128,-1,2
 175 537 175 537 152.5 559.5 c 128,-1,3
 130 582 130 582 117 612 c 128,-1,4
 104 642 104 642 104 677 c 0,5,6
 104 711 104 711 117 741.5 c 128,-1,7
 130 772 130 772 152.5 794.5 c 128,-1,8
 175 817 175 817 205 830 c 128,-1,9
 235 843 235 843 270 843 c 0,10,11
 304 843 304 843 334.5 830 c 128,-1,12
 365 817 365 817 387.5 794.5 c 128,-1,13
 410 772 410 772 423 741.5 c 128,-1,14
 436 711 436 711 436 677 c 0,15,16
 436 642 436 642 423 612 c 128,-1,17
 410 582 410 582 387.5 559.5 c 128,-1,18
 365 537 365 537 334.5 524 c 128,-1,19
 304 511 304 511 270 511 c 0,0,1
EndSplineSet
EndChar

StartChar: cedilla
Encoding: 184 184 120
Width: 682
Flags: W
LayerCount: 2
Fore
SplineSet
93 -432 m 0,0,1
 61 -432 61 -432 21.5 -425.5 c 128,-1,2
 -18 -419 -18 -419 -56 -403 c 1,3,-1
 -19 -306 l 1,4,5
 13 -317 13 -317 40 -321 c 128,-1,6
 67 -325 67 -325 84 -325 c 0,7,8
 112 -325 112 -325 132 -317 c 128,-1,9
 152 -309 152 -309 165.5 -296.5 c 128,-1,10
 179 -284 179 -284 185.5 -267.5 c 128,-1,11
 192 -251 192 -251 192 -233 c 0,12,13
 192 -198 192 -198 169.5 -175 c 128,-1,14
 147 -152 147 -152 86 -148 c 1,15,-1
 172 47 l 1,16,-1
 263 47 l 1,17,-1
 220 -63 l 1,18,19
 256 -68 256 -68 287 -80 c 128,-1,20
 318 -92 318 -92 340.5 -111 c 128,-1,21
 363 -130 363 -130 376 -156 c 128,-1,22
 389 -182 389 -182 389 -216 c 0,23,24
 389 -270 389 -270 364.5 -310.5 c 128,-1,25
 340 -351 340 -351 298.5 -378 c 128,-1,26
 257 -405 257 -405 203.5 -418.5 c 128,-1,27
 150 -432 150 -432 93 -432 c 0,0,1
EndSplineSet
EndChar

StartChar: uni00B9
Encoding: 185 185 121
Width: 614
Flags: W
LayerCount: 2
Fore
SplineSet
406 616 m 1,0,-1
 544 602 l 1,1,-1
 532 535 l 1,2,-1
 75 535 l 1,3,-1
 87 602 l 1,4,-1
 228 616 l 1,5,-1
 329 1188 l 1,6,-1
 183 1147 l 1,7,-1
 194 1213 l 1,8,-1
 445 1347 l 1,9,-1
 535 1347 l 1,10,-1
 406 616 l 1,0,-1
EndSplineSet
EndChar

StartChar: ordmasculine
Encoding: 186 186 122
Width: 614
Flags: W
LayerCount: 2
Fore
SplineSet
364 840 m 0,0,1
 406 840 406 840 436 873.5 c 128,-1,2
 466 907 466 907 485.5 957 c 128,-1,3
 505 1007 505 1007 514.5 1063.5 c 128,-1,4
 524 1120 524 1120 524 1167 c 0,5,6
 524 1231 524 1231 502.5 1260.5 c 128,-1,7
 481 1290 481 1290 439 1290 c 0,8,9
 411 1290 411 1290 388.5 1274 c 128,-1,10
 366 1258 366 1258 349 1231.5 c 128,-1,11
 332 1205 332 1205 319.5 1171 c 128,-1,12
 307 1137 307 1137 299 1100 c 128,-1,13
 291 1063 291 1063 287.5 1026.5 c 128,-1,14
 284 990 284 990 284 959 c 0,15,16
 284 840 284 840 364 840 c 0,0,1
351 770 m 0,17,18
 301 770 301 770 259.5 786.5 c 128,-1,19
 218 803 218 803 188 833.5 c 128,-1,20
 158 864 158 864 141.5 908 c 128,-1,21
 125 952 125 952 125 1007 c 0,22,23
 125 1077 125 1077 148 1141.5 c 128,-1,24
 171 1206 171 1206 214 1255 c 128,-1,25
 257 1304 257 1304 318.5 1333 c 128,-1,26
 380 1362 380 1362 457 1362 c 0,27,28
 507 1362 507 1362 548.5 1345.5 c 128,-1,29
 590 1329 590 1329 620 1298.5 c 128,-1,30
 650 1268 650 1268 666.5 1224 c 128,-1,31
 683 1180 683 1180 683 1125 c 0,32,33
 683 1054 683 1054 660 990 c 128,-1,34
 637 926 637 926 594 877 c 128,-1,35
 551 828 551 828 489.5 799 c 128,-1,36
 428 770 428 770 351 770 c 0,17,18
EndSplineSet
EndChar

StartChar: guillemotright
Encoding: 187 187 123
Width: 1024
Flags: W
LayerCount: 2
Fore
SplineSet
890 430 m 1,0,-1
 508 74 l 1,1,-1
 407 74 l 1,2,-1
 668 463 l 1,3,-1
 544 852 l 1,4,-1
 645 852 l 1,5,-1
 902 496 l 1,6,-1
 890 430 l 1,0,-1
480 430 m 1,7,-1
 98 74 l 1,8,-1
 -2 74 l 1,9,-1
 258 463 l 1,10,-1
 135 852 l 1,11,-1
 235 852 l 1,12,-1
 492 496 l 1,13,-1
 480 430 l 1,7,-1
EndSplineSet
EndChar

StartChar: questiondown
Encoding: 191 191 127
Width: 1024
Flags: W
LayerCount: 2
Fore
SplineSet
318 -123 m 0,0,1
 318 -218 318 -218 361.5 -272 c 128,-1,2
 405 -326 405 -326 507 -326 c 0,3,4
 545 -326 545 -326 586.5 -312.5 c 128,-1,5
 628 -299 628 -299 654 -279 c 1,6,-1
 719 -85 l 1,7,-1
 808 -85 l 1,8,-1
 768 -380 l 1,9,10
 699 -401 699 -401 619 -414.5 c 128,-1,11
 539 -428 539 -428 456 -428 c 0,12,13
 250 -428 250 -428 149 -349.5 c 128,-1,14
 48 -271 48 -271 48 -127 c 0,15,16
 48 44 48 44 133 153 c 128,-1,17
 218 262 218 262 410 312 c 2,18,-1
 501 336 l 1,19,-1
 564 538 l 1,20,-1
 667 538 l 1,21,-1
 669 225 l 1,22,-1
 569 200 l 2,23,24
 506 184 506 184 459 159 c 128,-1,25
 412 134 412 134 380.5 96 c 128,-1,26
 349 58 349 58 333.5 4 c 128,-1,27
 318 -50 318 -50 318 -123 c 0,0,1
648 957 m 256,28,29
 683 957 683 957 713.5 944 c 128,-1,30
 744 931 744 931 766 908.5 c 128,-1,31
 788 886 788 886 800.5 855.5 c 128,-1,32
 813 825 813 825 813 791 c 0,33,34
 813 756 813 756 800.5 726 c 128,-1,35
 788 696 788 696 766 673.5 c 128,-1,36
 744 651 744 651 713.5 638 c 128,-1,37
 683 625 683 625 648 625 c 256,38,39
 613 625 613 625 583 638 c 128,-1,40
 553 651 553 651 530.5 673.5 c 128,-1,41
 508 696 508 696 495 726 c 128,-1,42
 482 756 482 756 482 791 c 0,43,44
 482 825 482 825 495 855.5 c 128,-1,45
 508 886 508 886 530.5 908.5 c 128,-1,46
 553 931 553 931 583 944 c 128,-1,47
 613 957 613 957 648 957 c 256,28,29
EndSplineSet
EndChar

StartChar: AE
Encoding: 198 198 134
Width: 1933
Flags: W
LayerCount: 2
Fore
SplineSet
828 1252 m 1,0,-1
 687 1270 l 1,1,-1
 699 1341 l 1,2,-1
 1840 1341 l 1,3,-1
 1780 1000 l 1,4,-1
 1689 1000 l 1,5,-1
 1695 1217 l 1,6,7
 1664 1221 1664 1221 1628 1224 c 128,-1,8
 1592 1227 1592 1227 1557 1228.5 c 128,-1,9
 1522 1230 1522 1230 1489.5 1230.5 c 128,-1,10
 1457 1231 1457 1231 1434 1231 c 2,11,-1
 1234 1231 l 1,12,-1
 1147 739 l 1,13,-1
 1430 739 l 1,14,-1
 1487 887 l 1,15,-1
 1576 887 l 1,16,-1
 1503 475 l 1,17,-1
 1414 475 l 1,18,-1
 1410 627 l 1,19,-1
 1127 627 l 1,20,-1
 1036 110 l 1,21,-1
 1281 110 l 2,22,23
 1343 110 1343 110 1389 111.5 c 128,-1,24
 1435 113 1435 113 1468 115 c 128,-1,25
 1501 117 1501 117 1523.5 120 c 128,-1,26
 1546 123 1546 123 1562 126 c 1,27,-1
 1662 374 l 1,28,-1
 1753 374 l 1,29,-1
 1669 0 l 1,30,-1
 550 0 l 1,31,-1
 562 73 l 1,32,-1
 739 100 l 1,33,-1
 800 447 l 1,34,-1
 388 447 l 1,35,-1
 134 100 l 1,36,-1
 283 73 l 1,37,-1
 271 0 l 1,38,-1
 -161 0 l 1,39,-1
 -149 73 l 1,40,-1
 -24 100 l 1,41,-1
 828 1252 l 1,0,-1
820 557 m 1,42,-1
 932 1198 l 1,43,-1
 469 557 l 1,44,-1
 820 557 l 1,42,-1
EndSplineSet
EndChar

StartChar: Eth
Encoding: 208 208 144
Width: 1479
Flags: W
LayerCount: 2
Fore
SplineSet
1431 788 m 0,0,1
 1431 609 1431 609 1374 463 c 128,-1,2
 1317 317 1317 317 1209.5 213 c 128,-1,3
 1102 109 1102 109 947.5 52.5 c 128,-1,4
 793 -4 793 -4 599 -4 c 0,5,6
 481 -4 481 -4 371 -2 c 128,-1,7
 261 0 261 0 180 0 c 2,8,-1
 -15 0 l 1,9,-1
 -3 73 l 1,10,-1
 174 100 l 1,11,-1
 263 609 l 1,12,-1
 91 609 l 1,13,-1
 113 731 l 1,14,-1
 285 731 l 1,15,-1
 375 1242 l 1,16,-1
 208 1268 l 1,17,-1
 221 1341 l 1,18,-1
 742 1341 l 2,19,20
 910 1341 910 1341 1038.5 1305 c 128,-1,21
 1167 1269 1167 1269 1254 1198.5 c 128,-1,22
 1341 1128 1341 1128 1386 1025 c 128,-1,23
 1431 922 1431 922 1431 788 c 0,0,1
1120 774 m 0,24,25
 1120 899 1120 899 1090 986 c 128,-1,26
 1060 1073 1060 1073 1005.5 1127.5 c 128,-1,27
 951 1182 951 1182 874.5 1206.5 c 128,-1,28
 798 1231 798 1231 705 1231 c 2,29,-1
 668 1231 l 1,30,-1
 580 731 l 1,31,-1
 837 731 l 1,32,-1
 816 609 l 1,33,-1
 558 609 l 1,34,-1
 471 114 l 1,35,36
 503 111 503 111 532.5 108.5 c 128,-1,37
 562 106 562 106 595 106 c 0,38,39
 720 106 720 106 817.5 153.5 c 128,-1,40
 915 201 915 201 982.5 288.5 c 128,-1,41
 1050 376 1050 376 1085 499 c 128,-1,42
 1120 622 1120 622 1120 774 c 0,24,25
EndSplineSet
EndChar

StartChar: multiply
Encoding: 215 215 151
Width: 1167
Flags: W
LayerCount: 2
Fore
SplineSet
606 578 m 1,0,-1
 281 254 l 1,1,-1
 180 356 l 1,2,-1
 504 682 l 1,3,-1
 180 1004 l 1,4,-1
 284 1108 l 1,5,-1
 606 784 l 1,6,-1
 932 1108 l 1,7,-1
 1033 1006 l 1,8,-1
 709 682 l 1,9,-1
 1033 356 l 1,10,-1
 932 254 l 1,11,-1
 606 578 l 1,0,-1
EndSplineSet
EndChar

StartChar: Oslash
Encoding: 216 216 152
Width: 1479
Flags: W
LayerCount: 2
Fore
SplineSet
639 -20 m 0,0,1
 525 -20 525 -20 431 11.5 c 128,-1,2
 337 43 337 43 265 100 c 1,3,-1
 110 -55 l 1,4,-1
 -39 -55 l 1,5,-1
 190 174 l 1,6,7
 133 244 133 244 103.5 332.5 c 128,-1,8
 74 421 74 421 74 524 c 0,9,10
 74 637 74 637 96.5 742.5 c 128,-1,11
 119 848 119 848 163.5 940.5 c 128,-1,12
 208 1033 208 1033 274.5 1109.5 c 128,-1,13
 341 1186 341 1186 427.5 1240.5 c 128,-1,14
 514 1295 514 1295 621.5 1325.5 c 128,-1,15
 729 1356 729 1356 856 1356 c 0,16,17
 975 1356 975 1356 1072.5 1321.5 c 128,-1,18
 1170 1287 1170 1287 1243 1224 c 1,19,-1
 1410 1391 l 1,20,-1
 1555 1391 l 1,21,-1
 1314 1149 l 1,22,23
 1366 1081 1366 1081 1393.5 996 c 128,-1,24
 1421 911 1421 911 1421 812 c 0,25,26
 1421 715 1421 715 1402 615.5 c 128,-1,27
 1383 516 1383 516 1343 423.5 c 128,-1,28
 1303 331 1303 331 1241 250 c 128,-1,29
 1179 169 1179 169 1092 109 c 128,-1,30
 1005 49 1005 49 892.5 14.5 c 128,-1,31
 780 -20 780 -20 639 -20 c 0,0,1
375 485 m 0,32,33
 375 453 375 453 376.5 423.5 c 128,-1,34
 378 394 378 394 383 367 c 1,35,-1
 1083 1065 l 1,36,37
 1049 1153 1049 1153 986 1202 c 128,-1,38
 923 1251 923 1251 832 1251 c 0,39,40
 755 1251 755 1251 691 1214.5 c 128,-1,41
 627 1178 627 1178 576 1117.5 c 128,-1,42
 525 1057 525 1057 487.5 978.5 c 128,-1,43
 450 900 450 900 425 815 c 128,-1,44
 400 730 400 730 387.5 644.5 c 128,-1,45
 375 559 375 559 375 485 c 0,32,33
1120 843 m 0,46,47
 1120 871 1120 871 1118 897 c 128,-1,48
 1116 923 1116 923 1113 948 c 1,49,-1
 416 251 l 1,50,51
 450 171 450 171 510 127 c 128,-1,52
 570 83 570 83 657 83 c 0,53,54
 735 83 735 83 799.5 118.5 c 128,-1,55
 864 154 864 154 915.5 214 c 128,-1,56
 967 274 967 274 1005.5 352 c 128,-1,57
 1044 430 1044 430 1069.5 514 c 128,-1,58
 1095 598 1095 598 1107.5 683.5 c 128,-1,59
 1120 769 1120 769 1120 843 c 0,46,47
EndSplineSet
EndChar

StartChar: Thorn
Encoding: 222 222 158
Width: 1251
Flags: W
LayerCount: 2
Fore
SplineSet
564 378 m 2,0,1
 909 378 909 378 909 715 c 0,2,3
 909 847 909 847 848.5 910 c 128,-1,4
 788 973 788 973 665 973 c 2,5,-1
 623 973 l 1,6,-1
 518 378 l 1,7,-1
 564 378 l 2,0,1
751 1083 m 2,8,9
 870 1083 870 1083 955.5 1057 c 128,-1,10
 1041 1031 1041 1031 1095.5 984.5 c 128,-1,11
 1150 938 1150 938 1176 872.5 c 128,-1,12
 1202 807 1202 807 1202 728 c 0,13,14
 1202 628 1202 628 1170.5 543.5 c 128,-1,15
 1139 459 1139 459 1071 398 c 128,-1,16
 1003 337 1003 337 897 302.5 c 128,-1,17
 791 268 791 268 643 268 c 2,18,-1
 498 268 l 1,19,-1
 469 100 l 1,20,-1
 637 74 l 1,21,-1
 624 0 l 1,22,-1
 -15 0 l 1,23,-1
 -2 74 l 1,24,-1
 174 100 l 1,25,-1
 375 1241 l 1,26,-1
 208 1268 l 1,27,-1
 221 1341 l 1,28,-1
 860 1341 l 1,29,-1
 847 1268 l 1,30,-1
 670 1241 l 1,31,-1
 642 1083 l 1,32,-1
 751 1083 l 2,8,9
EndSplineSet
EndChar

StartChar: germandbls
Encoding: 223 223 159
Width: 1024
Flags: W
LayerCount: 2
Fore
SplineSet
753 802 m 0,0,1
 753 763 753 763 766 729.5 c 128,-1,2
 779 696 779 696 800 663.5 c 128,-1,3
 821 631 821 631 848 598.5 c 128,-1,4
 875 566 875 566 902 529 c 0,5,6
 928 494 928 494 946.5 445 c 128,-1,7
 965 396 965 396 965 336 c 0,8,9
 965 256 965 256 939.5 190.5 c 128,-1,10
 914 125 914 125 865 78 c 128,-1,11
 816 31 816 31 743.5 5.5 c 128,-1,12
 671 -20 671 -20 578 -20 c 0,13,14
 498 -20 498 -20 442 -6.5 c 128,-1,15
 386 7 386 7 360 21 c 1,16,-1
 395 244 l 1,17,-1
 461 244 l 1,18,-1
 478 110 l 1,19,20
 495 95 495 95 517.5 84 c 128,-1,21
 540 73 540 73 575 73 c 256,22,23
 610 73 610 73 636.5 86.5 c 128,-1,24
 663 100 663 100 681 123.5 c 128,-1,25
 699 147 699 147 708 180 c 128,-1,26
 717 213 717 213 717 252 c 0,27,28
 717 294 717 294 706 329 c 128,-1,29
 695 364 695 364 676.5 396 c 128,-1,30
 658 428 658 428 633.5 458.5 c 128,-1,31
 609 489 609 489 581 522 c 0,32,33
 551 558 551 558 530.5 608 c 128,-1,34
 510 658 510 658 510 721 c 0,35,36
 510 778 510 778 526.5 829 c 128,-1,37
 543 880 543 880 572 920.5 c 128,-1,38
 601 961 601 961 642 990 c 128,-1,39
 683 1019 683 1019 731 1033 c 1,40,41
 736 1071 736 1071 739.5 1109.5 c 128,-1,42
 743 1148 743 1148 743 1176 c 0,43,44
 743 1259 743 1259 718.5 1300 c 128,-1,45
 694 1341 694 1341 640 1341 c 0,46,47
 599 1341 599 1341 570 1317 c 128,-1,48
 541 1293 541 1293 518.5 1244 c 128,-1,49
 496 1195 496 1195 478 1122 c 128,-1,50
 460 1049 460 1049 443 952 c 2,51,-1
 276 0 l 1,52,-1
 -75 0 l 1,53,-1
 -64 66 l 1,54,-1
 22 90 l 1,55,-1
 174 952 l 2,56,57
 195 1071 195 1071 232.5 1162.5 c 128,-1,58
 270 1254 270 1254 329 1316 c 128,-1,59
 388 1378 388 1378 470.5 1410 c 128,-1,60
 553 1442 553 1442 664 1442 c 0,61,62
 839 1442 839 1442 920 1360 c 128,-1,63
 1001 1278 1001 1278 1001 1117 c 0,64,65
 1001 1086 1001 1086 998 1053.5 c 128,-1,66
 995 1021 995 1021 990 985 c 1,67,68
 939 985 939 985 895.5 975 c 128,-1,69
 852 965 852 965 820.5 943 c 128,-1,70
 789 921 789 921 771 886 c 128,-1,71
 753 851 753 851 753 802 c 0,0,1
EndSplineSet
EndChar

StartChar: ae
Encoding: 230 230 166
Width: 1479
Flags: W
LayerCount: 2
Fore
SplineSet
901 508 m 1,0,1
 968 515 968 515 1023 540.5 c 128,-1,2
 1078 566 1078 566 1117.5 602.5 c 128,-1,3
 1157 639 1157 639 1178.5 683.5 c 128,-1,4
 1200 728 1200 728 1200 773 c 0,5,6
 1200 815 1200 815 1175.5 836 c 128,-1,7
 1151 857 1151 857 1123 857 c 0,8,9
 1085 857 1085 857 1049.5 827 c 128,-1,10
 1014 797 1014 797 984.5 748 c 128,-1,11
 955 699 955 699 933 636.5 c 128,-1,12
 911 574 911 574 901 508 c 1,0,1
887 895 m 1,13,14
 911 911 911 911 940 924 c 128,-1,15
 969 937 969 937 1001.5 946 c 128,-1,16
 1034 955 1034 955 1068 960 c 128,-1,17
 1102 965 1102 965 1135 965 c 0,18,19
 1208 965 1208 965 1264 949.5 c 128,-1,20
 1320 934 1320 934 1357.5 906.5 c 128,-1,21
 1395 879 1395 879 1414.5 841.5 c 128,-1,22
 1434 804 1434 804 1434 760 c 0,23,24
 1434 695 1434 695 1397 635.5 c 128,-1,25
 1360 576 1360 576 1289.5 529 c 128,-1,26
 1219 482 1219 482 1117.5 450 c 128,-1,27
 1016 418 1016 418 887 408 c 1,28,29
 886 404 886 404 885 395.5 c 128,-1,30
 884 387 884 387 883.5 377.5 c 128,-1,31
 883 368 883 368 882.5 357.5 c 128,-1,32
 882 347 882 347 882 340 c 0,33,34
 882 295 882 295 891.5 252.5 c 128,-1,35
 901 210 901 210 923 177 c 128,-1,36
 945 144 945 144 982 124 c 128,-1,37
 1019 104 1019 104 1073 104 c 0,38,39
 1110 104 1110 104 1142.5 112 c 128,-1,40
 1175 120 1175 120 1204.5 133 c 128,-1,41
 1234 146 1234 146 1261.5 163 c 128,-1,42
 1289 180 1289 180 1316 198 c 1,43,-1
 1360 135 l 1,44,45
 1329 109 1329 109 1287 81.5 c 128,-1,46
 1245 54 1245 54 1195 31.5 c 128,-1,47
 1145 9 1145 9 1088.5 -5.5 c 128,-1,48
 1032 -20 1032 -20 971 -20 c 0,49,50
 833 -20 833 -20 755.5 27 c 128,-1,51
 678 74 678 74 644 158 c 1,52,53
 601 107 601 107 559 72.5 c 128,-1,54
 517 38 517 38 476 17.5 c 128,-1,55
 435 -3 435 -3 393.5 -12 c 128,-1,56
 352 -21 352 -21 310 -21 c 0,57,58
 252 -21 252 -21 200.5 0 c 128,-1,59
 149 21 149 21 110 63.5 c 128,-1,60
 71 106 71 106 48.5 170 c 128,-1,61
 26 234 26 234 26 319 c 0,62,63
 26 448 26 448 69.5 565 c 128,-1,64
 113 682 113 682 191 770.5 c 128,-1,65
 269 859 269 859 376 911.5 c 128,-1,66
 483 964 483 964 610 964 c 0,67,68
 646 964 646 964 684.5 957.5 c 128,-1,69
 723 951 723 951 759.5 941.5 c 128,-1,70
 796 932 796 932 829 919.5 c 128,-1,71
 862 907 862 907 887 895 c 1,13,14
623 264 m 1,72,73
 622 275 622 275 621 293 c 128,-1,74
 620 311 620 311 620 330 c 0,75,76
 620 385 620 385 629 444 c 128,-1,77
 638 503 638 503 657.5 562.5 c 128,-1,78
 677 622 677 622 706.5 679.5 c 128,-1,79
 736 737 736 737 777 788 c 1,80,81
 756 803 756 803 731.5 817 c 128,-1,82
 707 831 707 831 681 841 c 128,-1,83
 655 851 655 851 629.5 857 c 128,-1,84
 604 863 604 863 582 863 c 0,85,86
 521 863 521 863 467.5 818 c 128,-1,87
 414 773 414 773 374.5 700 c 128,-1,88
 335 627 335 627 312 535.5 c 128,-1,89
 289 444 289 444 289 351 c 0,90,91
 289 291 289 291 299.5 248.5 c 128,-1,92
 310 206 310 206 328 179 c 128,-1,93
 346 152 346 152 370.5 139.5 c 128,-1,94
 395 127 395 127 422 127 c 0,95,96
 445 127 445 127 473.5 139.5 c 128,-1,97
 502 152 502 152 529.5 171.5 c 128,-1,98
 557 191 557 191 582 215.5 c 128,-1,99
 607 240 607 240 623 264 c 1,72,73
EndSplineSet
EndChar

StartChar: eth
Encoding: 240 240 176
Width: 1024
Flags: W
LayerCount: 2
Fore
SplineSet
333 1117 m 1,0,-1
 524 1217 l 1,1,2
 490 1246 490 1246 449 1271 c 128,-1,3
 408 1296 408 1296 357 1313 c 1,4,-1
 376 1421 l 1,5,6
 461 1401 461 1401 529.5 1369.5 c 128,-1,7
 598 1338 598 1338 663 1294 c 1,8,-1
 977 1459 l 1,9,-1
 955 1335 l 1,10,-1
 744 1224 l 1,11,12
 840 1132 840 1132 898 998.5 c 128,-1,13
 956 865 956 865 956 687 c 0,14,15
 956 596 956 596 941 508 c 128,-1,16
 926 420 926 420 895.5 341.5 c 128,-1,17
 865 263 865 263 819.5 197 c 128,-1,18
 774 131 774 131 713.5 82.5 c 128,-1,19
 653 34 653 34 577 7 c 128,-1,20
 501 -20 501 -20 410 -20 c 0,21,22
 332 -20 332 -20 263.5 5 c 128,-1,23
 195 30 195 30 144.5 77.5 c 128,-1,24
 94 125 94 125 64.5 194.5 c 128,-1,25
 35 264 35 264 35 353 c 0,26,27
 35 480 35 480 73.5 581.5 c 128,-1,28
 112 683 112 683 182.5 754.5 c 128,-1,29
 253 826 253 826 352 864.5 c 128,-1,30
 451 903 451 903 571 903 c 0,31,32
 600 903 600 903 633 899 c 128,-1,33
 666 895 666 895 688 890 c 1,34,35
 684 949 684 949 660.5 1015 c 128,-1,36
 637 1081 637 1081 592 1139 c 1,37,-1
 311 991 l 1,38,-1
 333 1117 l 1,0,-1
301 283 m 0,39,40
 301 181 301 181 337 130 c 128,-1,41
 373 79 373 79 432 79 c 0,42,43
 483 79 483 79 529 123 c 128,-1,44
 575 167 575 167 610 241 c 128,-1,45
 645 315 645 315 665.5 412.5 c 128,-1,46
 686 510 686 510 686 617 c 0,47,48
 686 670 686 670 675.5 706 c 128,-1,49
 665 742 665 742 647.5 763.5 c 128,-1,50
 630 785 630 785 607 794.5 c 128,-1,51
 584 804 584 804 558 804 c 0,52,53
 511 804 511 804 465 761.5 c 128,-1,54
 419 719 419 719 382.5 647.5 c 128,-1,55
 346 576 346 576 323.5 481.5 c 128,-1,56
 301 387 301 387 301 283 c 0,39,40
EndSplineSet
EndChar

StartChar: divide
Encoding: 247 247 183
Width: 1124
Flags: W
LayerCount: 2
Fore
SplineSet
1052 751 m 1,0,-1
 1052 608 l 1,1,-1
 100 608 l 1,2,-1
 100 751 l 1,3,-1
 1052 751 l 1,0,-1
575 183 m 256,4,5
 547 183 547 183 522.5 193.5 c 128,-1,6
 498 204 498 204 480 222 c 128,-1,7
 462 240 462 240 451.5 264.5 c 128,-1,8
 441 289 441 289 441 317 c 256,9,10
 441 345 441 345 451.5 369.5 c 128,-1,11
 462 394 462 394 480 412 c 128,-1,12
 498 430 498 430 522.5 440.5 c 128,-1,13
 547 451 547 451 575 451 c 256,14,15
 603 451 603 451 627.5 440.5 c 128,-1,16
 652 430 652 430 670 412 c 128,-1,17
 688 394 688 394 698.5 369.5 c 128,-1,18
 709 345 709 345 709 317 c 256,19,20
 709 289 709 289 698.5 264.5 c 128,-1,21
 688 240 688 240 670 222 c 128,-1,22
 652 204 652 204 627.5 193.5 c 128,-1,23
 603 183 603 183 575 183 c 256,4,5
575 909 m 256,24,25
 547 909 547 909 522.5 919.5 c 128,-1,26
 498 930 498 930 480 948 c 128,-1,27
 462 966 462 966 451.5 990.5 c 128,-1,28
 441 1015 441 1015 441 1043 c 256,29,30
 441 1071 441 1071 451.5 1095.5 c 128,-1,31
 462 1120 462 1120 480 1138 c 128,-1,32
 498 1156 498 1156 522.5 1166.5 c 128,-1,33
 547 1177 547 1177 575 1177 c 256,34,35
 603 1177 603 1177 627.5 1166.5 c 128,-1,36
 652 1156 652 1156 670 1138 c 128,-1,37
 688 1120 688 1120 698.5 1095.5 c 128,-1,38
 709 1071 709 1071 709 1043 c 256,39,40
 709 1015 709 1015 698.5 990.5 c 128,-1,41
 688 966 688 966 670 948 c 128,-1,42
 652 930 652 930 627.5 919.5 c 128,-1,43
 603 909 603 909 575 909 c 256,24,25
EndSplineSet
EndChar

StartChar: oslash
Encoding: 248 248 184
Width: 1024
Flags: W
LayerCount: 2
Fore
SplineSet
406 -20 m 0,0,1
 278 -20 278 -20 187 41 c 1,2,-1
 80 -84 l 1,3,-1
 -47 -84 l 1,4,-1
 117 106 l 1,5,6
 76 157 76 157 54 223.5 c 128,-1,7
 32 290 32 290 32 374 c 0,8,9
 32 491 32 491 70 598 c 128,-1,10
 108 705 108 705 179.5 786.5 c 128,-1,11
 251 868 251 868 352.5 916.5 c 128,-1,12
 454 965 454 965 580 965 c 0,13,14
 710 965 710 965 801 901 c 1,15,-1
 905 1022 l 1,16,-1
 1029 1022 l 1,17,-1
 870 837 l 1,18,19
 910 786 910 786 932 719.5 c 128,-1,20
 954 653 954 653 954 571 c 0,21,22
 954 454 954 454 916 347 c 128,-1,23
 878 240 878 240 806.5 158.5 c 128,-1,24
 735 77 735 77 633.5 28.5 c 128,-1,25
 532 -20 532 -20 406 -20 c 0,0,1
297 315 m 1,26,-1
 670 749 l 1,27,28
 656 806 656 806 628.5 836 c 128,-1,29
 601 866 601 866 558 866 c 0,30,31
 511 866 511 866 464 822.5 c 128,-1,32
 417 779 417 779 380 704 c 128,-1,33
 343 629 343 629 320 529.5 c 128,-1,34
 297 430 297 430 297 319 c 2,35,-1
 297 315 l 1,26,-1
429 79 m 0,36,37
 475 79 475 79 520.5 119 c 128,-1,38
 566 159 566 159 602 230.5 c 128,-1,39
 638 302 638 302 660 401 c 128,-1,40
 682 500 682 500 683 619 c 1,41,-1
 314 189 l 1,42,43
 331 135 331 135 360.5 107 c 128,-1,44
 390 79 390 79 429 79 c 0,36,37
EndSplineSet
EndChar

StartChar: thorn
Encoding: 254 254 190
Width: 1024
Flags: W
LayerCount: 2
Fore
SplineSet
956 631 m 0,0,1
 956 502 956 502 920.5 384 c 128,-1,2
 885 266 885 266 818.5 176.5 c 128,-1,3
 752 87 752 87 656.5 33.5 c 128,-1,4
 561 -20 561 -20 442 -20 c 0,5,6
 420 -20 420 -20 396 -17 c 128,-1,7
 372 -14 372 -14 349 -9.5 c 128,-1,8
 326 -5 326 -5 306 1 c 128,-1,9
 286 7 286 7 273 13 c 1,10,11
 272 1 272 1 270.5 -16.5 c 128,-1,12
 269 -34 269 -34 267 -52 c 128,-1,13
 265 -70 265 -70 262.5 -86 c 128,-1,14
 260 -102 260 -102 259 -111 c 2,15,-1
 221 -347 l 1,16,-1
 381 -371 l 1,17,-1
 369 -436 l 1,18,-1
 -167 -436 l 1,19,-1
 -155 -371 l 1,20,-1
 -51 -347 l 1,21,-1
 246 1336 l 1,22,-1
 147 1361 l 1,23,-1
 159 1421 l 1,24,-1
 529 1421 l 1,25,-1
 453 989 l 2,26,27
 443 933 443 933 431.5 881 c 128,-1,28
 420 829 420 829 409 791 c 1,29,30
 436 831 436 831 470 863.5 c 128,-1,31
 504 896 504 896 543 918.5 c 128,-1,32
 582 941 582 941 624 953 c 128,-1,33
 666 965 666 965 709 965 c 0,34,35
 762 965 762 965 807.5 943.5 c 128,-1,36
 853 922 853 922 886 880 c 128,-1,37
 919 838 919 838 937.5 775.5 c 128,-1,38
 956 713 956 713 956 631 c 0,0,1
693 587 m 0,39,40
 693 649 693 649 682.5 692 c 128,-1,41
 672 735 672 735 655.5 762 c 128,-1,42
 639 789 639 789 618 801 c 128,-1,43
 597 813 597 813 576 813 c 0,44,45
 559 813 559 813 537.5 802.5 c 128,-1,46
 516 792 516 792 492 773.5 c 128,-1,47
 468 755 468 755 443.5 729.5 c 128,-1,48
 419 704 419 704 398 674 c 1,49,-1
 301 127 l 1,50,51
 313 115 313 115 330.5 106 c 128,-1,52
 348 97 348 97 366 91 c 128,-1,53
 384 85 384 85 401 82 c 128,-1,54
 418 79 418 79 430 79 c 0,55,56
 489 79 489 79 537.5 123 c 128,-1,57
 586 167 586 167 620.5 239 c 128,-1,58
 655 311 655 311 674 402 c 128,-1,59
 693 493 693 493 693 587 c 0,39,40
EndSplineSet
EndChar

StartChar: dcroat
Encoding: 273 273 209
Width: 1024
Flags: W
LayerCount: 2
Fore
SplineSet
991 1099 m 1,0,-1
 812 85 l 1,1,-1
 911 60 l 1,2,-1
 899 0 l 1,3,-1
 567 0 l 1,4,-1
 560 144 l 1,5,6
 533 108 533 108 500 77.5 c 128,-1,7
 467 47 467 47 430 25.5 c 128,-1,8
 393 4 393 4 354 -8 c 128,-1,9
 315 -20 315 -20 276 -20 c 0,10,11
 223 -20 223 -20 177 1 c 128,-1,12
 131 22 131 22 97 63 c 128,-1,13
 63 104 63 104 43.5 166 c 128,-1,14
 24 228 24 228 24 310 c 0,15,16
 24 439 24 439 59.5 557.5 c 128,-1,17
 95 676 95 676 161 766 c 128,-1,18
 227 856 227 856 320 910 c 128,-1,19
 413 964 413 964 528 964 c 0,20,21
 550 964 550 964 575 962 c 128,-1,22
 600 960 600 960 623.5 956.5 c 128,-1,23
 647 953 647 953 667.5 947.5 c 128,-1,24
 688 942 688 942 702 936 c 1,25,26
 703 948 703 948 704.5 965.5 c 128,-1,27
 706 983 706 983 708 1001 c 128,-1,28
 710 1019 710 1019 712 1035 c 128,-1,29
 714 1051 714 1051 716 1060 c 2,30,-1
 722 1099 l 1,31,-1
 512 1099 l 1,32,-1
 530 1202 l 1,33,-1
 741 1202 l 1,34,-1
 763 1332 l 1,35,-1
 602 1356 l 1,36,-1
 614 1421 l 1,37,-1
 1049 1421 l 1,38,-1
 1010 1202 l 1,39,-1
 1111 1202 l 1,40,-1
 1093 1099 l 1,41,-1
 991 1099 l 1,0,-1
674 817 m 1,42,43
 662 829 662 829 644 838 c 128,-1,44
 626 847 626 847 606.5 853 c 128,-1,45
 587 859 587 859 569.5 862 c 128,-1,46
 552 865 552 865 540 865 c 0,47,48
 484 865 484 865 437.5 820 c 128,-1,49
 391 775 391 775 357.5 702 c 128,-1,50
 324 629 324 629 305.5 538 c 128,-1,51
 287 447 287 447 287 354 c 0,52,53
 287 294 287 294 296.5 251 c 128,-1,54
 306 208 306 208 321 181 c 128,-1,55
 336 154 336 154 355.5 141 c 128,-1,56
 375 128 375 128 395 128 c 0,57,58
 411 128 411 128 433.5 138.5 c 128,-1,59
 456 149 456 149 481 167.5 c 128,-1,60
 506 186 506 186 531 211.5 c 128,-1,61
 556 237 556 237 577 267 c 1,62,-1
 674 817 l 1,42,43
EndSplineSet
EndChar

StartChar: Hbar
Encoding: 294 294 230
Width: 1593
Flags: W
LayerCount: 2
Fore
SplineSet
-14 0 m 1,0,-1
 -1 74 l 1,1,-1
 175 100 l 1,2,-1
 326 952 l 1,3,-1
 154 952 l 1,4,-1
 172 1062 l 1,5,-1
 344 1062 l 1,6,-1
 376 1241 l 1,7,-1
 209 1268 l 1,8,-1
 222 1341 l 1,9,-1
 861 1341 l 1,10,-1
 848 1268 l 1,11,-1
 671 1241 l 1,12,-1
 639 1062 l 1,13,-1
 1126 1062 l 1,14,-1
 1158 1241 l 1,15,-1
 991 1268 l 1,16,-1
 1004 1341 l 1,17,-1
 1645 1341 l 1,18,-1
 1632 1268 l 1,19,-1
 1454 1241 l 1,20,-1
 1422 1062 l 1,21,-1
 1595 1062 l 1,22,-1
 1577 952 l 1,23,-1
 1404 952 l 1,24,-1
 1253 100 l 1,25,-1
 1421 74 l 1,26,-1
 1408 0 l 1,27,-1
 767 0 l 1,28,-1
 780 74 l 1,29,-1
 957 100 l 1,30,-1
 1051 635 l 1,31,-1
 564 635 l 1,32,-1
 470 100 l 1,33,-1
 637 74 l 1,34,-1
 624 0 l 1,35,-1
 -14 0 l 1,0,-1
1071 745 m 1,36,-1
 1108 952 l 1,37,-1
 621 952 l 1,38,-1
 584 745 l 1,39,-1
 1071 745 l 1,36,-1
EndSplineSet
EndChar

StartChar: hbar
Encoding: 295 295 231
Width: 1139
Flags: W
LayerCount: 2
Fore
SplineSet
519 1202 m 1,0,-1
 774 1202 l 1,1,-1
 754 1099 l 1,2,-1
 500 1099 l 1,3,-1
 475 958 l 2,4,5
 471 937 471 937 466 907.5 c 128,-1,6
 461 878 461 878 456.5 850 c 128,-1,7
 452 822 452 822 447.5 799 c 128,-1,8
 443 776 443 776 441 769 c 1,9,10
 517 866 517 866 609 915.5 c 128,-1,11
 701 965 701 965 818 965 c 0,12,13
 864 965 864 965 903.5 952.5 c 128,-1,14
 943 940 943 940 972 914 c 128,-1,15
 1001 888 1001 888 1017 848 c 128,-1,16
 1033 808 1033 808 1033 754 c 0,17,18
 1033 742 1033 742 1030 719.5 c 128,-1,19
 1027 697 1027 697 1023.5 671.5 c 128,-1,20
 1020 646 1020 646 1015.5 621.5 c 128,-1,21
 1011 597 1011 597 1008 580 c 2,22,-1
 921 90 l 1,23,-1
 1037 66 l 1,24,-1
 1024 0 l 1,25,-1
 638 0 l 1,26,-1
 740 569 l 2,27,28
 744 590 744 590 748 613 c 128,-1,29
 752 636 752 636 755 657 c 128,-1,30
 758 678 758 678 760 696 c 128,-1,31
 762 714 762 714 762 725 c 0,32,33
 762 822 762 822 671 822 c 0,34,35
 637 822 637 822 599 801.5 c 128,-1,36
 561 781 561 781 525 748.5 c 128,-1,37
 489 716 489 716 459 675 c 128,-1,38
 429 634 429 634 412 594 c 1,39,-1
 306 0 l 1,40,-1
 40 0 l 1,41,-1
 233 1099 l 1,42,-1
 89 1099 l 1,43,-1
 109 1202 l 1,44,-1
 251 1202 l 1,45,-1
 274 1331 l 1,46,-1
 183 1355 l 1,47,-1
 194 1421 l 1,48,-1
 559 1421 l 1,49,-1
 519 1202 l 1,0,-1
EndSplineSet
EndChar

StartChar: dotlessi
Encoding: 305 305 241
Width: 569
Flags: W
LayerCount: 2
Fore
SplineSet
332 90 m 1,0,-1
 451 66 l 1,1,-1
 440 0 l 1,2,-1
 47 0 l 1,3,-1
 197 850 l 1,4,-1
 106 874 l 1,5,-1
 117 940 l 1,6,-1
 482 940 l 1,7,-1
 332 90 l 1,0,-1
EndSplineSet
EndChar

StartChar: jcircumflex
Encoding: 309 309 245
Width: 569
Flags: W
LayerCount: 2
Fore
SplineSet
328 -39 m 2,0,1
 309 -145 309 -145 270 -220.5 c 128,-1,2
 231 -296 231 -296 175.5 -344 c 128,-1,3
 120 -392 120 -392 50 -414 c 128,-1,4
 -20 -436 -20 -436 -100 -436 c 0,5,6
 -145 -436 -145 -436 -189 -431 c 128,-1,7
 -233 -426 -233 -426 -268 -418 c 1,8,-1
 -229 -193 l 1,9,-1
 -166 -193 l 1,10,-1
 -143 -307 l 1,11,12
 -135 -315 -135 -315 -125.5 -320.5 c 128,-1,13
 -116 -326 -116 -326 -97 -326 c 0,14,15
 -75 -326 -75 -326 -53.5 -312.5 c 128,-1,16
 -32 -299 -32 -299 -12.5 -269 c 128,-1,17
 7 -239 7 -239 24 -190.5 c 128,-1,18
 41 -142 41 -142 53 -71 c 2,19,-1
 214 840 l 1,20,-1
 54 874 l 1,21,-1
 65 940 l 1,22,-1
 500 940 l 1,23,-1
 328 -39 l 2,0,1
34 1118 m 1,24,-1
 40 1151 l 1,25,-1
 309 1444 l 1,26,-1
 522 1444 l 1,27,-1
 688 1151 l 1,28,-1
 682 1118 l 1,29,-1
 606 1118 l 1,30,-1
 386 1280 l 1,31,-1
 110 1118 l 1,32,-1
 34 1118 l 1,24,-1
EndSplineSet
EndChar

StartChar: kgreenlandic
Encoding: 312 312 248
Width: 1024
Flags: W
LayerCount: 2
Fore
SplineSet
382 476 m 1,0,-1
 739 851 l 1,1,-1
 653 874 l 1,2,-1
 664 940 l 1,3,-1
 1008 940 l 1,4,-1
 997 874 l 1,5,-1
 905 852 l 1,6,-1
 656 597 l 1,7,-1
 894 90 l 1,8,-1
 974 66 l 1,9,-1
 963 0 l 1,10,-1
 639 0 l 1,11,-1
 463 420 l 1,12,-1
 359 354 l 1,13,-1
 297 0 l 1,14,-1
 28 0 l 1,15,-1
 179 850 l 1,16,-1
 87 874 l 1,17,-1
 99 940 l 1,18,-1
 464 940 l 1,19,-1
 382 476 l 1,0,-1
EndSplineSet
EndChar

StartChar: Lslash
Encoding: 321 321 257
Width: 1251
Flags: W
LayerCount: 2
Fore
SplineSet
872 1268 m 1,0,-1
 670 1242 l 1,1,-1
 594 811 l 1,2,-1
 856 951 l 1,3,-1
 833 817 l 1,4,-1
 571 680 l 1,5,-1
 470 106 l 1,6,-1
 583 106 l 2,7,8
 639 106 639 106 698.5 108 c 128,-1,9
 758 110 758 110 810.5 113 c 128,-1,10
 863 116 863 116 902.5 119.5 c 128,-1,11
 942 123 942 123 958 126 c 1,12,-1
 1075 405 l 1,13,-1
 1159 405 l 1,14,-1
 1070 0 l 1,15,-1
 -15 0 l 1,16,-1
 -3 73 l 1,17,-1
 174 100 l 1,18,-1
 245 502 l 1,19,-1
 61 402 l 1,20,-1
 85 538 l 1,21,-1
 268 636 l 1,22,-1
 375 1242 l 1,23,-1
 209 1268 l 1,24,-1
 222 1341 l 1,25,-1
 885 1341 l 1,26,-1
 872 1268 l 1,0,-1
EndSplineSet
EndChar

StartChar: lslash
Encoding: 322 322 258
Width: 569
Flags: W
LayerCount: 2
Fore
SplineSet
10 533 m 1,0,-1
 145 603 l 1,1,-1
 273 1331 l 1,2,-1
 181 1355 l 1,3,-1
 193 1421 l 1,4,-1
 558 1421 l 1,5,-1
 443 770 l 1,6,-1
 584 844 l 1,7,-1
 562 720 l 1,8,-1
 421 645 l 1,9,-1
 323 90 l 1,10,-1
 422 66 l 1,11,-1
 411 0 l 1,12,-1
 37 0 l 1,13,-1
 123 478 l 1,14,-1
 -12 407 l 1,15,-1
 10 533 l 1,0,-1
EndSplineSet
EndChar

StartChar: Eng
Encoding: 330 330 266
Width: 1605
Flags: W
LayerCount: 2
Fore
SplineSet
898 -20 m 0,0,1
 866 -20 866 -20 832.5 -18 c 128,-1,2
 799 -16 799 -16 768 -12 c 128,-1,3
 737 -8 737 -8 710 -2.5 c 128,-1,4
 683 3 683 3 663 10 c 1,5,-1
 711 284 l 1,6,-1
 800 284 l 1,7,-1
 805 119 l 1,8,9
 822 103 822 103 846 94.5 c 128,-1,10
 870 86 870 86 903 86 c 0,11,12
 967 86 967 86 1004 137 c 128,-1,13
 1041 188 1041 188 1058 282 c 2,14,-1
 1170 919 l 2,15,16
 1173 935 1173 935 1176 954 c 128,-1,17
 1179 973 1179 973 1182 991 c 128,-1,18
 1185 1009 1185 1009 1186.5 1024.5 c 128,-1,19
 1188 1040 1188 1040 1188 1051 c 0,20,21
 1188 1100 1188 1100 1173.5 1132.5 c 128,-1,22
 1159 1165 1159 1165 1134.5 1184 c 128,-1,23
 1110 1203 1110 1203 1079 1210.5 c 128,-1,24
 1048 1218 1048 1218 1015 1218 c 0,25,26
 945 1218 945 1218 851.5 1192.5 c 128,-1,27
 758 1167 758 1167 646 1114 c 1,28,-1
 468 100 l 1,29,-1
 566 85 l 1,30,-1
 551 0 l 1,31,-1
 -16 0 l 1,32,-1
 -3 74 l 1,33,-1
 172 100 l 1,34,-1
 373 1241 l 1,35,-1
 207 1268 l 1,36,-1
 220 1341 l 1,37,-1
 673 1341 l 1,38,-1
 665 1219 l 1,39,40
 731 1253 731 1253 790 1277.5 c 128,-1,41
 849 1302 849 1302 905 1318.5 c 128,-1,42
 961 1335 961 1335 1015 1343 c 128,-1,43
 1069 1351 1069 1351 1123 1351 c 0,44,45
 1301 1351 1301 1351 1393 1284.5 c 128,-1,46
 1485 1218 1485 1218 1485 1072 c 0,47,48
 1485 1060 1485 1060 1483 1039.5 c 128,-1,49
 1481 1019 1481 1019 1478 996 c 128,-1,50
 1475 973 1475 973 1471 949 c 128,-1,51
 1467 925 1467 925 1464 906 c 2,52,-1
 1380 432 l 2,53,54
 1356 295 1356 295 1309 207.5 c 128,-1,55
 1262 120 1262 120 1199 69.5 c 128,-1,56
 1136 19 1136 19 1059 -0.5 c 128,-1,57
 982 -20 982 -20 898 -20 c 0,0,1
EndSplineSet
EndChar

StartChar: eng
Encoding: 331 331 267
Width: 1107
Flags: W
LayerCount: 2
Fore
SplineSet
673 822 m 0,0,1
 639 822 639 822 601 801.5 c 128,-1,2
 563 781 563 781 527 748.5 c 128,-1,3
 491 716 491 716 461 675 c 128,-1,4
 431 634 431 634 414 594 c 1,5,-1
 308 0 l 1,6,-1
 42 0 l 1,7,-1
 190 849 l 1,8,-1
 101 874 l 1,9,-1
 114 940 l 1,10,-1
 448 940 l 1,11,-1
 440 765 l 1,12,13
 516 863 516 863 609.5 914 c 128,-1,14
 703 965 703 965 820 965 c 0,15,16
 866 965 866 965 905.5 952.5 c 128,-1,17
 945 940 945 940 974 914 c 128,-1,18
 1003 888 1003 888 1019 848 c 128,-1,19
 1035 808 1035 808 1035 754 c 0,20,21
 1035 742 1035 742 1032 719.5 c 128,-1,22
 1029 697 1029 697 1025.5 671.5 c 128,-1,23
 1022 646 1022 646 1017.5 621.5 c 128,-1,24
 1013 597 1013 597 1010 580 c 2,25,-1
 903 -39 l 2,26,27
 885 -145 885 -145 845.5 -220.5 c 128,-1,28
 806 -296 806 -296 750.5 -344 c 128,-1,29
 695 -392 695 -392 625 -414 c 128,-1,30
 555 -436 555 -436 475 -436 c 0,31,32
 430 -436 430 -436 386 -431 c 128,-1,33
 342 -426 342 -426 307 -418 c 1,34,-1
 346 -193 l 1,35,-1
 409 -193 l 1,36,-1
 432 -307 l 1,37,38
 440 -315 440 -315 449.5 -320.5 c 128,-1,39
 459 -326 459 -326 478 -326 c 0,40,41
 500 -326 500 -326 521.5 -312.5 c 128,-1,42
 543 -299 543 -299 562.5 -269 c 128,-1,43
 582 -239 582 -239 599 -190.5 c 128,-1,44
 616 -142 616 -142 628 -71 c 2,45,-1
 742 569 l 2,46,47
 746 590 746 590 750 613 c 128,-1,48
 754 636 754 636 757 657 c 128,-1,49
 760 678 760 678 762 696 c 128,-1,50
 764 714 764 714 764 725 c 0,51,52
 764 822 764 822 673 822 c 0,0,1
EndSplineSet
EndChar

StartChar: OE
Encoding: 338 338 274
Width: 1933
Flags: W
LayerCount: 2
Fore
SplineSet
636 -7 m 0,0,1
 507 -7 507 -7 403 31.5 c 128,-1,2
 299 70 299 70 225 140 c 128,-1,3
 151 210 151 210 111 307.5 c 128,-1,4
 71 405 71 405 71 524 c 0,5,6
 71 693 71 693 121.5 843 c 128,-1,7
 172 993 172 993 271 1105.5 c 128,-1,8
 370 1218 370 1218 516 1283.5 c 128,-1,9
 662 1349 662 1349 853 1349 c 0,10,11
 891 1349 891 1349 945 1347 c 128,-1,12
 999 1345 999 1345 1054 1341 c 1,13,-1
 1847 1341 l 1,14,-1
 1787 1000 l 1,15,-1
 1696 1000 l 1,16,-1
 1702 1217 l 1,17,18
 1671 1221 1671 1221 1624 1224 c 128,-1,19
 1577 1227 1577 1227 1528 1228.5 c 128,-1,20
 1479 1230 1479 1230 1435.5 1230.5 c 128,-1,21
 1392 1231 1392 1231 1369 1231 c 2,22,-1
 1311 1231 l 1,23,-1
 1224 739 l 1,24,-1
 1437 739 l 1,25,-1
 1494 887 l 1,26,-1
 1583 887 l 1,27,-1
 1510 475 l 1,28,-1
 1421 475 l 1,29,-1
 1417 627 l 1,30,-1
 1204 627 l 1,31,-1
 1113 110 l 1,32,-1
 1216 110 l 2,33,34
 1278 110 1278 110 1335 111.5 c 128,-1,35
 1392 113 1392 113 1438.5 115 c 128,-1,36
 1485 117 1485 117 1519 120 c 128,-1,37
 1553 123 1553 123 1569 126 c 1,38,-1
 1669 374 l 1,39,-1
 1760 374 l 1,40,-1
 1676 0 l 1,41,-1
 801 0 l 1,42,43
 749 -3 749 -3 710 -5 c 128,-1,44
 671 -7 671 -7 636 -7 c 0,0,1
654 93 m 0,45,46
 704 93 704 93 743 98.5 c 128,-1,47
 782 104 782 104 819 117 c 1,48,-1
 1013 1219 l 1,49,50
 993 1225 993 1225 974.5 1230.5 c 128,-1,51
 956 1236 956 1236 935.5 1239.5 c 128,-1,52
 915 1243 915 1243 892 1245.5 c 128,-1,53
 869 1248 869 1248 839 1248 c 0,54,55
 759 1248 759 1248 693.5 1212 c 128,-1,56
 628 1176 628 1176 576 1116 c 128,-1,57
 524 1056 524 1056 485.5 977.5 c 128,-1,58
 447 899 447 899 422 814 c 128,-1,59
 397 729 397 729 384.5 644 c 128,-1,60
 372 559 372 559 372 485 c 0,61,62
 372 393 372 393 390.5 320.5 c 128,-1,63
 409 248 409 248 444.5 197.5 c 128,-1,64
 480 147 480 147 532.5 120 c 128,-1,65
 585 93 585 93 654 93 c 0,45,46
EndSplineSet
EndChar

StartChar: oe
Encoding: 339 339 275
Width: 1479
Flags: W
LayerCount: 2
Fore
SplineSet
1436 760 m 0,0,1
 1436 695 1436 695 1400 635.5 c 128,-1,2
 1364 576 1364 576 1295 529 c 128,-1,3
 1226 482 1226 482 1126 450 c 128,-1,4
 1026 418 1026 418 897 408 c 1,5,6
 896 404 896 404 895 395.5 c 128,-1,7
 894 387 894 387 893.5 377.5 c 128,-1,8
 893 368 893 368 892.5 357.5 c 128,-1,9
 892 347 892 347 892 340 c 0,10,11
 892 295 892 295 900 252.5 c 128,-1,12
 908 210 908 210 928 177 c 128,-1,13
 948 144 948 144 983.5 124 c 128,-1,14
 1019 104 1019 104 1073 104 c 0,15,16
 1147 104 1147 104 1210 132.5 c 128,-1,17
 1273 161 1273 161 1328 198 c 1,18,-1
 1372 135 l 1,19,20
 1341 109 1341 109 1299 81.5 c 128,-1,21
 1257 54 1257 54 1208.5 31.5 c 128,-1,22
 1160 9 1160 9 1105.5 -5.5 c 128,-1,23
 1051 -20 1051 -20 994 -20 c 0,24,25
 886 -20 886 -20 816 13.5 c 128,-1,26
 746 47 746 47 707 107 c 1,27,28
 649 49 649 49 571.5 14.5 c 128,-1,29
 494 -20 494 -20 391 -20 c 0,30,31
 214 -20 214 -20 129.5 66 c 128,-1,32
 45 152 45 152 45 320 c 0,33,34
 45 355 45 355 48 394 c 128,-1,35
 51 433 51 433 59 475 c 0,36,37
 80 594 80 594 121.5 685.5 c 128,-1,38
 163 777 163 777 226.5 839 c 128,-1,39
 290 901 290 901 376 933 c 128,-1,40
 462 965 462 965 573 965 c 0,41,42
 673 965 673 965 737.5 929 c 128,-1,43
 802 893 802 893 838 833 c 1,44,45
 898 895 898 895 972.5 930 c 128,-1,46
 1047 965 1047 965 1135 965 c 0,47,48
 1282 965 1282 965 1359 911 c 128,-1,49
 1436 857 1436 857 1436 760 c 0,0,1
635 475 m 0,50,51
 647 542 647 542 653.5 597 c 128,-1,52
 660 652 660 652 660 696 c 0,53,54
 660 781 660 781 634 822.5 c 128,-1,55
 608 864 608 864 549 864 c 0,56,57
 505 864 505 864 472.5 840 c 128,-1,58
 440 816 440 816 414.5 767 c 128,-1,59
 389 718 389 718 369.5 645 c 128,-1,60
 350 572 350 572 333 475 c 0,61,62
 320 404 320 404 313.5 346 c 128,-1,63
 307 288 307 288 307 242 c 0,64,65
 307 161 307 161 330.5 120.5 c 128,-1,66
 354 80 354 80 411 80 c 0,67,68
 456 80 456 80 490 105 c 128,-1,69
 524 130 524 130 550.5 180 c 128,-1,70
 577 230 577 230 597.5 303.5 c 128,-1,71
 618 377 618 377 635 475 c 0,50,51
913 508 m 1,72,73
 980 515 980 515 1032 540.5 c 128,-1,74
 1084 566 1084 566 1119.5 602.5 c 128,-1,75
 1155 639 1155 639 1173.5 683.5 c 128,-1,76
 1192 728 1192 728 1192 773 c 0,77,78
 1192 815 1192 815 1171.5 836 c 128,-1,79
 1151 857 1151 857 1123 857 c 0,80,81
 1085 857 1085 857 1051.5 827 c 128,-1,82
 1018 797 1018 797 990.5 748 c 128,-1,83
 963 699 963 699 943 636.5 c 128,-1,84
 923 574 923 574 913 508 c 1,72,73
EndSplineSet
EndChar

StartChar: Tbar
Encoding: 358 358 294
Width: 1251
Flags: W
LayerCount: 2
Fore
SplineSet
167 0 m 1,0,-1
 179 73 l 1,1,-1
 397 100 l 1,2,-1
 486 609 l 1,3,-1
 207 609 l 1,4,-1
 228 731 l 1,5,-1
 508 731 l 1,6,-1
 597 1235 l 1,7,-1
 536 1235 l 2,8,9
 513 1235 513 1235 482 1233.5 c 128,-1,10
 451 1232 451 1232 419.5 1229 c 128,-1,11
 388 1226 388 1226 359 1222.5 c 128,-1,12
 330 1219 330 1219 311 1215 c 1,13,-1
 236 966 l 1,14,-1
 149 966 l 1,15,-1
 215 1341 l 1,16,-1
 1318 1341 l 1,17,-1
 1252 966 l 1,18,-1
 1164 966 l 1,19,-1
 1177 1215 l 1,20,21
 1159 1219 1159 1219 1130.5 1222 c 128,-1,22
 1102 1225 1102 1225 1070 1227.5 c 128,-1,23
 1038 1230 1038 1230 1006.5 1231.5 c 128,-1,24
 975 1233 975 1233 952 1233 c 2,25,-1
 893 1233 l 1,26,-1
 804 731 l 1,27,-1
 1085 731 l 1,28,-1
 1064 609 l 1,29,-1
 783 609 l 1,30,-1
 693 100 l 1,31,-1
 901 73 l 1,32,-1
 889 0 l 1,33,-1
 167 0 l 1,0,-1
EndSplineSet
EndChar

StartChar: tbar
Encoding: 359 359 295
Width: 569
Flags: W
LayerCount: 2
Fore
SplineSet
177 836 m 1,0,-1
 62 836 l 1,1,-1
 73 901 l 1,2,-1
 215 940 l 1,3,-1
 354 1153 l 1,4,-1
 500 1153 l 1,5,-1
 462 940 l 1,6,-1
 620 940 l 1,7,-1
 602 836 l 1,8,-1
 444 836 l 1,9,-1
 398 581 l 1,10,-1
 565 581 l 1,11,-1
 547 477 l 1,12,-1
 380 477 l 1,13,-1
 353 327 l 2,14,15
 346 291 346 291 341.5 258 c 128,-1,16
 337 225 337 225 337 207 c 0,17,18
 337 154 337 154 363.5 130 c 128,-1,19
 390 106 390 106 428 106 c 0,20,21
 452 106 452 106 479 113.5 c 128,-1,22
 506 121 506 121 538 132 c 1,23,-1
 564 62 l 1,24,25
 544 48 544 48 514.5 33.5 c 128,-1,26
 485 19 485 19 449.5 7 c 128,-1,27
 414 -5 414 -5 374.5 -12.5 c 128,-1,28
 335 -20 335 -20 296 -20 c 0,29,30
 232 -20 232 -20 188.5 -3.5 c 128,-1,31
 145 13 145 13 118 41 c 128,-1,32
 91 69 91 69 79 106 c 128,-1,33
 67 143 67 143 67 185 c 0,34,35
 67 214 67 214 72.5 252.5 c 128,-1,36
 78 291 78 291 85 329 c 2,37,-1
 112 477 l 1,38,-1
 10 477 l 1,39,-1
 28 581 l 1,40,-1
 131 581 l 1,41,-1
 177 836 l 1,0,-1
EndSplineSet
EndChar

StartChar: longs
Encoding: 383 383 319
Width: 682
Flags: W
LayerCount: 2
Fore
SplineSet
264 1066 m 2,0,1
 281 1165 281 1165 317 1236 c 128,-1,2
 353 1307 353 1307 407 1353 c 128,-1,3
 461 1399 461 1399 532.5 1420.5 c 128,-1,4
 604 1442 604 1442 693 1442 c 0,5,6
 737 1442 737 1442 781.5 1435.5 c 128,-1,7
 826 1429 826 1429 852 1421 c 1,8,-1
 813 1199 l 1,9,-1
 749 1199 l 1,10,-1
 737 1308 l 1,11,12
 729 1317 729 1317 717.5 1324.5 c 128,-1,13
 706 1332 706 1332 681 1332 c 0,14,15
 658 1332 658 1332 637.5 1321.5 c 128,-1,16
 617 1311 617 1311 599 1285 c 128,-1,17
 581 1259 581 1259 565.5 1213.5 c 128,-1,18
 550 1168 550 1168 538 1098 c 2,19,-1
 269 -436 l 1,20,-1
 0 -436 l 1,21,-1
 264 1066 l 2,0,1
EndSplineSet
EndChar

StartChar: florin
Encoding: 402 402 320
Width: 1024
Flags: W
LayerCount: 2
Fore
SplineSet
160 -285 m 1,0,-1
 331 693 l 1,1,-1
 162 693 l 1,2,-1
 177 762 l 1,3,-1
 350 796 l 1,4,-1
 389 1022 l 2,5,6
 402 1101 402 1101 433 1164 c 128,-1,7
 464 1227 464 1227 509.5 1271 c 128,-1,8
 555 1315 555 1315 615 1338.5 c 128,-1,9
 675 1362 675 1362 746 1362 c 0,10,11
 805 1362 805 1362 858 1357.5 c 128,-1,12
 911 1353 911 1353 952 1343 c 1,13,-1
 942 1119 l 1,14,-1
 878 1119 l 1,15,-1
 850 1232 l 1,16,17
 839 1240 839 1240 824 1246 c 128,-1,18
 809 1252 809 1252 787 1252 c 256,19,20
 765 1252 765 1252 749 1240 c 128,-1,21
 733 1228 733 1228 719.5 1200.5 c 128,-1,22
 706 1173 706 1173 695 1129 c 128,-1,23
 684 1085 684 1085 672 1021 c 2,24,-1
 632 797 l 1,25,-1
 871 797 l 1,26,-1
 852 693 l 1,27,-1
 613 693 l 1,28,-1
 442 -285 l 1,29,-1
 160 -285 l 1,0,-1
EndSplineSet
EndChar

StartChar: circumflex
Encoding: 710 710 327
Width: 682
Flags: W
LayerCount: 2
Fore
SplineSet
113 1118 m 1,0,-1
 119 1151 l 1,1,-1
 388 1444 l 1,2,-1
 601 1444 l 1,3,-1
 767 1151 l 1,4,-1
 761 1118 l 1,5,-1
 685 1118 l 1,6,-1
 465 1280 l 1,7,-1
 189 1118 l 1,8,-1
 113 1118 l 1,0,-1
EndSplineSet
EndChar

StartChar: caron
Encoding: 711 711 328
Width: 682
Flags: W
LayerCount: 2
Fore
SplineSet
821 1444 m 1,0,-1
 815 1411 l 1,1,-1
 546 1118 l 1,2,-1
 333 1118 l 1,3,-1
 167 1411 l 1,4,-1
 173 1444 l 1,5,-1
 249 1444 l 1,6,-1
 469 1282 l 1,7,-1
 745 1444 l 1,8,-1
 821 1444 l 1,0,-1
EndSplineSet
EndChar

StartChar: uni02C9
Encoding: 713 713 329
Width: 682
Flags: W
LayerCount: 2
Fore
SplineSet
129 1151 m 1,0,-1
 155 1301 l 1,1,-1
 783 1301 l 1,2,-1
 757 1151 l 1,3,-1
 129 1151 l 1,0,-1
EndSplineSet
EndChar

StartChar: breve
Encoding: 728 728 330
Width: 682
Flags: W
LayerCount: 2
Fore
SplineSet
431 1118 m 0,0,1
 365 1118 365 1118 318 1136 c 128,-1,2
 271 1154 271 1154 240.5 1186 c 128,-1,3
 210 1218 210 1218 195.5 1263.5 c 128,-1,4
 181 1309 181 1309 181 1363 c 0,5,6
 181 1400 181 1400 187 1441 c 1,7,-1
 308 1441 l 1,8,9
 312 1369 312 1369 355.5 1339.5 c 128,-1,10
 399 1310 399 1310 465 1310 c 256,11,12
 531 1310 531 1310 585 1339.5 c 128,-1,13
 639 1369 639 1369 668 1441 c 1,14,-1
 789 1441 l 1,15,16
 775 1371 775 1371 746 1312 c 128,-1,17
 717 1253 717 1253 673 1210 c 128,-1,18
 629 1167 629 1167 568.5 1142.5 c 128,-1,19
 508 1118 508 1118 431 1118 c 0,0,1
EndSplineSet
EndChar

StartChar: dotaccent
Encoding: 729 729 331
Width: 682
Flags: W
LayerCount: 2
Fore
SplineSet
307 1268 m 256,0,1
 307 1300 307 1300 319 1328 c 128,-1,2
 331 1356 331 1356 352 1376.5 c 128,-1,3
 373 1397 373 1397 401 1409 c 128,-1,4
 429 1421 429 1421 461 1421 c 256,5,6
 493 1421 493 1421 521 1409 c 128,-1,7
 549 1397 549 1397 569.5 1376.5 c 128,-1,8
 590 1356 590 1356 602 1328 c 128,-1,9
 614 1300 614 1300 614 1268 c 256,10,11
 614 1236 614 1236 602 1208 c 128,-1,12
 590 1180 590 1180 569.5 1159 c 128,-1,13
 549 1138 549 1138 521 1126 c 128,-1,14
 493 1114 493 1114 461 1114 c 256,15,16
 429 1114 429 1114 401 1126 c 128,-1,17
 373 1138 373 1138 352 1159 c 128,-1,18
 331 1180 331 1180 319 1208 c 128,-1,19
 307 1236 307 1236 307 1268 c 256,0,1
EndSplineSet
EndChar

StartChar: ring
Encoding: 730 730 332
Width: 682
Flags: W
LayerCount: 2
Fore
SplineSet
461 1059 m 256,0,1
 416 1059 416 1059 377.5 1076 c 128,-1,2
 339 1093 339 1093 310.5 1122 c 128,-1,3
 282 1151 282 1151 266 1189.5 c 128,-1,4
 250 1228 250 1228 250 1272 c 256,5,6
 250 1316 250 1316 266 1354.5 c 128,-1,7
 282 1393 282 1393 310.5 1421.5 c 128,-1,8
 339 1450 339 1450 377.5 1466.5 c 128,-1,9
 416 1483 416 1483 461 1483 c 256,10,11
 506 1483 506 1483 544.5 1466.5 c 128,-1,12
 583 1450 583 1450 611.5 1421.5 c 128,-1,13
 640 1393 640 1393 656 1354.5 c 128,-1,14
 672 1316 672 1316 672 1272 c 256,15,16
 672 1228 672 1228 656 1189.5 c 128,-1,17
 640 1151 640 1151 611.5 1122 c 128,-1,18
 583 1093 583 1093 544.5 1076 c 128,-1,19
 506 1059 506 1059 461 1059 c 256,0,1
461 1371 m 256,20,21
 441 1371 441 1371 423.5 1363 c 128,-1,22
 406 1355 406 1355 392.5 1341.5 c 128,-1,23
 379 1328 379 1328 371 1310 c 128,-1,24
 363 1292 363 1292 363 1272 c 256,25,26
 363 1252 363 1252 371 1234.5 c 128,-1,27
 379 1217 379 1217 392.5 1203.5 c 128,-1,28
 406 1190 406 1190 423.5 1182 c 128,-1,29
 441 1174 441 1174 461 1174 c 256,30,31
 481 1174 481 1174 498.5 1182 c 128,-1,32
 516 1190 516 1190 529.5 1203.5 c 128,-1,33
 543 1217 543 1217 551 1234.5 c 128,-1,34
 559 1252 559 1252 559 1272 c 256,35,36
 559 1292 559 1292 551 1310 c 128,-1,37
 543 1328 543 1328 529.5 1341.5 c 128,-1,38
 516 1355 516 1355 498.5 1363 c 128,-1,39
 481 1371 481 1371 461 1371 c 256,20,21
EndSplineSet
EndChar

StartChar: ogonek
Encoding: 731 731 333
Width: 682
Flags: W
LayerCount: 2
Fore
SplineSet
257 -430 m 0,0,1
 148 -430 148 -430 90 -379 c 128,-1,2
 32 -328 32 -328 32 -229 c 0,3,4
 32 -195 32 -195 41.5 -160 c 128,-1,5
 51 -125 51 -125 68 -92.5 c 128,-1,6
 85 -60 85 -60 108.5 -32.5 c 128,-1,7
 132 -5 132 -5 160 14 c 1,8,-1
 292 14 l 1,9,10
 260 -35 260 -35 239 -94 c 128,-1,11
 218 -153 218 -153 218 -207 c 0,12,13
 218 -262 218 -262 244 -291 c 128,-1,14
 270 -320 270 -320 322 -320 c 0,15,16
 345 -320 345 -320 375 -313 c 128,-1,17
 405 -306 405 -306 432 -294 c 1,18,-1
 462 -377 l 1,19,20
 422 -400 422 -400 369.5 -415 c 128,-1,21
 317 -430 317 -430 257 -430 c 0,0,1
EndSplineSet
EndChar

StartChar: tilde
Encoding: 732 732 334
Width: 682
Flags: W
LayerCount: 2
Fore
SplineSet
555 1090 m 0,0,1
 529 1090 529 1090 506.5 1096.5 c 128,-1,2
 484 1103 484 1103 464.5 1112.5 c 128,-1,3
 445 1122 445 1122 428 1134.5 c 128,-1,4
 411 1147 411 1147 396 1159 c 0,5,6
 386 1167 386 1167 374 1178 c 128,-1,7
 362 1189 362 1189 348.5 1199 c 128,-1,8
 335 1209 335 1209 320.5 1216 c 128,-1,9
 306 1223 306 1223 292 1223 c 0,10,11
 254 1223 254 1223 233 1197 c 128,-1,12
 212 1171 212 1171 193 1108 c 1,13,-1
 94 1108 l 1,14,15
 107 1164 107 1164 128 1216 c 128,-1,16
 149 1268 149 1268 180.5 1307.5 c 128,-1,17
 212 1347 212 1347 256.5 1371 c 128,-1,18
 301 1395 301 1395 363 1395 c 0,19,20
 415 1395 415 1395 453.5 1373.5 c 128,-1,21
 492 1352 492 1352 523 1327 c 0,22,23
 533 1319 533 1319 545.5 1308.5 c 128,-1,24
 558 1298 558 1298 571.5 1288 c 128,-1,25
 585 1278 585 1278 599.5 1271 c 128,-1,26
 614 1264 614 1264 627 1264 c 0,27,28
 664 1264 664 1264 685 1289.5 c 128,-1,29
 706 1315 706 1315 726 1376 c 1,30,-1
 825 1376 l 1,31,32
 811 1320 811 1320 790.5 1268.5 c 128,-1,33
 770 1217 770 1217 738 1177 c 128,-1,34
 706 1137 706 1137 661 1113.5 c 128,-1,35
 616 1090 616 1090 555 1090 c 0,0,1
EndSplineSet
EndChar

StartChar: hungarumlaut
Encoding: 733 733 335
Width: 682
Flags: W
LayerCount: 2
Fore
SplineSet
168 1118 m 1,0,-1
 174 1151 l 1,1,-1
 364 1444 l 1,2,-1
 615 1444 l 1,3,-1
 608 1407 l 1,4,-1
 265 1118 l 1,5,-1
 168 1118 l 1,0,-1
519 1118 m 1,6,-1
 525 1151 l 1,7,-1
 714 1444 l 1,8,-1
 966 1444 l 1,9,-1
 959 1407 l 1,10,-1
 615 1118 l 1,11,-1
 519 1118 l 1,6,-1
EndSplineSet
EndChar

StartChar: tonos
Encoding: 900 900 336
Width: 682
Flags: W
LayerCount: 2
Fore
SplineSet
228 1108 m 1,0,-1
 228 1141 l 1,1,-1
 351 1512 l 1,2,-1
 636 1512 l 1,3,-1
 636 1475 l 1,4,-1
 314 1108 l 1,5,-1
 228 1108 l 1,0,-1
EndSplineSet
EndChar

StartChar: dieresistonos
Encoding: 901 901 337
Width: 682
Flags: W
LayerCount: 2
Fore
SplineSet
583 1122 m 0,0,1
 561 1122 561 1122 541 1130.5 c 128,-1,2
 521 1139 521 1139 506 1154 c 128,-1,3
 491 1169 491 1169 482.5 1189 c 128,-1,4
 474 1209 474 1209 474 1231 c 256,5,6
 474 1253 474 1253 482.5 1272.5 c 128,-1,7
 491 1292 491 1292 506 1306.5 c 128,-1,8
 521 1321 521 1321 541 1329.5 c 128,-1,9
 561 1338 561 1338 583 1338 c 0,10,11
 606 1338 606 1338 625.5 1329.5 c 128,-1,12
 645 1321 645 1321 659.5 1306.5 c 128,-1,13
 674 1292 674 1292 682 1272.5 c 128,-1,14
 690 1253 690 1253 690 1231 c 256,15,16
 690 1209 690 1209 682 1189 c 128,-1,17
 674 1169 674 1169 659.5 1154 c 128,-1,18
 645 1139 645 1139 625.5 1130.5 c 128,-1,19
 606 1122 606 1122 583 1122 c 0,0,1
101 1122 m 0,20,21
 79 1122 79 1122 59 1130.5 c 128,-1,22
 39 1139 39 1139 24 1154 c 128,-1,23
 9 1169 9 1169 0.5 1189 c 128,-1,24
 -8 1209 -8 1209 -8 1231 c 256,25,26
 -8 1253 -8 1253 0.5 1272.5 c 128,-1,27
 9 1292 9 1292 24 1306.5 c 128,-1,28
 39 1321 39 1321 59 1329.5 c 128,-1,29
 79 1338 79 1338 101 1338 c 256,30,31
 123 1338 123 1338 142.5 1329.5 c 128,-1,32
 162 1321 162 1321 176.5 1306.5 c 128,-1,33
 191 1292 191 1292 199.5 1272.5 c 128,-1,34
 208 1253 208 1253 208 1231 c 256,35,36
 208 1209 208 1209 200 1189 c 128,-1,37
 192 1169 192 1169 177.5 1154 c 128,-1,38
 163 1139 163 1139 143.5 1130.5 c 128,-1,39
 124 1122 124 1122 101 1122 c 0,20,21
227 1108 m 1,40,-1
 227 1141 l 1,41,-1
 340 1512 l 1,42,-1
 582 1512 l 1,43,-1
 582 1475 l 1,44,-1
 313 1108 l 1,45,-1
 227 1108 l 1,40,-1
EndSplineSet
EndChar

StartChar: Gamma
Encoding: 915 915 349
Width: 1237
Flags: W
LayerCount: 2
Fore
SplineSet
643 0 m 1,0,-1
 -20 0 l 1,1,-1
 -7 73 l 1,2,-1
 169 99 l 1,3,-1
 370 1241 l 1,4,-1
 203 1268 l 1,5,-1
 217 1341 l 1,6,-1
 1246 1341 l 1,7,-1
 1191 936 l 1,8,-1
 1108 936 l 1,9,-1
 1089 1215 l 1,10,11
 1075 1218 1075 1218 1040.5 1221.5 c 128,-1,12
 1006 1225 1006 1225 959.5 1228 c 128,-1,13
 913 1231 913 1231 859 1233 c 128,-1,14
 805 1235 805 1235 753 1235 c 2,15,-1
 664 1235 l 1,16,-1
 464 99 l 1,17,-1
 656 73 l 1,18,-1
 643 0 l 1,0,-1
EndSplineSet
EndChar

StartChar: Delta
Encoding: 916 916 350
Width: 1284
Flags: W
LayerCount: 2
Fore
SplineSet
1092 0 m 1,0,-1
 -68 0 l 1,1,-1
 -53 80 l 1,2,-1
 710 1352 l 1,3,-1
 900 1352 l 1,4,-1
 1108 80 l 1,5,-1
 1092 0 l 1,0,-1
660 1060 m 1,6,-1
 106 119 l 1,7,-1
 798 119 l 1,8,-1
 660 1060 l 1,6,-1
EndSplineSet
EndChar

StartChar: Theta
Encoding: 920 920 354
Width: 1563
Flags: W
LayerCount: 2
Fore
SplineSet
1202 843 m 0,0,1
 1202 936 1202 936 1181 1011 c 128,-1,2
 1160 1086 1160 1086 1119.5 1139.5 c 128,-1,3
 1079 1193 1079 1193 1019 1222 c 128,-1,4
 959 1251 959 1251 882 1251 c 0,5,6
 796 1251 796 1251 725 1214.5 c 128,-1,7
 654 1178 654 1178 597.5 1117.5 c 128,-1,8
 541 1057 541 1057 499.5 978.5 c 128,-1,9
 458 900 458 900 430 815 c 128,-1,10
 402 730 402 730 388.5 644.5 c 128,-1,11
 375 559 375 559 375 485 c 0,12,13
 375 393 375 393 395.5 319 c 128,-1,14
 416 245 416 245 455.5 192.5 c 128,-1,15
 495 140 495 140 553.5 111.5 c 128,-1,16
 612 83 612 83 688 83 c 0,17,18
 774 83 774 83 845.5 118.5 c 128,-1,19
 917 154 917 154 974.5 214 c 128,-1,20
 1032 274 1032 274 1074.5 352 c 128,-1,21
 1117 430 1117 430 1145.5 514 c 128,-1,22
 1174 598 1174 598 1188 683.5 c 128,-1,23
 1202 769 1202 769 1202 843 c 0,0,1
673 -20 m 0,24,25
 537 -20 537 -20 426.5 20.5 c 128,-1,26
 316 61 316 61 237.5 133.5 c 128,-1,27
 159 206 159 206 116.5 305.5 c 128,-1,28
 74 405 74 405 74 524 c 0,29,30
 74 637 74 637 98 742.5 c 128,-1,31
 122 848 122 848 169.5 940.5 c 128,-1,32
 217 1033 217 1033 287 1109.5 c 128,-1,33
 357 1186 357 1186 449 1240.5 c 128,-1,34
 541 1295 541 1295 655 1325.5 c 128,-1,35
 769 1356 769 1356 904 1356 c 0,36,37
 1040 1356 1040 1356 1150.5 1315.5 c 128,-1,38
 1261 1275 1261 1275 1339.5 1202.5 c 128,-1,39
 1418 1130 1418 1130 1460.5 1030 c 128,-1,40
 1503 930 1503 930 1503 812 c 0,41,42
 1503 715 1503 715 1483 615.5 c 128,-1,43
 1463 516 1463 516 1420.5 423.5 c 128,-1,44
 1378 331 1378 331 1312 250 c 128,-1,45
 1246 169 1246 169 1154 109 c 128,-1,46
 1062 49 1062 49 942 14.5 c 128,-1,47
 822 -20 822 -20 673 -20 c 0,24,25
955 780 m 1,48,-1
 1001 882 l 1,49,-1
 1069 882 l 1,50,-1
 989 470 l 1,51,-1
 921 470 l 1,52,-1
 915 570 l 1,53,-1
 622 570 l 1,54,-1
 576 470 l 1,55,-1
 508 470 l 1,56,-1
 588 882 l 1,57,-1
 656 882 l 1,58,-1
 662 780 l 1,59,-1
 955 780 l 1,48,-1
EndSplineSet
EndChar

StartChar: Lambda
Encoding: 923 923 357
Width: 1366
Flags: W
LayerCount: 2
Fore
SplineSet
699 1105 m 1,0,-1
 143 100 l 1,1,-1
 287 73 l 1,2,-1
 275 0 l 1,3,-1
 -120 0 l 1,4,-1
 -108 73 l 1,5,-1
 2 100 l 1,6,-1
 702 1352 l 1,7,-1
 952 1352 l 1,8,-1
 1109 100 l 1,9,-1
 1233 73 l 1,10,-1
 1221 0 l 1,11,-1
 629 0 l 1,12,-1
 641 73 l 1,13,-1
 797 100 l 1,14,-1
 699 1105 l 1,0,-1
EndSplineSet
EndChar

StartChar: Xi
Encoding: 926 926 360
Width: 1350
Flags: W
LayerCount: 2
Fore
SplineSet
912 780 m 1,0,-1
 957 882 l 1,1,-1
 1025 882 l 1,2,-1
 941 450 l 1,3,-1
 873 450 l 1,4,-1
 871 570 l 1,5,-1
 474 570 l 1,6,-1
 424 450 l 1,7,-1
 356 450 l 1,8,-1
 440 882 l 1,9,-1
 508 882 l 1,10,-1
 515 780 l 1,11,-1
 912 780 l 1,0,-1
655 1118 m 2,12,13
 632 1118 632 1118 596 1117.5 c 128,-1,14
 560 1117 560 1117 520 1115.5 c 128,-1,15
 480 1114 480 1114 440 1111 c 128,-1,16
 400 1108 400 1108 368 1104 c 1,17,-1
 300 940 l 1,18,-1
 217 940 l 1,19,-1
 315 1341 l 1,20,-1
 1330 1341 l 1,21,-1
 1272 940 l 1,22,-1
 1189 940 l 1,23,-1
 1185 1104 l 1,24,25
 1154 1108 1154 1108 1115 1111 c 128,-1,26
 1076 1114 1076 1114 1037 1115.5 c 128,-1,27
 998 1117 998 1117 962.5 1117.5 c 128,-1,28
 927 1118 927 1118 904 1118 c 2,29,-1
 655 1118 l 2,12,13
748 243 m 2,30,31
 873 243 873 243 955 248 c 128,-1,32
 1037 253 1037 253 1069 259 c 1,33,-1
 1141 444 l 1,34,-1
 1224 444 l 1,35,-1
 1120 0 l 1,36,-1
 6 0 l 1,37,-1
 72 444 l 1,38,-1
 154 444 l 1,39,-1
 154 259 l 1,40,41
 184 253 184 253 259 248 c 128,-1,42
 334 243 334 243 459 243 c 2,43,-1
 748 243 l 2,30,31
EndSplineSet
EndChar

StartChar: Pi
Encoding: 928 928 362
Width: 1593
Flags: W
LayerCount: 2
Fore
SplineSet
-15 0 m 1,0,-1
 -2 73 l 1,1,-1
 172 100 l 1,2,-1
 373 1242 l 1,3,-1
 207 1268 l 1,4,-1
 221 1341 l 1,5,-1
 1645 1341 l 1,6,-1
 1631 1268 l 1,7,-1
 1454 1242 l 1,8,-1
 1253 100 l 1,9,-1
 1419 73 l 1,10,-1
 1408 0 l 1,11,-1
 772 0 l 1,12,-1
 783 73 l 1,13,-1
 961 100 l 1,14,-1
 1161 1231 l 1,15,-1
 665 1231 l 1,16,-1
 465 100 l 1,17,-1
 631 73 l 1,18,-1
 620 0 l 1,19,-1
 -15 0 l 1,0,-1
EndSplineSet
EndChar

StartChar: Sigma
Encoding: 931 931 364
Width: 1268
Flags: W
LayerCount: 2
Fore
SplineSet
534 1231 m 1,0,-1
 765 780 l 1,1,-1
 755 712 l 1,2,-1
 284 240 l 1,3,-1
 565 240 l 2,4,5
 627 240 627 240 694 241.5 c 128,-1,6
 761 243 761 243 820 245 c 128,-1,7
 879 247 879 247 922.5 250 c 128,-1,8
 966 253 966 253 982 256 c 1,9,-1
 1068 444 l 1,10,-1
 1160 444 l 1,11,-1
 1052 0 l 1,12,-1
 -34 0 l 1,13,-1
 -16 94 l 1,14,-1
 520 641 l 1,15,-1
 214 1242 l 1,16,-1
 234 1341 l 1,17,-1
 1245 1341 l 1,18,-1
 1182 1000 l 1,19,-1
 1092 1000 l 1,20,-1
 1098 1217 l 1,21,22
 1069 1221 1069 1221 1032.5 1224 c 128,-1,23
 996 1227 996 1227 957.5 1228.5 c 128,-1,24
 919 1230 919 1230 881.5 1230.5 c 128,-1,25
 844 1231 844 1231 813 1231 c 2,26,-1
 534 1231 l 1,0,-1
EndSplineSet
EndChar

StartChar: Phi
Encoding: 934 934 367
Width: 1616
Flags: W
LayerCount: 2
Fore
SplineSet
989 320 m 2,0,1
 1060 320 1060 320 1118 346 c 128,-1,2
 1176 372 1176 372 1217 423 c 128,-1,3
 1258 474 1258 474 1280.5 550 c 128,-1,4
 1303 626 1303 626 1303 727 c 0,5,6
 1303 806 1303 806 1283.5 865 c 128,-1,7
 1264 924 1264 924 1230.5 962.5 c 128,-1,8
 1197 1001 1197 1001 1152.5 1020 c 128,-1,9
 1108 1039 1108 1039 1058 1039 c 2,10,-1
 1026 1039 l 1,11,-1
 911 320 l 1,12,-1
 989 320 l 2,0,1
656 1039 m 2,13,14
 585 1039 585 1039 527 1013 c 128,-1,15
 469 987 469 987 428 936 c 128,-1,16
 387 885 387 885 364.5 809 c 128,-1,17
 342 733 342 733 342 632 c 0,18,19
 342 552 342 552 361.5 493.5 c 128,-1,20
 381 435 381 435 414.5 396.5 c 128,-1,21
 448 358 448 358 492.5 339 c 128,-1,22
 537 320 537 320 587 320 c 2,23,-1
 628 320 l 1,24,-1
 754 1039 l 1,25,-1
 656 1039 l 2,13,14
610 222 m 1,26,-1
 539 222 l 2,27,28
 423 222 423 222 335.5 253 c 128,-1,29
 248 284 248 284 189 338.5 c 128,-1,30
 130 393 130 393 100 469 c 128,-1,31
 70 545 70 545 70 635 c 0,32,33
 70 747 70 747 106.5 839.5 c 128,-1,34
 143 932 143 932 215 998 c 128,-1,35
 287 1064 287 1064 394.5 1100.5 c 128,-1,36
 502 1137 502 1137 644 1137 c 2,37,-1
 773 1137 l 1,38,-1
 790 1242 l 1,39,-1
 624 1268 l 1,40,-1
 637 1341 l 1,41,-1
 1253 1341 l 1,42,-1
 1240 1268 l 1,43,-1
 1062 1242 l 1,44,-1
 1045 1137 l 1,45,-1
 1106 1137 l 2,46,47
 1216 1137 1216 1137 1304.5 1108 c 128,-1,48
 1393 1079 1393 1079 1455 1025 c 128,-1,49
 1517 971 1517 971 1550 895 c 128,-1,50
 1583 819 1583 819 1583 726 c 0,51,52
 1583 614 1583 614 1545.5 521 c 128,-1,53
 1508 428 1508 428 1434.5 361.5 c 128,-1,54
 1361 295 1361 295 1252 258.5 c 128,-1,55
 1143 222 1143 222 1001 222 c 2,56,-1
 882 222 l 1,57,-1
 862 100 l 1,58,-1
 1027 73 l 1,59,-1
 1015 0 l 1,60,-1
 399 0 l 1,61,-1
 411 73 l 1,62,-1
 590 100 l 1,63,-1
 610 222 l 1,26,-1
EndSplineSet
EndChar

StartChar: Psi
Encoding: 936 936 369
Width: 1638
Flags: W
LayerCount: 2
Fore
SplineSet
869 100 m 1,0,-1
 1046 73 l 1,1,-1
 1033 0 l 1,2,-1
 397 0 l 1,3,-1
 410 73 l 1,4,-1
 597 100 l 1,5,-1
 668 506 l 1,6,7
 553 506 553 506 464 531 c 128,-1,8
 375 556 375 556 314 602 c 128,-1,9
 253 648 253 648 221.5 714.5 c 128,-1,10
 190 781 190 781 190 864 c 0,11,12
 190 893 190 893 193 928 c 128,-1,13
 196 963 196 963 201 987 c 2,14,-1
 246 1242 l 1,15,-1
 129 1268 l 1,16,-1
 142 1341 l 1,17,-1
 546 1341 l 1,18,-1
 482 982 l 2,19,20
 475 945 475 945 472 915.5 c 128,-1,21
 469 886 469 886 469 854 c 0,22,23
 469 798 469 798 487 752.5 c 128,-1,24
 505 707 505 707 535 674.5 c 128,-1,25
 565 642 565 642 604 624 c 128,-1,26
 643 606 643 606 686 605 c 1,27,-1
 798 1242 l 1,28,-1
 671 1268 l 1,29,-1
 684 1341 l 1,30,-1
 1220 1341 l 1,31,-1
 1207 1268 l 1,32,-1
 1070 1242 l 1,33,-1
 958 605 l 1,34,35
 1015 605 1015 605 1068 624.5 c 128,-1,36
 1121 644 1121 644 1164.5 684 c 128,-1,37
 1208 724 1208 724 1239.5 784.5 c 128,-1,38
 1271 845 1271 845 1285 926 c 2,39,-1
 1359 1341 l 1,40,-1
 1763 1341 l 1,41,-1
 1750 1268 l 1,42,-1
 1623 1242 l 1,43,-1
 1568 931 l 2,44,45
 1548 821 1548 821 1498.5 741 c 128,-1,46
 1449 661 1449 661 1370 609 c 128,-1,47
 1291 557 1291 557 1183 531.5 c 128,-1,48
 1075 506 1075 506 940 506 c 1,49,-1
 869 100 l 1,0,-1
EndSplineSet
EndChar

StartChar: Omega
Encoding: 937 937 370
Width: 1528
Flags: W
LayerCount: 2
Fore
SplineSet
863 1251 m 0,0,1
 745 1251 745 1251 659 1213 c 128,-1,2
 573 1175 573 1175 517 1107 c 128,-1,3
 461 1039 461 1039 434 945.5 c 128,-1,4
 407 852 407 852 407 742 c 0,5,6
 407 608 407 608 469 519 c 128,-1,7
 531 430 531 430 644 404 c 1,8,-1
 598 0 l 1,9,-1
 19 0 l 1,10,-1
 64 370 l 1,11,-1
 130 370 l 1,12,-1
 164 236 l 1,13,14
 179 233 179 233 205 230 c 128,-1,15
 231 227 231 227 266 225 c 128,-1,16
 301 223 301 223 344 221.5 c 128,-1,17
 387 220 387 220 435 220 c 2,18,-1
 502 220 l 1,19,-1
 513 327 l 1,20,21
 427 343 427 343 352.5 380 c 128,-1,22
 278 417 278 417 222 470.5 c 128,-1,23
 166 524 166 524 134 593 c 128,-1,24
 102 662 102 662 102 743 c 0,25,26
 102 888 102 888 157.5 1002 c 128,-1,27
 213 1116 213 1116 314 1194.5 c 128,-1,28
 415 1273 415 1273 558 1314.5 c 128,-1,29
 701 1356 701 1356 875 1356 c 0,30,31
 1023 1356 1023 1356 1138 1325.5 c 128,-1,32
 1253 1295 1253 1295 1332 1237 c 128,-1,33
 1411 1179 1411 1179 1452 1096.5 c 128,-1,34
 1493 1014 1493 1014 1493 909 c 0,35,36
 1493 785 1493 785 1451.5 685 c 128,-1,37
 1410 585 1410 585 1336 511 c 128,-1,38
 1262 437 1262 437 1160 390.5 c 128,-1,39
 1058 344 1058 344 936 327 c 1,40,-1
 905 220 l 1,41,-1
 959 220 l 2,42,43
 1007 220 1007 220 1052 221.5 c 128,-1,44
 1097 223 1097 223 1134.5 225 c 128,-1,45
 1172 227 1172 227 1201 230 c 128,-1,46
 1230 233 1230 233 1246 236 c 1,47,-1
 1326 370 l 1,48,-1
 1412 370 l 1,49,-1
 1329 0 l 1,50,-1
 730 0 l 1,51,-1
 830 404 l 1,52,53
 924 417 924 417 992 460 c 128,-1,54
 1060 503 1060 503 1103.5 568 c 128,-1,55
 1147 633 1147 633 1167.5 716.5 c 128,-1,56
 1188 800 1188 800 1188 895 c 0,57,58
 1188 992 1188 992 1163.5 1060 c 128,-1,59
 1139 1128 1139 1128 1095.5 1170.5 c 128,-1,60
 1052 1213 1052 1213 992.5 1232 c 128,-1,61
 933 1251 933 1251 863 1251 c 0,0,1
EndSplineSet
EndChar

StartChar: alpha
Encoding: 945 945 378
Width: 1133
Flags: W
LayerCount: 2
Fore
SplineSet
960 80 m 1,0,-1
 1017 65 l 1,1,-1
 1004 0 l 1,2,-1
 721 0 l 1,3,4
 705 44 705 44 694 98.5 c 128,-1,5
 683 153 683 153 678 204 c 1,6,7
 645 152 645 152 609.5 110.5 c 128,-1,8
 574 69 574 69 534.5 39.5 c 128,-1,9
 495 10 495 10 450 -5.5 c 128,-1,10
 405 -21 405 -21 351 -21 c 0,11,12
 277 -21 277 -21 217.5 4 c 128,-1,13
 158 29 158 29 115.5 76.5 c 128,-1,14
 73 124 73 124 50 192.5 c 128,-1,15
 27 261 27 261 27 347 c 0,16,17
 27 496 27 496 69 611.5 c 128,-1,18
 111 727 111 727 181.5 805.5 c 128,-1,19
 252 884 252 884 344 925 c 128,-1,20
 436 966 436 966 537 966 c 0,21,22
 596 966 596 966 640 948 c 128,-1,23
 684 930 684 930 716 896.5 c 128,-1,24
 748 863 748 863 768.5 815.5 c 128,-1,25
 789 768 789 768 800 709 c 1,26,-1
 892 940 l 1,27,-1
 1159 940 l 1,28,-1
 1151 900 l 1,29,30
 1125 872 1125 872 1090.5 824.5 c 128,-1,31
 1056 777 1056 777 1016.5 719.5 c 128,-1,32
 977 662 977 662 936 598.5 c 128,-1,33
 895 535 895 535 858 475 c 1,34,35
 873 332 873 332 894.5 235 c 128,-1,36
 916 138 916 138 960 80 c 1,0,-1
673 542 m 0,37,38
 673 698 673 698 636 782 c 128,-1,39
 599 866 599 866 536 866 c 0,40,41
 496 866 496 866 462.5 840 c 128,-1,42
 429 814 429 814 402 770 c 128,-1,43
 375 726 375 726 354.5 669.5 c 128,-1,44
 334 613 334 613 320.5 552 c 128,-1,45
 307 491 307 491 300 429.5 c 128,-1,46
 293 368 293 368 293 316 c 0,47,48
 293 203 293 203 319.5 150.5 c 128,-1,49
 346 98 346 98 387 98 c 0,50,51
 430 98 430 98 468.5 122.5 c 128,-1,52
 507 147 507 147 542.5 190 c 128,-1,53
 578 233 578 233 610 291 c 128,-1,54
 642 349 642 349 672 416 c 1,55,56
 672 422 672 422 672.5 441 c 128,-1,57
 673 460 673 460 673 481.5 c 128,-1,58
 673 503 673 503 673 521 c 128,-1,59
 673 539 673 539 673 542 c 0,37,38
EndSplineSet
EndChar

StartChar: beta
Encoding: 946 946 379
Width: 1049
Flags: W
LayerCount: 2
Fore
SplineSet
697 1442 m 0,0,1
 774 1442 774 1442 836.5 1422.5 c 128,-1,2
 899 1403 899 1403 943.5 1366 c 128,-1,3
 988 1329 988 1329 1012.5 1275 c 128,-1,4
 1037 1221 1037 1221 1037 1153 c 0,5,6
 1037 1058 1037 1058 1008.5 989.5 c 128,-1,7
 980 921 980 921 935 874.5 c 128,-1,8
 890 828 890 828 835.5 801 c 128,-1,9
 781 774 781 774 729 763 c 1,10,-1
 728 753 l 1,11,12
 778 742 778 742 821 717 c 128,-1,13
 864 692 864 692 895.5 653.5 c 128,-1,14
 927 615 927 615 945 563.5 c 128,-1,15
 963 512 963 512 963 448 c 0,16,17
 963 334 963 334 926 246.5 c 128,-1,18
 889 159 889 159 824 99.5 c 128,-1,19
 759 40 759 40 669.5 10 c 128,-1,20
 580 -20 580 -20 475 -20 c 0,21,22
 418 -20 418 -20 369 -6 c 128,-1,23
 320 8 320 8 289 28 c 1,24,-1
 207 -436 l 1,25,-1
 -63 -436 l 1,26,-1
 179 941 l 2,27,28
 204 1085 204 1085 251 1181 c 128,-1,29
 298 1277 298 1277 364.5 1335 c 128,-1,30
 431 1393 431 1393 514.5 1417.5 c 128,-1,31
 598 1442 598 1442 697 1442 c 0,0,1
674 1342 m 0,32,33
 627 1342 627 1342 594.5 1326 c 128,-1,34
 562 1310 562 1310 537 1266 c 128,-1,35
 512 1222 512 1222 491.5 1142.5 c 128,-1,36
 471 1063 471 1063 449 937 c 2,37,-1
 305 130 l 1,38,39
 329 114 329 114 372 101 c 128,-1,40
 415 88 415 88 461 88 c 0,41,42
 501 88 501 88 543.5 112.5 c 128,-1,43
 586 137 586 137 620 182.5 c 128,-1,44
 654 228 654 228 676 292.5 c 128,-1,45
 698 357 698 357 698 437 c 0,46,47
 698 568 698 568 642.5 632 c 128,-1,48
 587 696 587 696 490 702 c 1,49,-1
 506 800 l 1,50,51
 582 801 582 801 634.5 829.5 c 128,-1,52
 687 858 687 858 720 906 c 128,-1,53
 753 954 753 954 768 1015.5 c 128,-1,54
 783 1077 783 1077 783 1144 c 0,55,56
 783 1199 783 1199 773.5 1237 c 128,-1,57
 764 1275 764 1275 748 1298.5 c 128,-1,58
 732 1322 732 1322 712.5 1332 c 128,-1,59
 693 1342 693 1342 674 1342 c 0,32,33
EndSplineSet
EndChar

StartChar: gamma
Encoding: 947 947 380
Width: 852
Flags: W
LayerCount: 2
Fore
SplineSet
847 940 m 1,0,1
 850 934 850 934 851 918.5 c 128,-1,2
 852 903 852 903 852 887 c 0,3,4
 852 863 852 863 840.5 828 c 128,-1,5
 829 793 829 793 810 750 c 128,-1,6
 791 707 791 707 766 658.5 c 128,-1,7
 741 610 741 610 713 559 c 2,8,-1
 444 66 l 1,9,10
 442 21 442 21 436 -44.5 c 128,-1,11
 430 -110 430 -110 421.5 -179.5 c 128,-1,12
 413 -249 413 -249 402.5 -314.5 c 128,-1,13
 392 -380 392 -380 380 -425 c 1,14,-1
 138 -436 l 1,15,-1
 97 -407 l 1,16,17
 104 -371 104 -371 116.5 -319.5 c 128,-1,18
 129 -268 129 -268 144.5 -210.5 c 128,-1,19
 160 -153 160 -153 178 -94 c 128,-1,20
 196 -35 196 -35 216 15 c 1,21,22
 201 145 201 145 182.5 266.5 c 128,-1,23
 164 388 164 388 144.5 495.5 c 128,-1,24
 125 603 125 603 104 693.5 c 128,-1,25
 83 784 83 784 62 853 c 1,26,-1
 11 875 l 1,27,-1
 23 940 l 1,28,-1
 333 940 l 1,29,30
 351 864 351 864 365.5 778.5 c 128,-1,31
 380 693 380 693 392 604.5 c 128,-1,32
 404 516 404 516 414 427 c 128,-1,33
 424 338 424 338 433 256 c 1,34,-1
 587 562 l 1,35,36
 631 652 631 652 652.5 708 c 128,-1,37
 674 764 674 764 674 799 c 0,38,39
 674 829 674 829 654.5 849 c 128,-1,40
 635 869 635 869 616 875 c 1,41,-1
 628 940 l 1,42,-1
 847 940 l 1,0,1
EndSplineSet
EndChar

StartChar: delta
Encoding: 948 948 381
Width: 1049
Flags: W
LayerCount: 2
Fore
SplineSet
406 -20 m 0,0,1
 316 -20 316 -20 246 7 c 128,-1,2
 176 34 176 34 128.5 83 c 128,-1,3
 81 132 81 132 56.5 201 c 128,-1,4
 32 270 32 270 32 353 c 0,5,6
 32 467 32 467 72 552.5 c 128,-1,7
 112 638 112 638 176.5 700.5 c 128,-1,8
 241 763 241 763 323 804 c 128,-1,9
 405 845 405 845 490 870 c 1,10,11
 461 901 461 901 434.5 936.5 c 128,-1,12
 408 972 408 972 388 1010 c 128,-1,13
 368 1048 368 1048 356 1088 c 128,-1,14
 344 1128 344 1128 344 1169 c 0,15,16
 344 1239 344 1239 375.5 1289 c 128,-1,17
 407 1339 407 1339 460.5 1370.5 c 128,-1,18
 514 1402 514 1402 586 1416.5 c 128,-1,19
 658 1431 658 1431 739 1431 c 0,20,21
 806 1431 806 1431 872 1419 c 128,-1,22
 938 1407 938 1407 989 1393 c 1,23,-1
 951 1170 l 1,24,-1
 884 1170 l 1,25,-1
 861 1284 l 1,26,27
 841 1307 841 1307 804.5 1319 c 128,-1,28
 768 1331 768 1331 727 1331 c 0,29,30
 667 1331 667 1331 629.5 1295 c 128,-1,31
 592 1259 592 1259 592 1185 c 0,32,33
 592 1149 592 1149 606.5 1114.5 c 128,-1,34
 621 1080 621 1080 646 1045.5 c 128,-1,35
 671 1011 671 1011 705 975 c 128,-1,36
 739 939 739 939 777 901 c 1,37,38
 830 845 830 845 864 792.5 c 128,-1,39
 898 740 898 740 918 689.5 c 128,-1,40
 938 639 938 639 946 590.5 c 128,-1,41
 954 542 954 542 954 494 c 0,42,43
 954 435 954 435 939.5 374 c 128,-1,44
 925 313 925 313 896 256 c 128,-1,45
 867 199 867 199 822 149 c 128,-1,46
 777 99 777 99 716.5 61.5 c 128,-1,47
 656 24 656 24 578.5 2 c 128,-1,48
 501 -20 501 -20 406 -20 c 0,0,1
429 79 m 0,49,50
 481 79 481 79 520.5 101 c 128,-1,51
 560 123 560 123 588 159 c 128,-1,52
 616 195 616 195 634.5 240.5 c 128,-1,53
 653 286 653 286 663.5 333 c 128,-1,54
 674 380 674 380 678.5 424.5 c 128,-1,55
 683 469 683 469 683 503 c 0,56,57
 683 588 683 588 651.5 657 c 128,-1,58
 620 726 620 726 558 786 c 1,59,60
 516 769 516 769 474.5 738 c 128,-1,61
 433 707 433 707 398 658 c 0,62,63
 356 598 356 598 326.5 509 c 128,-1,64
 297 420 297 420 297 308 c 256,65,66
 297 196 297 196 331 137.5 c 128,-1,67
 365 79 365 79 429 79 c 0,49,50
EndSplineSet
EndChar

StartChar: epsilon
Encoding: 949 949 382
Width: 840
Flags: W
LayerCount: 2
Fore
SplineSet
550 965 m 0,0,1
 583 965 583 965 620 962.5 c 128,-1,2
 657 960 657 960 693.5 955.5 c 128,-1,3
 730 951 730 951 764 944.5 c 128,-1,4
 798 938 798 938 825 929 c 1,5,-1
 783 713 l 1,6,-1
 715 713 l 1,7,-1
 692 828 l 1,8,9
 675 843 675 843 639 855 c 128,-1,10
 603 867 603 867 564 867 c 0,11,12
 492 867 492 867 447 821.5 c 128,-1,13
 402 776 402 776 402 695 c 0,14,15
 402 665 402 665 410 641 c 128,-1,16
 418 617 418 617 430 598.5 c 128,-1,17
 442 580 442 580 456 568 c 128,-1,18
 470 556 470 556 482 551 c 1,19,20
 495 554 495 554 512.5 557 c 128,-1,21
 530 560 530 560 547 563 c 128,-1,22
 564 566 564 566 578.5 567.5 c 128,-1,23
 593 569 593 569 599 569 c 2,24,-1
 674 569 l 1,25,-1
 654 446 l 1,26,-1
 582 446 l 2,27,28
 576 446 576 446 560 447 c 128,-1,29
 544 448 544 448 524.5 450 c 128,-1,30
 505 452 505 452 483.5 454.5 c 128,-1,31
 462 457 462 457 445 459 c 1,32,33
 423 452 423 452 396 438.5 c 128,-1,34
 369 425 369 425 345.5 401.5 c 128,-1,35
 322 378 322 378 306 342 c 128,-1,36
 290 306 290 306 290 254 c 0,37,38
 290 180 290 180 328.5 142 c 128,-1,39
 367 104 367 104 435 104 c 0,40,41
 513 104 513 104 582 132 c 128,-1,42
 651 160 651 160 705 200 c 1,43,-1
 752 132 l 1,44,45
 717 102 717 102 677 74.5 c 128,-1,46
 637 47 637 47 589 26 c 128,-1,47
 541 5 541 5 485 -7.5 c 128,-1,48
 429 -20 429 -20 363 -20 c 0,49,50
 277 -20 277 -20 213.5 -1.5 c 128,-1,51
 150 17 150 17 108 51 c 128,-1,52
 66 85 66 85 45 132.5 c 128,-1,53
 24 180 24 180 24 239 c 0,54,55
 24 304 24 304 49 351 c 128,-1,56
 74 398 74 398 112 430 c 128,-1,57
 150 462 150 462 196.5 480.5 c 128,-1,58
 243 499 243 499 287 506 c 1,59,-1
 289 513 l 1,60,61
 258 525 258 525 231.5 544 c 128,-1,62
 205 563 205 563 185.5 588.5 c 128,-1,63
 166 614 166 614 155 645 c 128,-1,64
 144 676 144 676 144 711 c 0,65,66
 144 785 144 785 182 834 c 128,-1,67
 220 883 220 883 279 912 c 128,-1,68
 338 941 338 941 410 953 c 128,-1,69
 482 965 482 965 550 965 c 0,0,1
EndSplineSet
EndChar

StartChar: zeta
Encoding: 950 950 383
Width: 903
Flags: W
LayerCount: 2
Fore
SplineSet
382 -6 m 0,0,1
 293 18 293 18 229 50.5 c 128,-1,2
 165 83 165 83 124.5 124.5 c 128,-1,3
 84 166 84 166 65 216.5 c 128,-1,4
 46 267 46 267 46 327 c 0,5,6
 46 396 46 396 65.5 465 c 128,-1,7
 85 534 85 534 118 598 c 0,8,9
 169 698 169 698 245 793 c 128,-1,10
 321 888 321 888 410.5 977.5 c 128,-1,11
 500 1067 500 1067 597.5 1151.5 c 128,-1,12
 695 1236 695 1236 790 1314 c 1,13,-1
 790 1323 l 1,14,-1
 253 1223 l 1,15,-1
 253 1377 l 1,16,17
 350 1383 350 1383 448 1389.5 c 128,-1,18
 546 1396 546 1396 636 1403.5 c 128,-1,19
 726 1411 726 1411 804 1418.5 c 128,-1,20
 882 1426 882 1426 939 1434 c 1,21,-1
 962 1345 l 1,22,23
 861 1243 861 1243 768.5 1142.5 c 128,-1,24
 676 1042 676 1042 597 944.5 c 128,-1,25
 518 847 518 847 456 753 c 128,-1,26
 394 659 394 659 354 569 c 0,27,28
 333 522 333 522 322 476.5 c 128,-1,29
 311 431 311 431 311 399 c 0,30,31
 311 335 311 335 359.5 294 c 128,-1,32
 408 253 408 253 500 227 c 0,33,34
 615 195 615 195 677 133.5 c 128,-1,35
 739 72 739 72 739 -29 c 0,36,37
 739 -90 739 -90 711 -142 c 128,-1,38
 683 -194 683 -194 632.5 -237 c 128,-1,39
 582 -280 582 -280 513.5 -313.5 c 128,-1,40
 445 -347 445 -347 364 -372 c 1,41,-1
 340 -294 l 1,42,43
 373 -282 373 -282 402 -264 c 128,-1,44
 431 -246 431 -246 453 -224 c 128,-1,45
 475 -202 475 -202 487.5 -176.5 c 128,-1,46
 500 -151 500 -151 500 -123 c 0,47,48
 500 -97 500 -97 494 -78.5 c 128,-1,49
 488 -60 488 -60 474 -47 c 128,-1,50
 460 -34 460 -34 437.5 -24.5 c 128,-1,51
 415 -15 415 -15 382 -6 c 0,0,1
EndSplineSet
EndChar

StartChar: eta
Encoding: 951 951 384
Width: 1124
Flags: W
LayerCount: 2
Fore
SplineSet
820 965 m 0,0,1
 866 965 866 965 905.5 952.5 c 128,-1,2
 945 940 945 940 974 914 c 128,-1,3
 1003 888 1003 888 1019 848 c 128,-1,4
 1035 808 1035 808 1035 754 c 0,5,6
 1035 742 1035 742 1032 719.5 c 128,-1,7
 1029 697 1029 697 1025.5 671.5 c 128,-1,8
 1022 646 1022 646 1017.5 621.5 c 128,-1,9
 1013 597 1013 597 1010 580 c 2,10,-1
 922 69 l 2,11,12
 910 -2 910 -2 902.5 -75.5 c 128,-1,13
 895 -149 895 -149 890.5 -212.5 c 128,-1,14
 886 -276 886 -276 884.5 -324.5 c 128,-1,15
 883 -373 883 -373 883 -392 c 1,16,-1
 875 -437 l 1,17,-1
 598 -437 l 1,18,19
 598 -388 598 -388 602 -329.5 c 128,-1,20
 606 -271 606 -271 613.5 -207 c 128,-1,21
 621 -143 621 -143 630.5 -76 c 128,-1,22
 640 -9 640 -9 652 57 c 2,23,-1
 743 569 l 2,24,25
 747 590 747 590 750.5 613 c 128,-1,26
 754 636 754 636 757 657 c 128,-1,27
 760 678 760 678 762 696 c 128,-1,28
 764 714 764 714 764 725 c 0,29,30
 764 822 764 822 673 822 c 0,31,32
 639 822 639 822 601 801.5 c 128,-1,33
 563 781 563 781 527 748.5 c 128,-1,34
 491 716 491 716 461 675 c 128,-1,35
 431 634 431 634 414 594 c 1,36,-1
 308 0 l 1,37,-1
 42 0 l 1,38,-1
 190 849 l 1,39,-1
 101 874 l 1,40,-1
 114 940 l 1,41,-1
 448 940 l 1,42,-1
 440 765 l 1,43,44
 516 863 516 863 609.5 914 c 128,-1,45
 703 965 703 965 820 965 c 0,0,1
EndSplineSet
EndChar

StartChar: theta
Encoding: 952 952 385
Width: 1063
Flags: W
LayerCount: 2
Fore
SplineSet
661 1432 m 0,0,1
 751 1432 751 1432 819.5 1399 c 128,-1,2
 888 1366 888 1366 934 1304 c 128,-1,3
 980 1242 980 1242 1003.5 1153 c 128,-1,4
 1027 1064 1027 1064 1027 952 c 0,5,6
 1027 886 1027 886 1019.5 811.5 c 128,-1,7
 1012 737 1012 737 997 656 c 0,8,9
 963 479 963 479 909.5 351.5 c 128,-1,10
 856 224 856 224 784 141.5 c 128,-1,11
 712 59 712 59 621.5 19.5 c 128,-1,12
 531 -20 531 -20 422 -20 c 0,13,14
 334 -20 334 -20 269 12.5 c 128,-1,15
 204 45 204 45 161.5 105 c 128,-1,16
 119 165 119 165 98 250.5 c 128,-1,17
 77 336 77 336 77 443 c 0,18,19
 77 514 77 514 85 595 c 128,-1,20
 93 676 93 676 110 764 c 0,21,22
 144 939 144 939 195.5 1065.5 c 128,-1,23
 247 1192 247 1192 316.5 1273.5 c 128,-1,24
 386 1355 386 1355 472 1393.5 c 128,-1,25
 558 1432 558 1432 661 1432 c 0,0,1
650 1332 m 0,26,27
 592 1332 592 1332 550 1294 c 128,-1,28
 508 1256 508 1256 476.5 1182.5 c 128,-1,29
 445 1109 445 1109 420.5 1002.5 c 128,-1,30
 396 896 396 896 374 760 c 1,31,-1
 747 760 l 1,32,33
 761 845 761 845 769 921 c 128,-1,34
 777 997 777 997 777 1061 c 0,35,36
 777 1124 777 1124 769.5 1174 c 128,-1,37
 762 1224 762 1224 746.5 1259 c 128,-1,38
 731 1294 731 1294 707 1313 c 128,-1,39
 683 1332 683 1332 650 1332 c 0,26,27
355 652 m 1,40,41
 339 560 339 560 330 477.5 c 128,-1,42
 321 395 321 395 321 326 c 0,43,44
 321 270 321 270 327.5 224 c 128,-1,45
 334 178 334 178 347.5 146 c 128,-1,46
 361 114 361 114 381.5 96.5 c 128,-1,47
 402 79 402 79 430 79 c 0,48,49
 488 79 488 79 533.5 118 c 128,-1,50
 579 157 579 157 615 230.5 c 128,-1,51
 651 304 651 304 678.5 410.5 c 128,-1,52
 706 517 706 517 728 652 c 1,53,-1
 355 652 l 1,40,41
EndSplineSet
EndChar

StartChar: iota
Encoding: 953 953 386
Width: 569
Flags: W
LayerCount: 2
Fore
SplineSet
263 -20 m 0,0,1
 175 -20 175 -20 126.5 25.5 c 128,-1,2
 78 71 78 71 78 156 c 0,3,4
 78 173 78 173 80 190.5 c 128,-1,5
 82 208 82 208 85 227 c 2,6,-1
 195 850 l 1,7,-1
 103 874 l 1,8,-1
 115 940 l 1,9,-1
 480 940 l 1,10,-1
 356 235 l 2,11,12
 354 221 354 221 352.5 207 c 128,-1,13
 351 193 351 193 351 182 c 0,14,15
 351 144 351 144 367.5 124 c 128,-1,16
 384 104 384 104 419 104 c 0,17,18
 441 104 441 104 468.5 115.5 c 128,-1,19
 496 127 496 127 514 139 c 1,20,-1
 546 85 l 1,21,22
 515 58 515 58 478.5 38 c 128,-1,23
 442 18 442 18 404.5 5.5 c 128,-1,24
 367 -7 367 -7 330.5 -13.5 c 128,-1,25
 294 -20 294 -20 263 -20 c 0,0,1
EndSplineSet
EndChar

StartChar: kappa
Encoding: 954 954 387
Width: 1085
Flags: W
LayerCount: 2
Fore
SplineSet
1122 940 m 1,0,-1
 1111 877 l 1,1,-1
 999 861 l 1,2,-1
 696 590 l 1,3,-1
 936 98 l 1,4,-1
 1032 73 l 1,5,-1
 1019 0 l 1,6,-1
 694 0 l 1,7,-1
 503 426 l 1,8,-1
 375 347 l 1,9,-1
 315 0 l 1,10,-1
 46 0 l 1,11,-1
 196 850 l 1,12,-1
 104 874 l 1,13,-1
 115 940 l 1,14,-1
 480 940 l 1,15,-1
 396 461 l 1,16,-1
 901 940 l 1,17,-1
 1122 940 l 1,0,-1
EndSplineSet
EndChar

StartChar: lambda
Encoding: 955 955 388
Width: 909
Flags: W
LayerCount: 2
Fore
SplineSet
552 593 m 1,0,-1
 223 0 l 1,1,-1
 -70 0 l 1,2,-1
 -62 43 l 1,3,-1
 500 1003 l 1,4,-1
 484 1120 l 2,5,6
 477 1177 477 1177 467.5 1211.5 c 128,-1,7
 458 1246 458 1246 443 1273 c 128,-1,8
 428 1300 428 1300 406 1314 c 128,-1,9
 384 1328 384 1328 352 1328 c 0,10,11
 322 1328 322 1328 300 1316 c 1,12,-1
 252 1233 l 1,13,-1
 183 1233 l 1,14,-1
 207 1421 l 1,15,16
 237 1429 237 1429 278.5 1435.5 c 128,-1,17
 320 1442 320 1442 357 1442 c 0,18,19
 413 1442 413 1442 454 1424 c 128,-1,20
 495 1406 495 1406 524 1369.5 c 128,-1,21
 553 1333 553 1333 571.5 1277.5 c 128,-1,22
 590 1222 590 1222 602 1148 c 2,23,-1
 758 167 l 2,24,25
 762 143 762 143 771.5 126 c 128,-1,26
 781 109 781 109 794.5 97 c 128,-1,27
 808 85 808 85 824 77.5 c 128,-1,28
 840 70 840 70 856 65 c 1,29,-1
 844 0 l 1,30,-1
 628 0 l 1,31,-1
 552 593 l 1,0,-1
EndSplineSet
EndChar

StartChar: mu
Encoding: 956 956 389
Width: 1139
Flags: W
LayerCount: 2
Fore
SplineSet
75 874 m 1,0,-1
 88 940 l 1,1,-1
 474 940 l 1,2,-1
 372 371 l 2,3,4
 368 350 368 350 364 327 c 128,-1,5
 360 304 360 304 357 283 c 128,-1,6
 354 262 354 262 352 244 c 128,-1,7
 350 226 350 226 350 215 c 0,8,9
 350 118 350 118 441 118 c 0,10,11
 475 118 475 118 513 138.5 c 128,-1,12
 551 159 551 159 587 191.5 c 128,-1,13
 623 224 623 224 653 264.5 c 128,-1,14
 683 305 683 305 700 346 c 1,15,-1
 806 940 l 1,16,-1
 1072 940 l 1,17,-1
 924 91 l 1,18,-1
 1013 66 l 1,19,-1
 1000 0 l 1,20,-1
 671 0 l 1,21,-1
 674 175 l 1,22,23
 653 144 653 144 623 110 c 128,-1,24
 593 76 593 76 558 47 c 128,-1,25
 523 18 523 18 485.5 -1 c 128,-1,26
 448 -20 448 -20 414 -20 c 0,27,28
 376 -20 376 -20 348 -8.5 c 128,-1,29
 320 3 320 3 303 29 c 1,30,31
 292 -33 292 -33 278.5 -95.5 c 128,-1,32
 265 -158 265 -158 250 -217.5 c 128,-1,33
 235 -277 235 -277 219 -332.5 c 128,-1,34
 203 -388 203 -388 187 -436 c 1,35,-1
 -87 -436 l 1,36,-1
 -79 -391 l 1,37,38
 -70 -372 -70 -372 -53.5 -329 c 128,-1,39
 -37 -286 -37 -286 -18.5 -225.5 c 128,-1,40
 0 -165 0 -165 19 -90 c 128,-1,41
 38 -15 38 -15 53 69 c 2,42,-1
 191 850 l 1,43,-1
 75 874 l 1,0,-1
EndSplineSet
EndChar

